<svg width="36" height="36" viewBox="0 0 36 36" fill="none" xmlns="http://www.w3.org/2000/svg">
<path d="M18 18C19.7902 18 21.5071 17.2888 22.773 16.023C24.0388 14.7571 24.75 13.0402 24.75 11.25C24.75 9.45979 24.0388 7.7429 22.773 6.47703C21.5071 5.21116 19.7902 4.5 18 4.5C16.2098 4.5 14.4929 5.21116 13.227 6.47703C11.9612 7.7429 11.25 9.45979 11.25 11.25C11.25 13.0402 11.9612 14.7571 13.227 16.023C14.4929 17.2888 16.2098 18 18 18ZM18 20.25C15.6131 20.25 13.3239 19.3018 11.636 17.614C9.94821 15.9261 9 13.6369 9 11.25C9 8.86305 9.94821 6.57387 11.636 4.88604C13.3239 3.19821 15.6131 2.25 18 2.25C20.3869 2.25 22.6761 3.19821 24.364 4.88604C26.0518 6.57387 27 8.86305 27 11.25C27 13.6369 26.0518 15.9261 24.364 17.614C22.6761 19.3018 20.3869 20.25 18 20.25ZM29.25 31.5V28.125C29.25 27.2299 28.8944 26.3714 28.2615 25.7385C27.6286 25.1056 26.7701 24.75 25.875 24.75H10.125C9.22989 24.75 8.37145 25.1056 7.73851 25.7385C7.10558 26.3714 6.75 27.2299 6.75 28.125V31.5C6.75 31.7984 6.63147 32.0845 6.42049 32.2955C6.20952 32.5065 5.92337 32.625 5.625 32.625C5.32663 32.625 5.04048 32.5065 4.82951 32.2955C4.61853 32.0845 4.5 31.7984 4.5 31.5V28.125C4.5 26.6332 5.09263 25.2024 6.14752 24.1475C7.20242 23.0926 8.63316 22.5 10.125 22.5H25.875C27.3668 22.5 28.7976 23.0926 29.8525 24.1475C30.9074 25.2024 31.5 26.6332 31.5 28.125V31.5C31.5 31.7984 31.3815 32.0845 31.1705 32.2955C30.9595 32.5065 30.6734 32.625 30.375 32.625C30.0766 32.625 29.7905 32.5065 29.5795 32.2955C29.3685 32.0845 29.25 31.7984 29.25 31.5Z" fill="black"/>
</svg>
