<svg width="36" height="36" viewBox="0 0 36 36" fill="none" xmlns="http://www.w3.org/2000/svg">
<path d="M19.6875 25.3125C19.6875 25.6463 19.5885 25.9725 19.4031 26.25C19.2177 26.5275 18.9541 26.7438 18.6458 26.8715C18.3374 26.9993 17.9981 27.0327 17.6708 26.9676C17.3434 26.9025 17.0428 26.7417 16.8068 26.5057C16.5708 26.2697 16.41 25.9691 16.3449 25.6417C16.2798 25.3144 16.3132 24.9751 16.441 24.6667C16.5687 24.3584 16.785 24.0948 17.0625 23.9094C17.34 23.724 17.6663 23.625 18 23.625C18.4476 23.625 18.8768 23.8028 19.1932 24.1193C19.5097 24.4357 19.6875 24.8649 19.6875 25.3125ZM18 10.125C14.8978 10.125 12.375 12.3961 12.375 15.1875V15.75C12.375 16.0484 12.4935 16.3345 12.7045 16.5455C12.9155 16.7565 13.2016 16.875 13.5 16.875C13.7984 16.875 14.0845 16.7565 14.2955 16.5455C14.5065 16.3345 14.625 16.0484 14.625 15.75V15.1875C14.625 13.6406 16.1395 12.375 18 12.375C19.8605 12.375 21.375 13.6406 21.375 15.1875C21.375 16.7344 19.8605 18 18 18C17.7016 18 17.4155 18.1185 17.2045 18.3295C16.9935 18.5405 16.875 18.8266 16.875 19.125V20.25C16.875 20.5484 16.9935 20.8345 17.2045 21.0455C17.4155 21.2565 17.7016 21.375 18 21.375C18.2984 21.375 18.5845 21.2565 18.7955 21.0455C19.0065 20.8345 19.125 20.5484 19.125 20.25V20.1488C21.69 19.6777 23.625 17.6316 23.625 15.1875C23.625 12.3961 21.1022 10.125 18 10.125ZM32.625 18C32.625 20.8926 31.7673 23.7201 30.1602 26.1252C28.5532 28.5303 26.2691 30.4048 23.5968 31.5117C20.9244 32.6187 17.9838 32.9083 15.1468 32.344C12.3098 31.7797 9.70391 30.3868 7.65857 28.3414C5.61323 26.2961 4.22033 23.6902 3.65602 20.8532C3.09171 18.0162 3.38134 15.0756 4.48827 12.4033C5.5952 9.73089 7.46972 7.44677 9.87479 5.83976C12.2799 4.23274 15.1075 3.375 18 3.375C21.8775 3.37909 25.5951 4.92125 28.3369 7.66309C31.0788 10.4049 32.6209 14.1225 32.625 18ZM30.375 18C30.375 15.5525 29.6492 13.1599 28.2894 11.1248C26.9297 9.08976 24.997 7.50363 22.7357 6.56699C20.4745 5.63036 17.9863 5.38529 15.5858 5.86278C13.1852 6.34027 10.9802 7.51888 9.24956 9.24955C7.51889 10.9802 6.34028 13.1852 5.86279 15.5858C5.3853 17.9863 5.63036 20.4745 6.567 22.7357C7.50363 24.9969 9.08977 26.9297 11.1248 28.2894C13.1599 29.6492 15.5525 30.375 18 30.375C21.2809 30.3713 24.4264 29.0663 26.7463 26.7463C29.0663 24.4264 30.3713 21.2809 30.375 18Z" fill="black"/>
</svg>
