<svg width="36" height="36" viewBox="0 0 36 36" fill="none" xmlns="http://www.w3.org/2000/svg">
<g clip-path="url(#clip0_57_656)">
<path d="M29.29 34H6.71C6.48675 34.0013 6.26543 33.9586 6.05867 33.8744C5.85191 33.7902 5.66377 33.666 5.50498 33.5091C5.34619 33.3522 5.21987 33.1655 5.13322 32.9598C5.04658 32.754 5.00131 32.5332 5 32.31V6.68996C5.00594 6.44258 5.06426 6.19928 5.17114 5.9761C5.27801 5.75293 5.43099 5.55496 5.62 5.39525C5.809 5.23554 6.02972 5.11773 6.2676 5.04959C6.50548 4.98145 6.7551 4.96454 7 4.99996H9V6.99996H7V32H29V6.99996H27V4.99996H29.25C29.4766 4.99329 29.7022 5.032 29.9136 5.11381C30.125 5.19563 30.3179 5.31889 30.481 5.47636C30.644 5.63382 30.7739 5.82231 30.8631 6.03073C30.9522 6.23914 30.9988 6.46328 31 6.68996V32.31C30.9987 32.5332 30.9534 32.754 30.8668 32.9598C30.7801 33.1655 30.6538 33.3522 30.495 33.5091C30.3362 33.666 30.1481 33.7902 29.9413 33.8744C29.7346 33.9586 29.5132 34.0013 29.29 34Z" fill="black"/>
<path d="M16.6595 25.76L11.2995 20.4C11.137 20.2076 11.053 19.9609 11.0645 19.7092C11.076 19.4575 11.182 19.2195 11.3614 19.0426C11.5408 18.8658 11.7803 18.7631 12.0321 18.7552C12.2839 18.7473 12.5294 18.8347 12.7195 19L16.6595 22.94L25.2995 14.3C25.4909 14.1362 25.7369 14.0506 25.9886 14.0603C26.2403 14.07 26.479 14.1744 26.6571 14.3525C26.8352 14.5306 26.9395 14.7693 26.9493 15.021C26.959 15.2727 26.8734 15.5187 26.7095 15.71L16.6595 25.76Z" fill="black"/>
<path d="M26 11H10V7.33003C10.0026 6.71289 10.249 6.12177 10.6853 5.68538C11.1217 5.24899 11.7129 5.00266 12.33 5.00003H14.12C14.3403 4.13962 14.8407 3.37699 15.5423 2.83239C16.2439 2.28779 17.1068 1.99219 17.995 1.99219C18.8832 1.99219 19.7461 2.28779 20.4477 2.83239C21.1493 3.37699 21.6497 4.13962 21.87 5.00003H23.66C24.2789 5.00003 24.8726 5.24519 25.3111 5.68186C25.7497 6.11854 25.9974 6.71116 26 7.33003V11ZM12 9.00003H24V7.33003C24 7.24251 23.9652 7.15857 23.9033 7.09669C23.8415 7.0348 23.7575 7.00003 23.67 7.00003H20V6.00003C20 5.4696 19.7893 4.96089 19.4142 4.58582C19.0391 4.21074 18.5304 4.00003 18 4.00003C17.4696 4.00003 16.9609 4.21074 16.5858 4.58582C16.2107 4.96089 16 5.4696 16 6.00003V7.00003H12.33C12.2867 7.00003 12.2438 7.00857 12.2037 7.02515C12.1637 7.04173 12.1273 7.06604 12.0967 7.09669C12.066 7.12733 12.0417 7.16371 12.0251 7.20374C12.0085 7.24378 12 7.28669 12 7.33003V9.00003Z" fill="black"/>
</g>
<defs>
<clipPath id="clip0_57_656">
<rect width="36" height="36" fill="white"/>
</clipPath>
</defs>
</svg>
