<svg width="36" height="36" viewBox="0 0 36 36" fill="none" xmlns="http://www.w3.org/2000/svg">
<path d="M30.375 10.6875H23.4577C24.1022 10.4027 24.7008 10.0235 25.2337 9.56249C25.6034 9.23383 25.9011 8.83234 26.1082 8.38321C26.3154 7.93408 26.4275 7.44699 26.4375 6.95249C26.4534 6.40449 26.3573 5.85902 26.1548 5.34952C25.9524 4.84002 25.6481 4.37725 25.2604 3.98959C24.8727 3.60194 24.41 3.29757 23.9005 3.09515C23.391 2.89274 22.8455 2.79655 22.2975 2.81249C21.803 2.82253 21.3159 2.93464 20.8668 3.14178C20.4176 3.34892 20.0162 3.64664 19.6875 4.01624C18.8564 4.95421 18.3333 6.17624 18 7.34765C17.6695 6.17624 17.1464 4.95702 16.3125 4.01624C15.9838 3.64664 15.5824 3.34892 15.1332 3.14178C14.6841 2.93464 14.197 2.82253 13.7025 2.81249C13.1545 2.79655 12.609 2.89274 12.0995 3.09515C11.59 3.29757 11.1273 3.60194 10.7396 3.98959C10.3519 4.37725 10.0476 4.84002 9.84516 5.34952C9.64275 5.85902 9.54656 6.40449 9.5625 6.95249C9.57254 7.44699 9.68465 7.93408 9.89179 8.38321C10.0989 8.83234 10.3966 9.23383 10.7662 9.56249C11.2992 10.0235 11.8978 10.4027 12.5423 10.6875H5.625C5.17745 10.6875 4.74822 10.8653 4.43176 11.1817C4.11529 11.4982 3.9375 11.9274 3.9375 12.375V16.875C3.9375 17.3225 4.11529 17.7518 4.43176 18.0682C4.74822 18.3847 5.17745 18.5625 5.625 18.5625H6.1875V28.125C6.1875 28.5725 6.36529 29.0018 6.68176 29.3182C6.99822 29.6347 7.42745 29.8125 7.875 29.8125H28.125C28.5726 29.8125 29.0018 29.6347 29.3182 29.3182C29.6347 29.0018 29.8125 28.5725 29.8125 28.125V18.5625H30.375C30.8226 18.5625 31.2518 18.3847 31.5682 18.0682C31.8847 17.7518 32.0625 17.3225 32.0625 16.875V12.375C32.0625 11.9274 31.8847 11.4982 31.5682 11.1817C31.2518 10.8653 30.8226 10.6875 30.375 10.6875ZM20.5312 4.76156C20.7584 4.50772 21.0355 4.30351 21.3453 4.16172C21.655 4.01992 21.9907 3.94359 22.3313 3.93749H22.417C22.8044 3.9379 23.1878 4.01594 23.5446 4.16698C23.9013 4.31803 24.2241 4.53903 24.4941 4.81693C24.764 5.09484 24.9754 5.424 25.116 5.785C25.2566 6.14599 25.3234 6.5315 25.3125 6.91874C25.3064 7.25933 25.2301 7.595 25.0883 7.90472C24.9465 8.21445 24.7423 8.49157 24.4884 8.71874C22.7883 10.2234 19.838 10.5764 18.5822 10.658C18.6694 9.41202 19.0209 6.46874 20.5312 4.76156ZM10.6875 6.91874C10.6766 6.5315 10.7434 6.14599 10.884 5.785C11.0246 5.424 11.236 5.09484 11.5059 4.81693C11.7758 4.53903 12.0987 4.31803 12.4554 4.16698C12.8122 4.01594 13.1956 3.9379 13.583 3.93749H13.6687C14.0093 3.94359 14.345 4.01992 14.6547 4.16172C14.9645 4.30351 15.2416 4.50772 15.4688 4.76156C16.9748 6.46171 17.3264 9.41202 17.408 10.6678C16.1578 10.5862 13.2075 10.2333 11.5017 8.72859C11.2485 8.49942 11.0454 8.22032 10.9053 7.90885C10.7651 7.59737 10.691 7.26027 10.6875 6.91874ZM5.0625 16.875V12.375C5.0625 12.2258 5.12176 12.0827 5.22725 11.9772C5.33274 11.8718 5.47582 11.8125 5.625 11.8125H17.4375V17.4375H5.625C5.47582 17.4375 5.33274 17.3782 5.22725 17.2727C5.12176 17.1673 5.0625 17.0242 5.0625 16.875ZM7.3125 28.125V18.5625H17.4375V28.6875H7.875C7.72582 28.6875 7.58274 28.6282 7.47725 28.5227C7.37176 28.4173 7.3125 28.2742 7.3125 28.125ZM28.6875 28.125C28.6875 28.2742 28.6282 28.4173 28.5227 28.5227C28.4173 28.6282 28.2742 28.6875 28.125 28.6875H18.5625V18.5625H28.6875V28.125ZM30.9375 16.875C30.9375 17.0242 30.8782 17.1673 30.7727 17.2727C30.6673 17.3782 30.5242 17.4375 30.375 17.4375H18.5625V11.8125H30.375C30.5242 11.8125 30.6673 11.8718 30.7727 11.9772C30.8782 12.0827 30.9375 12.2258 30.9375 12.375V16.875Z" fill="black"/>
</svg>
