<svg width="36" height="36" viewBox="0 0 36 36" fill="none" xmlns="http://www.w3.org/2000/svg">
<path d="M14.4 22.305L15.462 21.225L12.237 18L15.462 14.775L14.4 13.695L10.095 18L14.4 22.305ZM21.6 22.305L25.905 18L21.6 13.695L20.538 14.775L23.763 18L20.538 21.225L21.6 22.305ZM8.424 30C7.752 30 7.18 29.764 6.708 29.292C6.236 28.82 6 28.2485 6 27.5775V8.4225C6 7.7525 6.236 7.181 6.708 6.708C7.18 6.236 7.752 6 8.424 6H15.474C15.337 5.234 15.52 4.5425 16.023 3.9255C16.525 3.3085 17.184 3 18 3C18.835 3 19.504 3.3085 20.007 3.9255C20.51 4.5425 20.6835 5.234 20.5275 6H27.5775C28.2475 6 28.819 6.236 29.292 6.708C29.764 7.18 30 7.752 30 8.424V27.5775C30 28.2475 29.764 28.819 29.292 29.292C28.82 29.764 28.2485 30 27.5775 30H8.424ZM8.424 28.5H27.5775C27.8075 28.5 28.019 28.404 28.212 28.212C28.405 28.02 28.501 27.808 28.5 27.576V8.424C28.5 8.193 28.404 7.981 28.212 7.788C28.02 7.595 27.808 7.499 27.576 7.5H8.424C8.193 7.5 7.981 7.596 7.788 7.788C7.595 7.98 7.499 8.192 7.5 8.424V27.5775C7.5 27.8075 7.596 28.019 7.788 28.212C7.98 28.405 8.1915 28.501 8.4225 28.5M18 6.663C18.325 6.663 18.594 6.557 18.807 6.345C19.02 6.133 19.126 5.864 19.125 5.538C19.124 5.212 19.0175 4.9435 18.8055 4.7325C18.5935 4.5215 18.325 4.415 18 4.413C17.675 4.411 17.4065 4.5175 17.1945 4.7325C16.9825 4.9475 16.876 5.216 16.875 5.538C16.874 5.86 16.9805 6.129 17.1945 6.345C17.4085 6.561 17.677 6.667 18 6.663Z" fill="black"/>
</svg>
