<svg width="36" height="36" viewBox="0 0 36 36" fill="none" xmlns="http://www.w3.org/2000/svg">
<g clip-path="url(#clip0_57_694)">
<path fill-rule="evenodd" clip-rule="evenodd" d="M18.6 24.75H20.625C25.803 24.75 30 20.553 30 15.375C30 10.197 25.803 6 20.625 6H15.375C10.197 6 6 10.197 6 15.375C6 21.42 9.447 25.035 13.0725 27.2145C14.892 28.308 16.725 29.0145 18.1102 29.4473C18.2807 29.5007 18.444 29.55 18.6 29.595V24.75ZM20.1 31.5C20.1 31.5 19.527 31.4032 18.6 31.1527C14.6925 30.0938 4.5 26.2875 4.5 15.375C4.5 9.369 9.369 4.5 15.375 4.5H20.625C26.631 4.5 31.5 9.369 31.5 15.375C31.5 21.381 26.631 26.25 20.625 26.25H20.1V31.5Z" fill="black"/>
<path fill-rule="evenodd" clip-rule="evenodd" d="M20.7683 9.36157C21.5408 9.87457 22.1228 10.7063 22.1228 11.8216C22.1228 13.0051 21.6458 13.8751 20.8726 14.4076C20.5675 14.6145 20.2305 14.7701 19.8751 14.8681V16.0171C19.8751 16.3154 19.7566 16.6016 19.5456 16.8126C19.3346 17.0235 19.0485 17.1421 18.7501 17.1421C18.4517 17.1421 18.1656 17.0235 17.9546 16.8126C17.7436 16.6016 17.6251 16.3154 17.6251 16.0171V13.9193C17.625 13.6339 17.7335 13.3591 17.9284 13.1506C18.1234 12.9422 18.3903 12.8156 18.6751 12.7966C19.0906 12.7688 19.4056 12.6863 19.5953 12.5551C19.6722 12.5041 19.7343 12.4337 19.7753 12.3511C19.8203 12.2611 19.8728 12.1006 19.8728 11.8208C19.8728 11.5868 19.7813 11.4068 19.5226 11.2343C19.2286 11.0393 18.7561 10.8953 18.1883 10.8773C17.6273 10.8593 17.0821 10.9688 16.6808 11.1631C16.2788 11.3581 16.1311 11.5771 16.0898 11.7383C16.0531 11.8814 15.9885 12.0159 15.8998 12.1341C15.8111 12.2522 15.7 12.3517 15.5728 12.427C15.4457 12.5022 15.3049 12.5516 15.1587 12.5724C15.0124 12.5932 14.8634 12.5851 14.7203 12.5483C14.5772 12.5116 14.4428 12.447 14.3246 12.3583C14.2064 12.2696 14.1069 12.1585 14.0317 12.0313C13.9565 11.9042 13.9071 11.7634 13.8862 11.6171C13.8654 11.4709 13.8736 11.3219 13.9103 11.1788C14.1691 10.1731 14.9213 9.51607 15.6998 9.13882C16.4798 8.76007 17.3971 8.60032 18.2596 8.62807C19.1168 8.65507 20.0318 8.87107 20.7683 9.36157Z" fill="black"/>
<path d="M20.25 20.25C20.25 20.6478 20.092 21.0294 19.8107 21.3107C19.5294 21.592 19.1478 21.75 18.75 21.75C18.3522 21.75 17.9706 21.592 17.6893 21.3107C17.408 21.0294 17.25 20.6478 17.25 20.25C17.25 19.8522 17.408 19.4706 17.6893 19.1893C17.9706 18.908 18.3522 18.75 18.75 18.75C19.1478 18.75 19.5294 18.908 19.8107 19.1893C20.092 19.4706 20.25 19.8522 20.25 20.25Z" fill="black"/>
</g>
<defs>
<clipPath id="clip0_57_694">
<rect width="36" height="36" fill="white"/>
</clipPath>
</defs>
</svg>
