<svg width="36" height="36" viewBox="0 0 36 36" fill="none" xmlns="http://www.w3.org/2000/svg">
<path d="M18 6.00005V3.31505C18 2.64005 17.19 2.31005 16.725 2.79005L12.525 6.97505C12.225 7.27505 12.225 7.74005 12.525 8.04005L16.71 12.225C17.19 12.69 18 12.36 18 11.685V9.00005C22.965 9.00005 27 13.035 27 18C27 19.185 26.775 20.34 26.34 21.375C26.115 21.915 26.28 22.53 26.685 22.935C27.45 23.7 28.74 23.43 29.145 22.425C29.7 21.06 30 19.56 30 18C30 11.37 24.63 6.00005 18 6.00005ZM18 27C13.035 27 9 22.965 9 18C9 16.815 9.225 15.66 9.66 14.625C9.885 14.085 9.72 13.47 9.315 13.065C8.55 12.3 7.26 12.57 6.855 13.575C6.3 14.94 6 16.44 6 18C6 24.63 11.37 30 18 30V32.685C18 33.36 18.81 33.69 19.275 33.21L23.46 29.025C23.76 28.725 23.76 28.26 23.46 27.96L19.275 23.775C19.1693 23.6714 19.0352 23.6014 18.8897 23.5738C18.7442 23.5462 18.5938 23.5623 18.4575 23.62C18.3211 23.6778 18.2049 23.7746 18.1235 23.8983C18.0421 24.022 17.9991 24.167 18 24.315V27Z" fill="black"/>
</svg>
