<svg width="36" height="36" viewBox="0 0 36 36" fill="none" xmlns="http://www.w3.org/2000/svg">
<path d="M8.424 30C7.733 30 7.1565 29.769 6.6945 29.307C6.2325 28.845 6.001 28.268 6 27.576V8.424C6 7.733 6.2315 7.1565 6.6945 6.6945C7.1575 6.2325 7.734 6.001 8.424 6H18.0285V7.5H8.424C8.193 7.5 7.981 7.596 7.788 7.788C7.595 7.98 7.499 8.192 7.5 8.424V27.5775C7.5 27.8075 7.596 28.019 7.788 28.212C7.98 28.405 8.1915 28.501 8.4225 28.5H18.0285V30H8.424ZM24.693 23.3085L23.64 22.2285L27.1185 18.75H13.788V17.25H27.1185L23.6385 13.77L24.6915 12.693L30 18L24.693 23.3085Z" fill="black"/>
</svg>
