<svg width="36" height="36" viewBox="0 0 36 36" fill="none" xmlns="http://www.w3.org/2000/svg">
<path d="M31.5 25.5V12H10.5V25.5H31.5ZM31.5 4.5C32.2956 4.5 33.0587 4.81607 33.6213 5.37868C34.1839 5.94129 34.5 6.70435 34.5 7.5V25.5C34.5 26.2956 34.1839 27.0587 33.6213 27.6213C33.0587 28.1839 32.2956 28.5 31.5 28.5H10.5C9.70435 28.5 8.94129 28.1839 8.37868 27.6213C7.81607 27.0587 7.5 26.2956 7.5 25.5V7.5C7.5 6.70435 7.81607 5.94129 8.37868 5.37868C8.94129 4.81607 9.70435 4.5 10.5 4.5H12V1.5H15V4.5H27V1.5H30V4.5H31.5ZM26.295 16.59L19.635 23.25L15.615 19.23L17.205 17.64L19.635 20.07L24.705 15L26.295 16.59ZM4.5 31.5H25.5V34.5H4.5C3.70435 34.5 2.94129 34.1839 2.37868 33.6213C1.81607 33.0587 1.5 32.2956 1.5 31.5V13.5H4.5V31.5Z" fill="black"/>
</svg>
