<svg width="36" height="36" viewBox="0 0 36 36" fill="none" xmlns="http://www.w3.org/2000/svg">
<path fill-rule="evenodd" clip-rule="evenodd" d="M18 12.375C16.5082 12.375 15.0774 12.9676 14.0225 14.0225C12.9676 15.0774 12.375 16.5082 12.375 18C12.375 19.4918 12.9676 20.9226 14.0225 21.9775C15.0774 23.0324 16.5082 23.625 18 23.625C19.4918 23.625 20.9226 23.0324 21.9775 21.9775C23.0324 20.9226 23.625 19.4918 23.625 18C23.625 16.5082 23.0324 15.0774 21.9775 14.0225C20.9226 12.9676 19.4918 12.375 18 12.375ZM14.625 18C14.625 17.1049 14.9806 16.2465 15.6135 15.6135C16.2465 14.9806 17.1049 14.625 18 14.625C18.8951 14.625 19.7536 14.9806 20.3865 15.6135C21.0194 16.2465 21.375 17.1049 21.375 18C21.375 18.8951 21.0194 19.7536 20.3865 20.3865C19.7536 21.0194 18.8951 21.375 18 21.375C17.1049 21.375 16.2465 21.0194 15.6135 20.3865C14.9806 19.7536 14.625 18.8951 14.625 18Z" fill="black"/>
<path fill-rule="evenodd" clip-rule="evenodd" d="M17.9627 1.875C17.2952 1.875 16.7387 1.875 16.2826 1.905C15.8165 1.92441 15.3569 2.02071 14.9222 2.19C14.4215 2.39713 13.9666 2.70086 13.5834 3.08383C13.2002 3.4668 12.8961 3.92151 12.6887 4.422C12.4712 4.947 12.4127 5.502 12.3887 6.105C12.3863 6.32553 12.3279 6.54184 12.219 6.73363C12.1101 6.92542 11.9543 7.08641 11.7662 7.2015C11.5725 7.30725 11.3551 7.36205 11.1344 7.36074C10.9138 7.35943 10.6971 7.30205 10.5047 7.194C9.97065 6.912 9.46065 6.6855 8.89665 6.6105C8.35957 6.53985 7.81383 6.57569 7.29059 6.71595C6.76736 6.85622 6.27688 7.09818 5.84715 7.428C5.48381 7.72032 5.17112 8.07051 4.92165 8.4645C4.66665 8.8455 4.38765 9.327 4.05465 9.9045L4.01715 9.9705C3.68265 10.548 3.40515 11.0295 3.20415 11.4405C2.99415 11.8695 2.82915 12.2925 2.76915 12.7605C2.62605 13.845 2.91957 14.9419 3.58515 15.81C3.93165 16.2615 4.38315 16.59 4.89315 16.911C5.08329 17.0234 5.24171 17.1823 5.35349 17.3729C5.46528 17.5634 5.52676 17.7792 5.53215 18C5.52676 18.2208 5.46528 18.4366 5.35349 18.6271C5.24171 18.8176 5.08329 18.9766 4.89315 19.089C4.38315 19.41 3.93315 19.7385 3.58515 20.19C3.25533 20.6197 3.01337 21.1102 2.87311 21.6334C2.73284 22.1567 2.697 22.7024 2.76765 23.2395C2.82915 23.7075 2.99265 24.1305 3.20265 24.5595C3.40515 24.9705 3.68265 25.452 4.01715 26.0295L4.05465 26.0955C4.38765 26.673 4.66665 27.1545 4.92165 27.5355C5.18715 27.93 5.47215 28.2855 5.84715 28.5705C6.27676 28.9006 6.7672 29.1428 7.29043 29.2833C7.81367 29.4239 8.35947 29.4599 8.89665 29.3895C9.46065 29.3145 9.97065 29.0895 10.5047 28.806C10.6968 28.6981 10.9133 28.6408 11.1337 28.6395C11.3541 28.6382 11.5712 28.6929 11.7647 28.7985C11.9538 28.9127 12.1106 29.0734 12.2201 29.2653C12.3296 29.4573 12.3881 29.674 12.3902 29.895C12.4127 30.498 12.4712 31.053 12.6902 31.578C12.8973 32.0786 13.201 32.5335 13.584 32.9168C13.967 33.3 14.4217 33.604 14.9222 33.8115C15.3572 33.9915 15.8071 34.062 16.2826 34.0935C16.7387 34.125 17.2952 34.125 17.9627 34.125H18.0377C18.7051 34.125 19.2617 34.125 19.7177 34.095C20.1947 34.062 20.6432 33.9915 21.0782 33.81C21.5788 33.6029 22.0337 33.2991 22.4169 32.9162C22.8001 32.5332 23.1042 32.0785 23.3117 31.578C23.5292 31.053 23.5877 30.498 23.6117 29.895C23.6138 29.6742 23.6721 29.4576 23.781 29.2655C23.8898 29.0734 24.0458 28.9122 24.2341 28.797C24.428 28.6915 24.6454 28.6369 24.8661 28.6385C25.0867 28.6401 25.3034 28.6977 25.4957 28.806C26.0296 29.088 26.5397 29.3145 27.1037 29.388C28.1881 29.5311 29.2851 29.2376 30.1531 28.572C30.5281 28.284 30.8132 27.93 31.0787 27.5355C31.3337 27.1545 31.6127 26.673 31.9457 26.0955L31.9832 26.0295C32.3177 25.452 32.5952 24.9705 32.7962 24.5595C33.0062 24.1305 33.1712 23.706 33.2311 23.2395C33.3742 22.155 33.0807 21.0581 32.4152 20.19C32.0687 19.7385 31.6172 19.41 31.1072 19.089C30.917 18.9766 30.7586 18.8176 30.6468 18.6271C30.535 18.4366 30.4735 18.2208 30.4682 18C30.4682 17.583 30.6962 17.169 31.1072 16.911C31.6172 16.59 32.0672 16.2615 32.4152 15.81C32.745 15.3803 32.9869 14.8898 33.1272 14.3666C33.2675 13.8433 33.3033 13.2976 33.2327 12.7605C33.1613 12.2996 33.0143 11.8536 32.7976 11.4405C32.5416 10.9421 32.2699 10.4519 31.9832 9.9705L31.9457 9.9045C31.6716 9.41563 31.3825 8.9354 31.0787 8.4645C30.8292 8.07093 30.5165 7.72123 30.1531 7.4295C29.7235 7.09941 29.2331 6.85719 28.7099 6.71666C28.1866 6.57614 27.6408 6.54006 27.1037 6.6105C26.5397 6.6855 26.0296 6.9105 25.4957 7.194C25.3034 7.30178 25.087 7.35901 24.8666 7.36032C24.6462 7.36163 24.4291 7.30699 24.2356 7.2015C24.047 7.08678 23.8905 6.92594 23.7811 6.73413C23.6717 6.54231 23.6129 6.32582 23.6101 6.105C23.5877 5.502 23.5292 4.947 23.3102 4.422C23.103 3.92137 22.7993 3.46646 22.4163 3.08323C22.0333 2.7 21.5786 2.39597 21.0782 2.1885C20.6432 2.0085 20.1932 1.938 19.7177 1.9065C19.2617 1.875 18.7051 1.875 18.0377 1.875H17.9627ZM15.7832 4.2675C15.8987 4.2195 16.0742 4.176 16.4356 4.1505C16.8062 4.125 17.2862 4.125 18.0002 4.125C18.7142 4.125 19.1942 4.125 19.5647 4.1505C19.9262 4.176 20.1017 4.2195 20.2171 4.2675C20.6777 4.458 21.0422 4.8225 21.2327 5.283C21.2927 5.427 21.3422 5.6535 21.3617 6.189C21.4067 7.377 22.0202 8.5215 23.1091 9.15C24.1982 9.78 25.4957 9.738 26.5471 9.183C27.0212 8.9325 27.2416 8.862 27.3976 8.8425C27.8905 8.77738 28.389 8.91064 28.7836 9.213C28.8827 9.2895 29.0087 9.42 29.2112 9.72C29.4197 10.029 29.6597 10.4445 30.0167 11.0625C30.3736 11.6805 30.6122 12.0975 30.7757 12.4305C30.9362 12.756 30.9857 12.93 31.0007 13.0545C31.0658 13.5473 30.9325 14.0459 30.6301 14.4405C30.5342 14.565 30.3632 14.721 29.9102 15.006C28.9022 15.639 28.2182 16.743 28.2182 18C28.2182 19.257 28.9022 20.361 29.9102 20.994C30.3632 21.279 30.5342 21.435 30.6301 21.5595C30.9332 21.954 31.0652 22.452 31.0007 22.9455C30.9857 23.07 30.9347 23.2455 30.7757 23.5695C30.6122 23.904 30.3736 24.3195 30.0167 24.9375C29.6597 25.5555 29.4182 25.971 29.2112 26.28C29.0087 26.58 28.8827 26.7105 28.7836 26.787C28.389 27.0894 27.8905 27.2226 27.3976 27.1575C27.2416 27.138 27.0226 27.0675 26.5471 26.817C25.4972 26.262 24.1982 26.22 23.1091 26.8485C22.0202 27.4785 21.4067 28.623 21.3617 29.811C21.3422 30.3465 21.2927 30.573 21.2327 30.717C21.1384 30.9447 21.0002 31.1516 20.826 31.3258C20.6517 31.5001 20.4448 31.6383 20.2171 31.7325C20.1017 31.7805 19.9262 31.824 19.5647 31.8495C19.1942 31.875 18.7142 31.875 18.0002 31.875C17.2862 31.875 16.8062 31.875 16.4356 31.8495C16.0742 31.824 15.8987 31.7805 15.7832 31.7325C15.5555 31.6383 15.3486 31.5001 15.1743 31.3258C15.0001 31.1516 14.8619 30.9447 14.7677 30.717C14.7077 30.573 14.6582 30.3465 14.6387 29.811C14.5937 28.623 13.9802 27.4785 12.8912 26.85C11.8022 26.22 10.5047 26.262 9.45315 26.817C8.97915 27.0675 8.75865 27.138 8.60265 27.1575C8.1098 27.2226 7.61127 27.0894 7.21665 26.787C7.11765 26.7105 6.99165 26.58 6.78915 26.28C6.50702 25.8408 6.23839 25.3931 5.98365 24.9375C5.62665 24.3195 5.38815 23.9025 5.22465 23.5695C5.06415 23.244 5.01465 23.07 4.99965 22.9455C4.93453 22.4527 5.06779 21.9541 5.37015 21.5595C5.46615 21.435 5.63715 21.279 6.09015 20.994C7.09815 20.361 7.78215 19.257 7.78215 18C7.78215 16.743 7.09815 15.639 6.09015 15.006C5.63715 14.721 5.46615 14.565 5.37015 14.4405C5.06779 14.0459 4.93453 13.5473 4.99965 13.0545C5.01465 12.93 5.06565 12.7545 5.22465 12.4305C5.38815 12.096 5.62665 11.6805 5.98365 11.0625C6.34065 10.4445 6.58215 10.029 6.78915 9.72C6.99165 9.42 7.11765 9.2895 7.21665 9.213C7.61127 8.91064 8.1098 8.77738 8.60265 8.8425C8.75865 8.862 8.97765 8.9325 9.45315 9.183C10.5032 9.738 11.8022 9.78 12.8912 9.15C13.9802 8.5215 14.5937 7.377 14.6387 6.189C14.6582 5.6535 14.7077 5.427 14.7677 5.283C14.9582 4.8225 15.3227 4.458 15.7832 4.2675Z" fill="black"/>
</svg>
