<svg width="36" height="36" viewBox="0 0 36 36" fill="none" xmlns="http://www.w3.org/2000/svg">
<path d="M26.25 18C28.438 18 30.5365 18.8692 32.0836 20.4164C33.6308 21.9635 34.5 24.062 34.5 26.25C34.5 28.438 33.6308 30.5365 32.0836 32.0836C30.5365 33.6308 28.438 34.5 26.25 34.5C24.062 34.5 21.9635 33.6308 20.4164 32.0836C18.8692 30.5365 18 28.438 18 26.25C18 24.062 18.8692 21.9635 20.4164 20.4164C21.9635 18.8692 24.062 18 26.25 18ZM26.25 21L26.115 21.0105C25.9651 21.0379 25.8272 21.1102 25.7195 21.218C25.6117 21.3257 25.5394 21.4636 25.512 21.6135L25.5 21.75V25.5H21.747L21.612 25.512C21.4621 25.5394 21.3242 25.6117 21.2165 25.7195C21.1087 25.8272 21.0364 25.9651 21.009 26.115L20.997 26.25L21.009 26.385C21.0364 26.5349 21.1087 26.6728 21.2165 26.7805C21.3242 26.8883 21.4621 26.9606 21.612 26.988L21.747 27H25.5V30.7545L25.512 30.8895C25.5394 31.0394 25.6117 31.1773 25.7195 31.285C25.8272 31.3928 25.9651 31.4651 26.115 31.4925L26.25 31.5045L26.385 31.4925C26.5349 31.4651 26.6728 31.3928 26.7805 31.285C26.8883 31.1773 26.9606 31.0394 26.988 30.8895L27 30.7545V27L30.756 27.0015L30.891 26.9895C31.0409 26.9621 31.1788 26.8898 31.2865 26.782C31.3943 26.6743 31.4666 26.5364 31.494 26.3865L31.506 26.2515L31.494 26.1165C31.4665 25.9664 31.3939 25.8283 31.2859 25.7206C31.1779 25.6128 31.0396 25.5406 30.8895 25.5135L30.7545 25.5015H27V21.7515L26.988 21.6165C26.9609 21.4664 26.8887 21.3281 26.7809 21.2201C26.6732 21.1121 26.5351 21.0395 26.385 21.012L26.25 21ZM21.381 15C21.9748 15.0001 22.558 15.1569 23.0719 15.4545C23.5857 15.7521 24.0119 16.18 24.3075 16.695C23.5195 16.8532 22.7545 17.1097 22.0305 17.4585C21.8413 17.3225 21.614 17.2496 21.381 17.25H14.628C14.3296 17.25 14.0435 17.3685 13.8325 17.5795C13.6215 17.7905 13.503 18.0766 13.503 18.375V24.7485C13.503 26.8635 14.964 28.6395 16.932 29.121C17.1888 29.9612 17.5598 30.7622 18.0345 31.5015L18.0045 31.5C17.1178 31.5002 16.2398 31.3257 15.4206 30.9865C14.6014 30.6472 13.857 30.1499 13.23 29.523C12.6031 28.896 12.1058 28.1516 11.7665 27.3324C11.4273 26.5132 11.2528 25.6352 11.253 24.7485V18.375C11.253 17.4799 11.6086 16.6215 12.2415 15.9885C12.8744 15.3556 13.7329 15 14.628 15H21.381ZM11.109 15C10.5066 15.6269 10.0834 16.4039 9.8835 17.25H6.375C6.07663 17.25 5.79048 17.3685 5.5795 17.5795C5.36853 17.7905 5.25 18.0766 5.25 18.375V22.4985C5.24962 23.0654 5.37778 23.625 5.62484 24.1353C5.87191 24.6455 6.23145 25.0931 6.67643 25.4444C7.1214 25.7957 7.64023 26.0415 8.1939 26.1634C8.74757 26.2852 9.32166 26.28 9.873 26.148C10.0005 26.904 10.233 27.6255 10.5525 28.296C10.0565 28.431 9.539 28.499 9 28.5C8.21194 28.5 7.4316 28.3448 6.70355 28.0431C5.9755 27.7415 5.314 27.2994 4.75683 26.7421C4.19966 26.1848 3.75773 25.5232 3.45629 24.7951C3.15485 24.0669 2.9998 23.2866 3 22.4985V18.375C2.9999 17.5198 3.32444 16.6965 3.90805 16.0714C4.49166 15.4463 5.29082 15.066 6.144 15.0075L6.375 15H11.109ZM29.625 15C30.5201 15 31.3785 15.3556 32.0115 15.9885C32.6444 16.6215 33 17.4799 33 18.375V19.215C31.1863 17.4703 28.7666 16.497 26.25 16.5L25.8825 16.5075C25.653 15.9476 25.3196 15.4361 24.9 15H29.625ZM27.75 6C28.7446 6 29.6984 6.39509 30.4016 7.09835C31.1049 7.80161 31.5 8.75544 31.5 9.75C31.5 10.7446 31.1049 11.6984 30.4016 12.4017C29.6984 13.1049 28.7446 13.5 27.75 13.5C26.7554 13.5 25.8016 13.1049 25.0984 12.4017C24.3951 11.6984 24 10.7446 24 9.75C24 8.75544 24.3951 7.80161 25.0984 7.09835C25.8016 6.39509 26.7554 6 27.75 6ZM18 4.5C19.1935 4.5 20.3381 4.97411 21.182 5.81802C22.0259 6.66193 22.5 7.80653 22.5 9C22.5 10.1935 22.0259 11.3381 21.182 12.182C20.3381 13.0259 19.1935 13.5 18 13.5C16.8065 13.5 15.6619 13.0259 14.818 12.182C13.9741 11.3381 13.5 10.1935 13.5 9C13.5 7.80653 13.9741 6.66193 14.818 5.81802C15.6619 4.97411 16.8065 4.5 18 4.5ZM8.25 6C9.24456 6 10.1984 6.39509 10.9017 7.09835C11.6049 7.80161 12 8.75544 12 9.75C12 10.7446 11.6049 11.6984 10.9017 12.4017C10.1984 13.1049 9.24456 13.5 8.25 13.5C7.25544 13.5 6.30161 13.1049 5.59835 12.4017C4.89509 11.6984 4.5 10.7446 4.5 9.75C4.5 8.75544 4.89509 7.80161 5.59835 7.09835C6.30161 6.39509 7.25544 6 8.25 6ZM27.75 8.25C27.3522 8.25 26.9706 8.40804 26.6893 8.68934C26.408 8.97064 26.25 9.35218 26.25 9.75C26.25 10.1478 26.408 10.5294 26.6893 10.8107C26.9706 11.092 27.3522 11.25 27.75 11.25C28.1478 11.25 28.5294 11.092 28.8107 10.8107C29.092 10.5294 29.25 10.1478 29.25 9.75C29.25 9.35218 29.092 8.97064 28.8107 8.68934C28.5294 8.40804 28.1478 8.25 27.75 8.25ZM18 6.75C17.4033 6.75 16.831 6.98705 16.409 7.40901C15.9871 7.83097 15.75 8.40326 15.75 9C15.75 9.59674 15.9871 10.169 16.409 10.591C16.831 11.0129 17.4033 11.25 18 11.25C18.5967 11.25 19.169 11.0129 19.591 10.591C20.0129 10.169 20.25 9.59674 20.25 9C20.25 8.40326 20.0129 7.83097 19.591 7.40901C19.169 6.98705 18.5967 6.75 18 6.75ZM8.25 8.25C7.85218 8.25 7.47064 8.40804 7.18934 8.68934C6.90804 8.97064 6.75 9.35218 6.75 9.75C6.75 10.1478 6.90804 10.5294 7.18934 10.8107C7.47064 11.092 7.85218 11.25 8.25 11.25C8.64783 11.25 9.02936 11.092 9.31066 10.8107C9.59196 10.5294 9.75 10.1478 9.75 9.75C9.75 9.35218 9.59196 8.97064 9.31066 8.68934C9.02936 8.40804 8.64783 8.25 8.25 8.25Z" fill="black"/>
</svg>
