<svg width="36" height="36" viewBox="0 0 36 36" fill="none" xmlns="http://www.w3.org/2000/svg">
<path d="M19.1295 3C20.8665 3 22.296 4.3125 22.4805 6H25.125C25.9802 5.99989 26.8035 6.32444 27.4286 6.90805C28.0537 7.49166 28.434 8.29082 28.4925 9.144L28.5 9.375V16.761C27.7627 16.5869 27.0076 16.4993 26.25 16.5V9.375C26.25 9.10314 26.1515 8.84049 25.9729 8.6356C25.7942 8.43072 25.5473 8.29747 25.278 8.2605L25.125 8.25H21.927C21.6192 8.70926 21.2029 9.08549 20.7149 9.34531C20.2269 9.60514 19.6824 9.74054 19.1295 9.7395H13.8705C13.3178 9.7407 12.7733 9.60553 12.2853 9.34597C11.7974 9.08642 11.3809 8.71048 11.073 8.2515L7.875 8.25C7.60314 8.25001 7.34049 8.34846 7.1356 8.52715C6.93072 8.70584 6.79747 8.95267 6.7605 9.222L6.75 9.375V29.6325C6.75 30.2025 7.173 30.672 7.722 30.747L7.875 30.7575H17.6025C18.0321 31.5807 18.5771 32.3384 19.221 33.0075H7.875C7.01981 33.0076 6.19647 32.6831 5.57137 32.0994C4.94627 31.5158 4.56603 30.7167 4.5075 29.8635L4.5 29.6325V9.375C4.49989 8.51981 4.82444 7.69647 5.40805 7.07137C5.99166 6.44627 6.79082 6.06603 7.644 6.0075L7.875 6H10.5195C10.6107 5.17511 11.0031 4.41288 11.6214 3.85931C12.2398 3.30575 13.0406 2.99977 13.8705 3H19.1295ZM19.1295 5.25H13.8705C13.5806 5.26061 13.3061 5.38323 13.1048 5.59206C12.9035 5.8009 12.791 6.07967 12.791 6.36975C12.791 6.65983 12.9035 6.9386 13.1048 7.14744C13.3061 7.35627 13.5806 7.47889 13.8705 7.4895H19.1295C19.28 7.49501 19.4301 7.47012 19.5707 7.41633C19.7114 7.36254 19.8398 7.28095 19.9482 7.17643C20.0566 7.0719 20.1428 6.9466 20.2017 6.808C20.2606 6.6694 20.291 6.52035 20.291 6.36975C20.291 6.21915 20.2606 6.0701 20.2017 5.9315C20.1428 5.7929 20.0566 5.6676 19.9482 5.56308C19.8398 5.45855 19.7114 5.37696 19.5707 5.32317C19.4301 5.26938 19.28 5.24449 19.1295 5.25ZM12.375 20.994H18.0375C17.5878 21.6954 17.2299 22.4516 16.9725 23.244H12.75V23.6145C12.75 24.855 13.7925 25.4985 16.5 25.4985H16.5285C16.4713 26.2493 16.5 27.0042 16.614 27.7485H16.5C12.708 27.7485 10.5 26.385 10.5 23.6145V22.8675C10.5 21.8325 11.34 20.9925 12.375 20.9925M16.5 11.9925C17.4946 11.9925 18.4484 12.3876 19.1517 13.0908C19.8549 13.7941 20.25 14.7479 20.25 15.7425C20.25 16.7371 19.8549 17.6909 19.1517 18.3941C18.4484 19.0974 17.4946 19.4925 16.5 19.4925C15.5054 19.4925 14.5516 19.0974 13.8483 18.3941C13.1451 17.6909 12.75 16.7371 12.75 15.7425C12.75 14.7479 13.1451 13.7941 13.8483 13.0908C14.5516 12.3876 15.5054 11.9925 16.5 11.9925ZM16.5 14.2425C16.1022 14.2425 15.7206 14.4005 15.4393 14.6818C15.158 14.9631 15 15.3447 15 15.7425C15 16.1403 15.158 16.5219 15.4393 16.8032C15.7206 17.0845 16.1022 17.2425 16.5 17.2425C16.8978 17.2425 17.2794 17.0845 17.5607 16.8032C17.842 16.5219 18 16.1403 18 15.7425C18 15.3447 17.842 14.9631 17.5607 14.6818C17.2794 14.4005 16.8978 14.2425 16.5 14.2425ZM34.5 26.25C34.5 24.062 33.6308 21.9635 32.0836 20.4164C30.5365 18.8692 28.438 18 26.25 18C24.062 18 21.9635 18.8692 20.4164 20.4164C18.8692 21.9635 18 24.062 18 26.25C18 28.438 18.8692 30.5365 20.4164 32.0836C21.9635 33.6308 24.062 34.5 26.25 34.5C28.438 34.5 30.5365 33.6308 32.0836 32.0836C33.6308 30.5365 34.5 28.438 34.5 26.25ZM27 27L27.0015 30.7545C27.0015 30.9534 26.9225 31.1442 26.7818 31.2848C26.6412 31.4255 26.4504 31.5045 26.2515 31.5045C26.0526 31.5045 25.8618 31.4255 25.7212 31.2848C25.5805 31.1442 25.5015 30.9534 25.5015 30.7545V27H21.744C21.5451 27 21.3543 26.921 21.2137 26.7803C21.073 26.6397 20.994 26.4489 20.994 26.25C20.994 26.0511 21.073 25.8603 21.2137 25.7197C21.3543 25.579 21.5451 25.5 21.744 25.5H25.5V21.75C25.5 21.5511 25.579 21.3603 25.7197 21.2197C25.8603 21.079 26.0511 21 26.25 21C26.4489 21 26.6397 21.079 26.7803 21.2197C26.921 21.3603 27 21.5511 27 21.75V25.5H30.7545C30.9534 25.5 31.1442 25.579 31.2848 25.7197C31.4255 25.8603 31.5045 26.0511 31.5045 26.25C31.5045 26.4489 31.4255 26.6397 31.2848 26.7803C31.1442 26.921 30.9534 27 30.7545 27H27Z" fill="black"/>
</svg>
