<svg width="36" height="36" viewBox="0 0 36 36" fill="none" xmlns="http://www.w3.org/2000/svg">
<path fill-rule="evenodd" clip-rule="evenodd" d="M12 10.5V9C12 7.4087 12.6321 5.88258 13.7574 4.75736C14.8826 3.63214 16.4087 3 18 3C19.5913 3 21.1174 3.63214 22.2426 4.75736C23.3679 5.88258 24 7.4087 24 9V10.5H28.5C29.328 10.5 30 11.1735 30 12.0105V30.012C30 31.662 28.6575 33 27.009 33H8.991C8.19826 33 7.43794 32.6853 6.8771 32.125C6.31627 31.5647 6.0008 30.8047 6 30.012V12.012C6 11.175 6.6675 10.5 7.5 10.5H12ZM13.8 10.5H22.2V9C22.2 7.88609 21.7575 6.8178 20.9698 6.03015C20.1822 5.2425 19.1139 4.8 18 4.8C16.8861 4.8 15.8178 5.2425 15.0302 6.03015C14.2425 6.8178 13.8 7.88609 13.8 9V10.5ZM12 12.3H7.8V30.012C7.8 30.666 8.334 31.2 8.991 31.2H27.009C27.3244 31.2 27.6268 31.0749 27.8501 30.8522C28.0734 30.6295 28.1992 30.3274 28.2 30.012V12.3H24V16.5H22.2V12.3H13.8V16.5H12V12.3Z" fill="black"/>
</svg>
