<svg width="30" height="30" viewBox="0 0 30 30" fill="none" xmlns="http://www.w3.org/2000/svg">
<g clip-path="url(#clip0_57_684)">
<path d="M28.125 2.80933L20.6184 2.80936V0.940918C20.6184 0.422949 20.1989 0.00341797 19.6809 0.00341797C19.163 0.00341797 18.7434 0.422949 18.7434 0.940918V2.80889H11.2434V0.940918C11.2434 0.422949 10.8239 0.00341797 10.3059 0.00341797C9.78797 0.00341797 9.36844 0.422949 9.36844 0.940918V2.80889H1.875C0.839531 2.80889 0 3.64842 0 4.68389V28.1214C0 29.1568 0.839531 29.9964 1.875 29.9964H28.125C29.1605 29.9964 30 29.1568 30 28.1214V4.68389C30 3.64886 29.1605 2.80933 28.125 2.80933ZM28.125 28.1214H1.875V4.68389H9.36844V5.62842C9.36844 6.14636 9.78797 6.56592 10.3059 6.56592C10.8239 6.56592 11.2434 6.14636 11.2434 5.62842V4.68436H18.7434V5.62889C18.7434 6.14685 19.163 6.56639 19.6809 6.56639C20.1989 6.56639 20.6184 6.14685 20.6184 5.62889V4.68436H28.125V28.1214ZM21.5625 14.9968H23.4375C23.955 14.9968 24.375 14.5768 24.375 14.0593V12.1843C24.375 11.6668 23.955 11.2468 23.4375 11.2468H21.5625C21.045 11.2468 20.625 11.6668 20.625 12.1843V14.0593C20.625 14.5768 21.045 14.9968 21.5625 14.9968ZM21.5625 22.4964H23.4375C23.955 22.4964 24.375 22.0768 24.375 21.5589V19.6839C24.375 19.1664 23.955 18.7464 23.4375 18.7464H21.5625C21.045 18.7464 20.625 19.1664 20.625 19.6839V21.5589C20.625 22.0773 21.045 22.4964 21.5625 22.4964ZM15.9375 18.7464H14.0625C13.545 18.7464 13.125 19.1664 13.125 19.6839V21.5589C13.125 22.0768 13.545 22.4964 14.0625 22.4964H15.9375C16.455 22.4964 16.875 22.0768 16.875 21.5589V19.6839C16.875 19.1668 16.455 18.7464 15.9375 18.7464ZM15.9375 11.2468H14.0625C13.545 11.2468 13.125 11.6668 13.125 12.1843V14.0593C13.125 14.5768 13.545 14.9968 14.0625 14.9968H15.9375C16.455 14.9968 16.875 14.5768 16.875 14.0593V12.1843C16.875 11.6664 16.455 11.2468 15.9375 11.2468ZM8.4375 11.2468H6.5625C6.045 11.2468 5.625 11.6668 5.625 12.1843V14.0593C5.625 14.5768 6.045 14.9968 6.5625 14.9968H8.4375C8.955 14.9968 9.375 14.5768 9.375 14.0593V12.1843C9.375 11.6664 8.955 11.2468 8.4375 11.2468ZM8.4375 18.7464H6.5625C6.045 18.7464 5.625 19.1664 5.625 19.6839V21.5589C5.625 22.0768 6.045 22.4964 6.5625 22.4964H8.4375C8.955 22.4964 9.375 22.0768 9.375 21.5589V19.6839C9.375 19.1668 8.955 18.7464 8.4375 18.7464Z" fill="black"/>
</g>
<defs>
<clipPath id="clip0_57_684">
<rect width="30" height="30" fill="white"/>
</clipPath>
</defs>
</svg>
