<svg width="36" height="36" viewBox="0 0 36 36" fill="none" xmlns="http://www.w3.org/2000/svg">
<path d="M12.1875 6H23.8125C24.4351 5.99996 25.0341 6.23817 25.4867 6.66575C25.9392 7.09334 26.211 7.6779 26.2463 8.2995L26.25 8.4375V10.4992L27.5625 10.5C29.7375 10.5 31.5 12.2625 31.5 14.4375V24.5625C31.5 25.209 31.2432 25.829 30.7861 26.2861C30.329 26.7432 29.709 27 29.0625 27L26.25 26.9993V28.3125C26.25 28.959 25.9932 29.579 25.5361 30.0361C25.079 30.4932 24.459 30.75 23.8125 30.75H12.1875C11.541 30.75 10.921 30.4932 10.4639 30.0361C10.0068 29.579 9.75 28.959 9.75 28.3125V26.9993L6.9375 27C6.29103 27 5.67105 26.7432 5.21393 26.2861C4.75681 25.829 4.5 25.209 4.5 24.5625V14.4375C4.5 12.2625 6.2625 10.5 8.4375 10.5L9.75 10.4992V8.4375C9.74996 7.8149 9.98817 7.21588 10.4158 6.76333C10.8433 6.31077 11.4279 6.039 12.0495 6.00375L12.1875 6ZM23.8125 21.375H12.1875C12.0383 21.375 11.8952 21.4343 11.7898 21.5398C11.6843 21.6452 11.625 21.7883 11.625 21.9375V28.3125C11.625 28.623 11.877 28.875 12.1875 28.875H23.8125C23.9617 28.875 24.1048 28.8157 24.2102 28.7102C24.3157 28.6048 24.375 28.4617 24.375 28.3125V21.9375C24.375 21.7883 24.3157 21.6452 24.2102 21.5398C24.1048 21.4343 23.9617 21.375 23.8125 21.375ZM27.5625 12.375H8.4375C7.89049 12.375 7.36589 12.5923 6.97909 12.9791C6.5923 13.3659 6.375 13.8905 6.375 14.4375V24.5625C6.375 24.873 6.627 25.125 6.9375 25.125L9.75 25.1243V21.9375C9.75 21.291 10.0068 20.671 10.4639 20.2139C10.921 19.7568 11.541 19.5 12.1875 19.5H23.8125C24.459 19.5 25.079 19.7568 25.5361 20.2139C25.9932 20.671 26.25 21.291 26.25 21.9375V25.1243L29.0625 25.125C29.2117 25.125 29.3548 25.0657 29.4602 24.9602C29.5657 24.8548 29.625 24.7117 29.625 24.5625V14.4375C29.625 13.8905 29.4077 13.3659 29.0209 12.9791C28.6341 12.5923 28.1095 12.375 27.5625 12.375ZM23.8125 7.875H12.1875C12.0516 7.87501 11.9202 7.92423 11.8178 8.01358C11.7154 8.10292 11.6487 8.22633 11.6302 8.361L11.625 8.4375V10.4992H24.375V8.4375C24.375 8.30157 24.3258 8.17024 24.2364 8.0678C24.1471 7.96536 24.0237 7.89874 23.889 7.88025L23.8125 7.875Z" fill="black"/>
</svg>
