<svg width="24" height="24" viewBox="0 0 24 24" fill="none" xmlns="http://www.w3.org/2000/svg">
<path d="M7.989 3.49956C7.85815 3.6335 7.7849 3.81332 7.7849 4.00056C7.7849 4.18781 7.85815 4.36762 7.989 4.50156L15.2985 12.0001L7.989 19.4971C7.85815 19.631 7.7849 19.8108 7.7849 19.9981C7.7849 20.1853 7.85815 20.3651 7.989 20.4991C8.05259 20.5644 8.12862 20.6163 8.21261 20.6517C8.2966 20.6872 8.38683 20.7054 8.47799 20.7054C8.56916 20.7054 8.65939 20.6872 8.74338 20.6517C8.82737 20.6163 8.9034 20.5644 8.967 20.4991L16.74 12.5236C16.8765 12.3835 16.9529 12.1957 16.9529 12.0001C16.9529 11.8045 16.8765 11.6166 16.74 11.4766L8.967 3.50106C8.9034 3.43575 8.82737 3.38383 8.74338 3.34839C8.65939 3.31294 8.56916 3.29468 8.47799 3.29468C8.38683 3.29468 8.2966 3.31294 8.21261 3.34839C8.12862 3.38383 8.05259 3.43575 7.989 3.50106V3.49956Z" fill="black"/>
</svg>
