<svg width="96" height="109" viewBox="0 0 96 109" fill="none" xmlns="http://www.w3.org/2000/svg">
<mask id="mask0_134_1354" style="mask-type:luminance" maskUnits="userSpaceOnUse" x="0" y="0" width="96" height="109">
<path d="M95.708 0H0.291992V108.963H95.708V0Z" fill="white"/>
</mask>
<g mask="url(#mask0_134_1354)">
<path d="M90.8108 20.6082H78.6789C76.4397 20.6082 74.6246 22.4235 74.6246 24.6627V91.3791C74.6246 93.6183 76.4397 95.4337 78.6789 95.4337H90.8108C93.05 95.4337 94.8654 93.6183 94.8654 91.3791V24.6627C94.8654 22.4235 93.05 20.6082 90.8108 20.6082Z" fill="white"/>
<path opacity="0.45" d="M84.1172 49.8457V19.7946H25.2872V95.0017H84.1172V49.8457Z" fill="#C9D2DF"/>
<path d="M56.4194 73.0153H89.8414V70.4076H56.4194V73.0153Z" fill="#C9D2DF"/>
<path d="M56.4194 78.9406H89.8414V76.3332H56.4194V78.9406Z" fill="#C9D2DF"/>
<path d="M56.4194 84.8728H89.8414V82.2651H56.4194V84.8728Z" fill="#C9D2DF"/>
<path d="M56.4194 51.0227H89.8414V48.415H56.4194V51.0227Z" fill="#C9D2DF"/>
<path d="M56.4194 56.9351H89.8414V54.3277H56.4194V56.9351Z" fill="#C9D2DF"/>
<path d="M56.4194 62.8851H89.8414V60.2776H56.4194V62.8851Z" fill="#C9D2DF"/>
<path d="M56.4194 28.3346H89.8414V25.727H56.4194V28.3346Z" fill="#C9D2DF"/>
<path d="M56.4194 40.2099H89.8414V25.5502H56.4194V40.2099Z" fill="#C9D2DF"/>
<path d="M93.3386 95.5598C93.1912 95.5598 93.0497 95.5012 92.9454 95.3969C92.8407 95.2923 92.7822 95.1508 92.7822 95.0034C92.7822 94.8556 92.8407 94.7141 92.9454 94.6098C93.0497 94.5055 93.1912 94.4466 93.3386 94.4466C93.4676 94.4466 93.5949 94.4213 93.7137 94.3716C93.8322 94.3216 93.9401 94.2488 94.0303 94.157C94.1204 94.0652 94.1915 93.9566 94.2395 93.8369C94.2873 93.7174 94.3106 93.5897 94.3086 93.4611V57.0819C94.3086 56.9342 94.3672 56.7927 94.4715 56.6884C94.5758 56.5837 94.7177 56.5251 94.8651 56.5251C95.0128 56.5251 95.1543 56.5837 95.2586 56.6884C95.3629 56.7927 95.4215 56.9342 95.4215 57.0819V93.4611C95.4215 94.0149 95.2027 94.5463 94.8124 94.9395C94.4225 95.3324 93.8927 95.5555 93.3386 95.5598Z" fill="#3E3126"/>
<path d="M89.5548 95.5565H82.5588C82.4114 95.5565 82.2695 95.498 82.1652 95.3936C82.0609 95.2893 82.0023 95.1475 82.0023 95.0001C82.0023 94.8524 82.0609 94.7109 82.1652 94.6065C82.2695 94.5022 82.4114 94.4437 82.5588 94.4437H89.5548C89.7025 94.4437 89.844 94.5022 89.9483 94.6065C90.0526 94.7109 90.1112 94.8524 90.1112 95.0001C90.1112 95.1475 90.0526 95.2893 89.9483 95.3936C89.844 95.498 89.7025 95.5565 89.5548 95.5565Z" fill="#3E3126"/>
<path d="M75.0218 95.5617H37.5614C37.0076 95.5578 36.4778 95.3347 36.0875 94.9415C35.6976 94.5486 35.4785 94.0168 35.4785 93.463V23.0102C35.4827 22.0121 35.8812 21.056 36.587 20.3502C37.2925 19.6444 38.2488 19.2461 39.2468 19.2419H91.717C92.715 19.2461 93.6709 19.6444 94.3768 20.3502C95.0826 21.056 95.4811 22.0121 95.485 23.0102V49.8493C95.485 49.997 95.4264 50.1385 95.3221 50.2428C95.2178 50.3471 95.0763 50.406 94.9286 50.406C94.7812 50.406 94.6397 50.3471 94.535 50.2428C94.4307 50.1385 94.3722 49.997 94.3722 49.8493V23.0102C94.3722 22.306 94.0925 21.6306 93.5946 21.1326C93.0964 20.6346 92.4212 20.3549 91.717 20.3549H39.2468C38.5426 20.3549 37.8674 20.6346 37.3692 21.1326C36.8713 21.6306 36.5916 22.306 36.5916 23.0102V93.463C36.5893 93.5917 36.613 93.7197 36.6607 93.8391C36.7085 93.9586 36.7795 94.0675 36.87 94.1593C36.9602 94.2511 37.0678 94.3238 37.1866 94.3735C37.3054 94.4232 37.4327 94.4489 37.5614 94.4489H75.0218C75.1696 94.4489 75.3111 94.5075 75.4154 94.6118C75.5197 94.7164 75.5783 94.8579 75.5783 95.0053C75.5783 95.1531 75.5197 95.2946 75.4154 95.3989C75.3111 95.5032 75.1696 95.5617 75.0218 95.5617Z" fill="#3E3126"/>
<path d="M79.2518 11.1801H0.801331V99.7589H79.2518V11.1801Z" fill="white"/>
<path opacity="0.2" d="M79.2517 36.9491V97.9415C79.2517 98.2479 79.1909 98.5509 79.0734 98.8336C78.9556 99.1162 78.7832 99.3729 78.566 99.5887C78.3488 99.8043 78.0912 99.9751 77.8075 100.091C77.5242 100.206 77.2205 100.265 76.9141 100.263H7.6698C49.2006 88.2107 70.3318 55.4248 79.2517 36.9491Z" fill="#C9D2DF"/>
<path opacity="0.5" d="M79.2356 38.75H1.1825V39.084H79.2356V38.75Z" fill="#C9D2DF"/>
<path opacity="0.5" d="M79.2356 62.3892H1.1825V62.7228H79.2356V62.3892Z" fill="#C9D2DF"/>
<path opacity="0.5" d="M79.2356 87.6865H1.1825V88.0202H79.2356V87.6865Z" fill="#C9D2DF"/>
<path d="M2.3751 3.01818H78.059C78.3712 3.01818 78.6703 3.14214 78.8911 3.3628C79.1116 3.58343 79.2356 3.88271 79.2356 4.19478V10.682H1.1826V4.21068C1.18047 4.05349 1.20985 3.89745 1.26902 3.75181C1.32819 3.60617 1.41595 3.47386 1.52711 3.36267C1.63827 3.25152 1.77059 3.16376 1.91624 3.10459C2.06188 3.04542 2.21791 3.01604 2.3751 3.01818Z" fill="#C3C6E3"/>
<path d="M8.21075 7.37652C8.99229 7.37652 9.62584 6.74296 9.62584 5.96142C9.62584 5.17989 8.99229 4.54633 8.21075 4.54633C7.42921 4.54633 6.79565 5.17989 6.79565 5.96142C6.79565 6.74296 7.42921 7.37652 8.21075 7.37652Z" fill="#57A8B2"/>
<path d="M12.5032 7.37652C13.2848 7.37652 13.9183 6.74296 13.9183 5.96142C13.9183 5.17989 13.2848 4.54633 12.5032 4.54633C11.7217 4.54633 11.0881 5.17989 11.0881 5.96142C11.0881 6.74296 11.7217 7.37652 12.5032 7.37652Z" fill="#57A8B2"/>
<path d="M16.8121 7.37652C17.5937 7.37652 18.2272 6.74296 18.2272 5.96142C18.2272 5.17989 17.5937 4.54633 16.8121 4.54633C16.0306 4.54633 15.397 5.17989 15.397 5.96142C15.397 6.74296 16.0306 7.37652 16.8121 7.37652Z" fill="#57A8B2"/>
<path opacity="0.2" d="M79.2518 12.7206H1.18268C1.03727 12.6971 0.904968 12.6226 0.809483 12.5104C0.713998 12.3983 0.66156 12.2558 0.66156 12.1085C0.66156 11.9612 0.713998 11.8187 0.809483 11.7065C0.904968 11.5944 1.03727 11.5198 1.18268 11.4963H79.2518C79.3972 11.5198 79.5295 11.5944 79.6249 11.7065C79.7204 11.8187 79.7727 11.9612 79.7727 12.1085C79.7727 12.2558 79.7204 12.3983 79.6249 12.5104C79.5295 12.6226 79.3972 12.6971 79.2518 12.7206Z" fill="#C9D2DF"/>
<path d="M8.21075 7.37652C8.99229 7.37652 9.62584 6.74296 9.62584 5.96142C9.62584 5.17989 8.99229 4.54633 8.21075 4.54633C7.42921 4.54633 6.79565 5.17989 6.79565 5.96142C6.79565 6.74296 7.42921 7.37652 8.21075 7.37652Z" fill="#8F98D8"/>
<path d="M12.5032 7.37652C13.2848 7.37652 13.9183 6.74296 13.9183 5.96142C13.9183 5.17989 13.2848 4.54633 12.5032 4.54633C11.7217 4.54633 11.0881 5.17989 11.0881 5.96142C11.0881 6.74296 11.7217 7.37652 12.5032 7.37652Z" fill="#8F98D8"/>
<path d="M16.8121 7.37652C17.5937 7.37652 18.2272 6.74296 18.2272 5.96142C18.2272 5.17989 17.5937 4.54633 16.8121 4.54633C16.0306 4.54633 15.397 5.17989 15.397 5.96142C15.397 6.74296 16.0306 7.37652 16.8121 7.37652Z" fill="#8F98D8"/>
<path d="M8.24184 7.64709C7.90509 7.66618 7.57038 7.58378 7.28094 7.41057C6.99154 7.23739 6.76074 6.98132 6.61843 6.67549C6.47611 6.36971 6.42882 6.02825 6.48269 5.69528C6.53652 5.36231 6.68904 5.05316 6.9205 4.80782C7.15195 4.56248 7.45172 4.39222 7.78097 4.31911C8.11022 4.24596 8.45389 4.27327 8.76744 4.39755C9.081 4.52184 9.35006 4.73734 9.53983 5.01618C9.72959 5.29502 9.83131 5.6244 9.83186 5.96168C9.83256 6.39264 9.66813 6.80748 9.37241 7.12093C9.07669 7.43442 8.67212 7.62271 8.24184 7.64709ZM8.24184 4.76919C8.0148 4.76603 7.7919 4.83049 7.60157 4.95435C7.41121 5.0782 7.26202 5.25586 7.17291 5.46477C7.08384 5.67366 7.0589 5.90432 7.10125 6.12742C7.14359 6.35052 7.25136 6.55598 7.41082 6.71768C7.57028 6.87938 7.77419 6.99 7.9967 7.03548C8.21921 7.08095 8.45017 7.05924 8.6603 6.97309C8.8704 6.88691 9.05016 6.74022 9.17665 6.55164C9.30317 6.36303 9.37073 6.14108 9.37076 5.914C9.37287 5.76441 9.34523 5.61591 9.28942 5.47708C9.23364 5.33829 9.15082 5.21196 9.04579 5.10545C8.94075 4.9989 8.81558 4.91433 8.67758 4.85662C8.53957 4.7989 8.39143 4.76915 8.24184 4.76919Z" fill="#3E3126"/>
<path d="M12.503 7.64972C12.1704 7.64656 11.8461 7.54505 11.571 7.35799C11.2959 7.17089 11.0824 6.90659 10.9573 6.59833C10.8321 6.29011 10.801 5.95174 10.8678 5.62588C10.9347 5.29998 11.0964 5.00117 11.3328 4.76705C11.5691 4.53293 11.8694 4.37399 12.1959 4.31022C12.5224 4.24649 12.8605 4.28077 13.1675 4.40878C13.4745 4.53681 13.7368 4.75283 13.9213 5.02963C14.1058 5.30643 14.2043 5.63164 14.2043 5.96431C14.2001 6.41278 14.019 6.84144 13.7004 7.15703C13.3818 7.47266 12.9515 7.64972 12.503 7.64972ZM12.503 4.77182C12.2766 4.77182 12.0552 4.83895 11.867 4.96474C11.6787 5.09054 11.532 5.26932 11.4453 5.47853C11.3587 5.68771 11.336 5.91788 11.3802 6.13996C11.4244 6.362 11.5334 6.56602 11.6935 6.7261C11.8536 6.88622 12.0576 6.99524 12.2796 7.03943C12.5017 7.08359 12.7319 7.06091 12.9411 6.97428C13.1503 6.88764 13.3291 6.74088 13.4549 6.55263C13.5807 6.36437 13.6478 6.14302 13.6478 5.9166C13.6499 5.76569 13.6218 5.61584 13.565 5.476C13.5082 5.33615 13.424 5.20907 13.3172 5.10235C13.2105 4.99561 13.0835 4.91137 12.9436 4.85458C12.8038 4.79782 12.6539 4.76968 12.503 4.77182Z" fill="#3E3126"/>
<path d="M16.8122 7.64978C16.3652 7.64978 15.9365 7.47223 15.6204 7.15614C15.3044 6.84005 15.1268 6.41139 15.1268 5.96437C15.1268 5.51739 15.3044 5.08869 15.6204 4.77264C15.9365 4.45655 16.3652 4.27899 16.8122 4.27899C17.2592 4.27899 17.6879 4.45655 18.004 4.77264C18.32 5.08869 18.4976 5.51739 18.4976 5.96437C18.4976 6.41139 18.32 6.84005 18.004 7.15614C17.6879 7.47223 17.2592 7.64978 16.8122 7.64978ZM16.8122 4.81959C16.5339 4.85257 16.2773 4.98652 16.0911 5.19603C15.9049 5.40557 15.8021 5.67612 15.8021 5.95644C15.8021 6.23673 15.9049 6.50728 16.0911 6.71682C16.2773 6.92636 16.5339 7.06032 16.8122 7.09329C17.0906 7.06032 17.3472 6.92636 17.5333 6.71682C17.7195 6.50728 17.8223 6.23673 17.8223 5.95644C17.8223 5.67612 17.7195 5.40557 17.5333 5.19603C17.3472 4.98652 17.0906 4.85257 16.8122 4.81959Z" fill="#3E3126"/>
<path d="M52.3171 27.6508H45.0986V28.9546H52.3171V27.6508Z" fill="#C9D2DF"/>
<path d="M52.5553 51.0227H45.3369V52.3264H52.5553V51.0227Z" fill="#C9D2DF"/>
<path d="M52.5553 74.5062H45.3369V75.8099H52.5553V74.5062Z" fill="#C9D2DF"/>
<path d="M40.9805 43.7871H8.48103C8.22637 43.7871 8.01996 43.9938 8.01996 44.2484V45.9339C8.01996 46.1885 8.22637 46.3949 8.48103 46.3949H40.9805C41.2352 46.3949 41.4418 46.1885 41.4418 45.9339V44.2484C41.4418 43.9938 41.2352 43.7871 40.9805 43.7871Z" fill="#C9D2DF"/>
<path d="M40.9805 49.718H8.48103C8.22637 49.718 8.01996 49.9243 8.01996 50.179V51.8644C8.01996 52.1191 8.22637 52.3254 8.48103 52.3254H40.9805C41.2352 52.3254 41.4418 52.1191 41.4418 51.8644V50.179C41.4418 49.9243 41.2352 49.718 40.9805 49.718Z" fill="#C9D2DF"/>
<path d="M40.9805 55.6499H8.48103C8.22637 55.6499 8.01996 55.8565 8.01996 56.1109V57.7963C8.01996 58.051 8.22637 58.2577 8.48103 58.2577H40.9805C41.2352 58.2577 41.4418 58.051 41.4418 57.7963V56.1109C41.4418 55.8565 41.2352 55.6499 40.9805 55.6499Z" fill="#C9D2DF"/>
<path d="M40.9805 18.2663H8.48103C8.22637 18.2663 8.01996 18.4727 8.01996 18.7274V20.4128C8.01996 20.6674 8.22637 20.8739 8.48103 20.8739H40.9805C41.2352 20.8739 41.4418 20.6674 41.4418 20.4128V18.7274C41.4418 18.4727 41.2352 18.2663 40.9805 18.2663Z" fill="#C9D2DF"/>
<path d="M40.9805 24.1983H8.48103C8.22637 24.1983 8.01996 24.4048 8.01996 24.6594V26.3448C8.01996 26.5995 8.22637 26.8059 8.48103 26.8059H40.9805C41.2352 26.8059 41.4418 26.5995 41.4418 26.3448V24.6594C41.4418 24.4048 41.2352 24.1983 40.9805 24.1983Z" fill="#C9D2DF"/>
<path d="M40.9805 30.129H8.48103C8.22637 30.129 8.01996 30.3354 8.01996 30.59V32.2755C8.01996 32.5301 8.22637 32.7365 8.48103 32.7365H40.9805C41.2352 32.7365 41.4418 32.5301 41.4418 32.2755V30.59C41.4418 30.3354 41.2352 30.129 40.9805 30.129Z" fill="#C9D2DF"/>
<path d="M40.9805 67.1769H8.48103C8.22637 67.1769 8.01996 67.3836 8.01996 67.6383V69.3237C8.01996 69.5784 8.22637 69.7847 8.48103 69.7847H40.9805C41.2352 69.7847 41.4418 69.5784 41.4418 69.3237V67.6383C41.4418 67.3836 41.2352 67.1769 40.9805 67.1769Z" fill="#C9D2DF"/>
<path d="M40.9805 73.1091H8.48103C8.22637 73.1091 8.01996 73.3154 8.01996 73.5701V75.2556C8.01996 75.5102 8.22637 75.7166 8.48103 75.7166H40.9805C41.2352 75.7166 41.4418 75.5102 41.4418 75.2556V73.5701C41.4418 73.3154 41.2352 73.1091 40.9805 73.1091Z" fill="#C9D2DF"/>
<path d="M40.9805 79.041H8.48103C8.22637 79.041 8.01996 79.2473 8.01996 79.502V81.1874C8.01996 81.4421 8.22637 81.6487 8.48103 81.6487H40.9805C41.2352 81.6487 41.4418 81.4421 41.4418 81.1874V79.502C41.4418 79.2473 41.2352 79.041 40.9805 79.041Z" fill="#C9D2DF"/>
<path d="M47.0223 20.1108L47.5468 21.1602L48.7077 21.3351L47.865 22.1619L48.0716 23.3226L47.0223 22.7661L45.9729 23.3226L46.1796 22.1619L45.3369 21.3351L46.4974 21.1602L47.0223 20.1108Z" fill="#FF9C01"/>
<path d="M51.3793 20.1108L51.9038 21.1602L53.0647 21.3351L52.222 22.1619L52.4286 23.3226L51.3793 22.7661L50.3299 23.3226L50.5366 22.1619L49.6939 21.3351L50.8544 21.1602L51.3793 20.1108Z" fill="#FF9C01"/>
<path d="M55.7356 20.1108L56.2604 21.1602L57.421 21.3351L56.5783 22.1619L56.7692 23.3226L55.7356 22.7661L54.6862 23.3226L54.8929 22.1619L54.0344 21.3351L55.2111 21.1602L55.7356 20.1108Z" fill="#FF9C01"/>
<path d="M60.092 20.1108L60.6168 21.1602L61.7774 21.3351L60.9347 22.1619L61.1255 23.3226L60.092 22.7661L59.0426 23.3226L59.2493 22.1619L58.3907 21.3351L59.5671 21.1602L60.092 20.1108Z" fill="#FF9C01"/>
<path d="M64.4489 20.1108L64.9577 21.1602L66.1344 21.3351L65.2917 22.1619L65.4825 23.3226L64.4489 22.7661L63.3996 23.3226L63.5904 22.1619L62.7477 21.3351L63.9241 21.1602L64.4489 20.1108Z" fill="#FF9C01"/>
<path d="M47.0223 43.489L47.5468 44.5545L48.7077 44.7134L47.865 45.54L48.0716 46.7009L47.0223 46.1603L45.9729 46.7009L46.1796 45.54L45.3369 44.7134L46.4974 44.5545L47.0223 43.489Z" fill="#FF9C01"/>
<path d="M51.3793 43.489L51.9038 44.5545L53.0647 44.7134L52.222 45.54L52.4286 46.7009L51.3793 46.1603L50.3299 46.7009L50.5366 45.54L49.6939 44.7134L50.8544 44.5545L51.3793 43.489Z" fill="#FF9C01"/>
<path d="M55.7356 43.489L56.2604 44.5545L57.421 44.7134L56.5783 45.54L56.7692 46.7009L55.7356 46.1603L54.6862 46.7009L54.8929 45.54L54.0344 44.7134L55.2111 44.5545L55.7356 43.489Z" fill="#FF9C01"/>
<path d="M60.092 43.489L60.6168 44.5545L61.7774 44.7134L60.9347 45.54L61.1255 46.7009L60.092 46.1603L59.0426 46.7009L59.2493 45.54L58.3907 44.7134L59.5671 44.5545L60.092 43.489Z" fill="#FF9C01"/>
<path d="M64.4489 43.489L64.9577 44.5545L66.1344 44.7134L65.2917 45.54L65.4825 46.7009L64.4489 46.1603L63.3996 46.7009L63.5904 45.54L62.7477 44.7134L63.9241 44.5545L64.4489 43.489Z" fill="#FF9C01"/>
<path d="M47.0223 66.8739L47.5468 67.9233L48.7077 68.098L47.865 68.9249L48.0716 70.0855L47.0223 69.529L45.9729 70.0855L46.1796 68.9249L45.3369 68.098L46.4974 67.9233L47.0223 66.8739Z" fill="#FF9C01"/>
<path d="M51.3793 66.8739L51.9038 67.9233L53.0647 68.098L52.222 68.9249L52.4286 70.0855L51.3793 69.529L50.3299 70.0855L50.5366 68.9249L49.6939 68.098L50.8544 67.9233L51.3793 66.8739Z" fill="#FF9C01"/>
<path d="M55.7356 66.8739L56.2604 67.9233L57.421 68.098L56.5783 68.9249L56.7692 70.0855L55.7356 69.529L54.6862 70.0855L54.8929 68.9249L54.0344 68.098L55.2111 67.9233L55.7356 66.8739Z" fill="#FF9C01"/>
<path d="M60.092 66.8739L60.6168 67.9233L61.7774 68.098L60.9347 68.9249L61.1255 70.0855L60.092 69.529L59.0426 70.0855L59.2493 68.9249L58.3907 68.098L59.5671 67.9233L60.092 66.8739Z" fill="#FF9C01"/>
<path d="M64.4489 66.8739L64.9577 67.9233L66.1344 68.098L65.2917 68.9249L65.4825 70.0855L64.4489 69.529L63.3996 70.0855L63.5904 68.9249L62.7477 68.098L63.9241 67.9233L64.4489 66.8739Z" fill="#FF9C01"/>
<path opacity="0.45" d="M37.1007 1.75195H29.58C28.8775 1.75195 28.308 2.32145 28.308 3.02395V3.03985C28.308 3.74237 28.8775 4.31187 29.58 4.31187H37.1007C37.8032 4.31187 38.3728 3.74237 38.3728 3.03985V3.02395C38.3728 2.32145 37.8032 1.75195 37.1007 1.75195Z" fill="white"/>
<path opacity="0.45" d="M36.7669 7.15513C37.6537 7.15513 38.3727 6.6782 38.3727 6.08985C38.3727 5.5015 37.6537 5.02454 36.7669 5.02454C35.8798 5.02454 35.1608 5.5015 35.1608 6.08985C35.1608 6.6782 35.8798 7.15513 36.7669 7.15513Z" fill="white"/>
<path d="M94.8654 54.379C95.331 54.379 95.7081 54.0016 95.7081 53.5363C95.7081 53.0707 95.331 52.6936 94.8654 52.6936C94.4001 52.6936 94.0227 53.0707 94.0227 53.5363C94.0227 54.0016 94.4001 54.379 94.8654 54.379Z" fill="#3E3126"/>
<path d="M79.236 9.45905H0.801331V10.6833H79.236V9.45905Z" fill="#8F98D8"/>
<path d="M79.2514 11.4794H1.18235C1.03476 11.4794 0.893211 11.4208 0.788848 11.3165C0.684485 11.2121 0.625854 11.0705 0.625854 10.923C0.625854 10.7753 0.684485 10.6338 0.788848 10.5294C0.893211 10.4251 1.03476 10.3665 1.18235 10.3665H79.2514C79.3989 10.3665 79.5404 10.4251 79.645 10.5294C79.7493 10.6338 79.8079 10.7753 79.8079 10.923C79.8079 11.0705 79.7493 11.2121 79.645 11.3165C79.5404 11.4208 79.3989 11.4794 79.2514 11.4794Z" fill="#3E3126"/>
<path d="M1.18265 73.1371C1.06248 73.144 0.942169 73.1256 0.829817 73.0822C0.717461 73.039 0.615672 72.9723 0.531305 72.8864C0.446937 72.8005 0.381948 72.6975 0.340712 72.5843C0.299477 72.4714 0.282953 72.3507 0.292252 72.2306V46.7908C0.292252 46.5673 0.381036 46.3528 0.539073 46.1948C0.697109 46.0369 0.911455 45.9481 1.13495 45.9481C1.35845 45.9481 1.57279 46.0369 1.73083 46.1948C1.88887 46.3528 1.97765 46.5673 1.97765 46.7908V72.2306C1.98629 72.3428 1.97246 72.4553 1.93696 72.5619C1.90146 72.6685 1.84502 72.7669 1.77096 72.8512C1.69689 72.9357 1.60669 73.0045 1.50566 73.0535C1.40463 73.1026 1.29481 73.1309 1.18265 73.1371Z" fill="#3E3126"/>
<path d="M29.8024 101.507H3.21765C2.83346 101.507 2.45302 101.431 2.09807 101.284C1.74312 101.138 1.42061 100.922 1.14894 100.65C0.877276 100.378 0.661775 100.056 0.514751 99.7012C0.367726 99.3462 0.292053 98.9658 0.292053 98.5814V78.2453C0.292017 78.0077 0.385316 77.7796 0.551856 77.6102C0.718399 77.4407 0.944853 77.3433 1.18245 77.3391C1.42005 77.3433 1.64651 77.4407 1.81305 77.6102C1.97959 77.7796 2.07289 78.0077 2.07285 78.2453V98.5814C2.07285 98.8852 2.19347 99.1764 2.40816 99.3909C2.62285 99.6058 2.91403 99.7262 3.21765 99.7262H29.8024C30.0386 99.7262 30.2651 99.82 30.4321 99.9872C30.599 100.154 30.6929 100.381 30.6929 100.617C30.6929 100.853 30.599 101.079 30.4321 101.246C30.2651 101.413 30.0386 101.507 29.8024 101.507Z" fill="#3E3126"/>
<path d="M77.2169 101.347H54.0344C53.8406 101.347 53.6547 101.27 53.5175 101.133C53.3803 100.996 53.3033 100.81 53.3033 100.616C53.3033 100.422 53.3803 100.236 53.5175 100.099C53.6547 99.9616 53.8406 99.8846 54.0344 99.8846H77.2169C77.4107 99.8846 77.5967 99.9616 77.7339 100.099C77.8711 100.236 77.9481 100.422 77.9481 100.616C77.9481 100.81 77.8711 100.996 77.7339 101.133C77.5967 101.27 77.4107 101.347 77.2169 101.347Z" fill="#3E3126"/>
<path d="M79.2518 91.7908C79.0284 91.7908 78.8141 91.702 78.6559 91.544C78.4979 91.3858 78.4091 91.1715 78.4091 90.9481V5.08801C78.4009 4.19087 78.0419 3.33257 77.4091 2.69668C76.7763 2.06079 75.9195 1.69782 75.0225 1.6854H59.218C58.9943 1.6854 58.78 1.59662 58.6221 1.43858C58.4638 1.28054 58.3753 1.0662 58.3753 0.842699C58.3753 0.619203 58.4638 0.404857 58.6221 0.246823C58.78 0.0887843 58.9943 3.1381e-07 59.218 3.1381e-07L75.0225 0C76.3762 3.29054e-07 77.6743 0.537732 78.6315 1.4949C79.5887 2.45206 80.1264 3.75027 80.1264 5.1039V90.9639C80.1264 91.0768 80.1037 91.1883 80.0593 91.2917C80.0145 91.3953 79.9494 91.4888 79.8674 91.5661C79.7858 91.6434 79.6888 91.7033 79.5828 91.7421C79.4772 91.7806 79.3643 91.7971 79.2518 91.7908Z" fill="#3E3126"/>
<path d="M1.18245 39.7503C1.06784 39.7566 0.953113 39.7398 0.845301 39.7003C0.737487 39.6608 0.63887 39.5999 0.555494 39.521C0.472119 39.442 0.405744 39.3469 0.360443 39.2413C0.315143 39.136 0.29187 39.0225 0.292054 38.9076V5.10413C0.294121 4.42907 0.429659 3.76113 0.690867 3.13866C0.952076 2.51622 1.3338 1.95157 1.81407 1.47721C2.29434 1.00285 2.86368 0.628146 3.48932 0.374666C4.11497 0.121186 4.78456 -0.00607003 5.45955 0.000222461H51.7446C51.968 0.000222461 52.1822 0.0890064 52.3405 0.247043C52.4984 0.405081 52.5873 0.619423 52.5873 0.842923C52.5873 1.06642 52.4984 1.28076 52.3405 1.4388C52.1822 1.59684 51.968 1.68562 51.7446 1.68562H5.45955C4.55146 1.68561 3.68029 2.04527 3.03667 2.68591C2.39305 3.32655 2.02936 4.19601 2.02515 5.10413V38.9076C2.02515 39.131 1.93637 39.3453 1.77833 39.5035C1.6203 39.6615 1.40595 39.7503 1.18245 39.7503Z" fill="#3E3126"/>
<path opacity="0.2" d="M23.6018 96.2574C24.8487 96.2574 25.8596 95.2465 25.8596 93.9994C25.8596 92.7526 24.8487 91.7418 23.6018 91.7418C22.3548 91.7418 21.344 92.7526 21.344 93.9994C21.344 95.2465 22.3548 96.2574 23.6018 96.2574Z" fill="#C9D2DF"/>
<path opacity="0.2" d="M26.7656 90.8832C27.2662 90.8832 27.6719 90.4775 27.6719 89.977C27.6719 89.4765 27.2662 89.0708 26.7656 89.0708C26.2651 89.0708 25.8593 89.4765 25.8593 89.977C25.8593 90.4775 26.2651 90.8832 26.7656 90.8832Z" fill="#C9D2DF"/>
<path opacity="0.2" d="M17.3212 94.9079C17.8217 94.9079 18.2274 94.5019 18.2274 94.0014C18.2274 93.5009 17.8217 93.0952 17.3212 93.0952C16.8206 93.0952 16.4149 93.5009 16.4149 94.0014C16.4149 94.5019 16.8206 94.9079 17.3212 94.9079Z" fill="#C9D2DF"/>
<path d="M43.9693 108.357C45.9858 108.357 47.9423 107.673 49.5195 106.417C51.0966 105.161 52.2006 103.406 52.6508 101.44H64.0985V106.353H68.2644V101.44H70.9833V106.353H75.1491V101.44H79.7921C80.0557 101.445 80.3173 101.395 80.5604 101.293C80.8039 101.192 81.0241 101.042 81.207 100.852C81.3943 100.67 81.5427 100.453 81.6437 100.212C81.7447 99.9721 81.7964 99.7138 81.7954 99.4528C81.7954 98.9214 81.5841 98.412 81.2087 98.0363C80.8329 97.6605 80.3232 97.4496 79.7921 97.4496H52.6508C52.2737 95.8174 51.4445 94.3252 50.2576 93.1432C49.0707 91.9616 47.5745 91.1386 45.941 90.7688C44.3076 90.3989 42.6028 90.4973 41.0227 91.0524C39.4425 91.6079 38.0513 92.5977 37.0082 93.9079C35.9651 95.2182 35.3129 96.7964 35.1264 98.4607C34.9398 100.125 35.2264 101.809 35.9533 103.318C36.6801 104.826 37.818 106.1 39.2359 106.991C40.6538 107.883 42.2945 108.356 43.9693 108.357ZM43.9693 95.4302C44.765 95.4302 45.5425 95.6661 46.2043 96.108C46.8657 96.5502 47.3813 97.1784 47.6857 97.9135C47.99 98.6486 48.07 99.4574 47.9147 100.238C47.7594 101.018 47.3764 101.735 46.8137 102.298C46.251 102.86 45.5343 103.243 44.7541 103.398C43.9736 103.553 43.1648 103.474 42.4297 103.169C41.6949 102.865 41.0664 102.349 40.6245 101.688C40.1826 101.026 39.9467 100.248 39.9467 99.4528C39.9424 98.9221 40.0434 98.3956 40.2435 97.9036C40.4439 97.412 40.7393 96.9649 41.1135 96.5878C41.4873 96.211 41.9322 95.9119 42.4225 95.7075C42.9124 95.5035 43.4382 95.3982 43.9693 95.3982V95.4302Z" fill="#FFB320"/>
<path d="M47.9766 100.089H81.6684V99.0873H47.9766V100.089Z" fill="#FFE56B"/>
<path d="M35.002 100.089H39.9628V99.0873H35.002V100.089Z" fill="#FFE56B"/>
<path d="M47.9766 99.5993H81.6684V98.5973H47.9766V99.5993Z" fill="#FFE56B"/>
<path d="M35.002 99.5993H39.9628V98.5973H35.002V99.5993Z" fill="#FFE56B"/>
<path d="M47.992 102.859H52.2055L51.7126 103.86H47.992V102.859Z" fill="#FFE56B"/>
<path d="M35.7332 102.859H39.9625V103.86H36.0194L35.7332 102.859Z" fill="#FFE56B"/>
<path d="M35.4475 96.9889C35.898 95.1241 36.9388 93.4552 38.4146 92.2298C39.8904 91.0044 41.7222 90.2884 43.638 90.1883C45.5534 90.0883 47.4501 90.6095 49.0457 91.6743C50.6409 92.7392 51.8498 94.291 52.4922 96.0985C50.2033 94.2821 47.3527 93.3206 44.431 93.3795C42.7657 93.3282 41.1076 93.6227 39.5613 94.2439C38.0154 94.8648 36.6147 95.7997 35.4475 96.9889Z" fill="#F27C00"/>
<path d="M74.5611 104.938C74.4601 104.938 74.363 104.898 74.2913 104.827C74.2199 104.755 74.1797 104.658 74.1797 104.557V100.9C74.1797 100.85 74.1896 100.8 74.2087 100.754C74.2278 100.708 74.2561 100.665 74.2913 100.63C74.3268 100.595 74.369 100.566 74.4154 100.547C74.4614 100.528 74.5111 100.518 74.5611 100.518H78.6634C78.7648 100.518 78.8619 100.558 78.9333 100.63C79.005 100.702 79.0451 100.799 79.0451 100.9C79.0451 101.001 79.005 101.098 78.9333 101.17C78.8619 101.241 78.7648 101.281 78.6634 101.281H75.0225V104.62C75.003 104.724 74.9438 104.815 74.8573 104.874C74.7711 104.934 74.6644 104.957 74.5611 104.938Z" fill="white"/>
<path d="M73.4325 106.21H71.572C71.471 106.21 71.3739 106.17 71.3022 106.099C71.2308 106.027 71.1906 105.93 71.1906 105.829V101.281H68.6625C68.5612 101.281 68.4641 101.241 68.3927 101.17C68.321 101.098 68.2808 101.001 68.2808 100.9C68.2808 100.799 68.321 100.702 68.3927 100.63C68.4641 100.558 68.5612 100.518 68.6625 100.518H71.5404C71.5904 100.518 71.6401 100.528 71.6865 100.547C71.7326 100.566 71.7747 100.595 71.8103 100.63C71.8455 100.665 71.8738 100.708 71.8928 100.754C71.9119 100.8 71.9218 100.85 71.9218 100.9V105.447H73.5118C73.5635 105.445 73.6148 105.453 73.6628 105.472C73.7109 105.49 73.755 105.518 73.7921 105.553C73.8293 105.589 73.8589 105.631 73.879 105.679C73.8991 105.726 73.9096 105.777 73.9093 105.829C73.9083 105.887 73.8945 105.944 73.8685 105.997C73.8428 106.049 73.806 106.095 73.7602 106.131C73.7148 106.168 73.6618 106.194 73.6052 106.207C73.5486 106.221 73.4894 106.222 73.4325 106.21Z" fill="white"/>
<path d="M66.6428 106.21H64.703C64.6017 106.21 64.5046 106.17 64.4332 106.099C64.3615 106.027 64.3213 105.93 64.3213 105.829V101.281H61.8251C61.7238 101.281 61.6267 101.241 61.5553 101.17C61.4836 101.098 61.4434 101.001 61.4434 100.9C61.4434 100.799 61.4836 100.702 61.5553 100.63C61.6267 100.558 61.7238 100.518 61.8251 100.518H64.703C64.804 100.518 64.9011 100.558 64.9728 100.63C65.0443 100.702 65.0844 100.799 65.0844 100.9V105.447H66.6744C66.7757 105.447 66.8728 105.487 66.9442 105.559C67.0159 105.63 67.0561 105.728 67.0561 105.829C67.0564 105.882 67.0456 105.934 67.0242 105.983C67.0031 106.031 66.9722 106.075 66.9333 106.111C66.8945 106.146 66.8485 106.174 66.7984 106.191C66.7484 106.208 66.6954 106.215 66.6428 106.21Z" fill="white"/>
<path d="M43.9693 108.966C42.688 108.966 41.4195 108.709 40.2398 108.209C39.0599 107.709 37.9931 106.976 37.1027 106.054C36.2122 105.133 35.5166 104.041 35.0573 102.845C34.5982 101.649 34.3843 100.372 34.4294 99.0918C34.5558 96.8549 35.4653 94.7339 36.9987 93.1008C38.5321 91.4673 40.5913 90.4256 42.8157 90.158C45.0398 89.8908 47.2872 90.4147 49.1641 91.6381C51.0407 92.8619 52.427 94.7069 53.0798 96.8497H79.7921C80.1504 96.8217 80.5108 96.8681 80.8507 96.9859C81.1903 97.104 81.5019 97.2909 81.7661 97.5351C82.03 97.7793 82.2406 98.0754 82.3847 98.4048C82.5288 98.7342 82.6032 99.0899 82.6032 99.4495C82.6032 99.8092 82.5288 100.165 82.3847 100.494C82.2406 100.824 82.03 101.12 81.7661 101.364C81.5019 101.608 81.1903 101.795 80.8507 101.913C80.5108 102.031 80.1504 102.077 79.7921 102.049H75.7533V105.722C75.7533 106.048 75.625 106.361 75.3959 106.593C75.1666 106.826 74.8553 106.958 74.5292 106.962H71.6194C71.2903 106.962 70.9751 106.832 70.7425 106.599C70.5098 106.366 70.3792 106.051 70.3792 105.722V102.049H68.8688V105.643C68.8688 105.992 68.7296 106.328 68.4822 106.576C68.2347 106.823 67.8991 106.962 67.549 106.962H64.8142C64.4641 106.962 64.1285 106.823 63.881 106.576C63.6336 106.328 63.4944 105.992 63.4944 105.643V102.049H58.4224C58.2809 102.026 58.1525 101.953 58.0597 101.844C57.967 101.735 57.916 101.596 57.916 101.453C57.916 101.31 57.967 101.171 58.0597 101.062C58.1525 100.952 58.2809 100.88 58.4224 100.857H64.0989C64.2562 100.861 64.4059 100.926 64.5158 101.039C64.6257 101.152 64.6872 101.303 64.6869 101.461V105.643C64.6905 105.675 64.705 105.705 64.728 105.729C64.7514 105.752 64.7817 105.766 64.8142 105.77H67.549C67.5816 105.766 67.6119 105.752 67.6352 105.729C67.6582 105.705 67.6727 105.675 67.6763 105.643V101.461C67.676 101.303 67.7375 101.152 67.8475 101.039C67.9574 100.926 68.1071 100.861 68.2644 100.857H70.9833C71.062 100.857 71.14 100.872 71.2124 100.903C71.2847 100.934 71.3502 100.978 71.4052 101.035C71.4601 101.091 71.5029 101.158 71.5315 101.231C71.5602 101.304 71.574 101.382 71.5717 101.461V105.722H74.5292V101.413C74.5292 101.256 74.5904 101.104 74.7003 100.991C74.8102 100.879 74.9599 100.813 75.1176 100.809H79.7921C79.9757 100.81 80.158 100.775 80.3275 100.704C80.4969 100.633 80.6503 100.528 80.778 100.396C80.9086 100.267 81.0126 100.114 81.0836 99.9441C81.1547 99.775 81.1912 99.5933 81.1912 99.4097C81.1932 99.2248 81.1587 99.0408 81.0892 98.8694C81.0198 98.6976 80.9171 98.5417 80.7872 98.41C80.6569 98.2784 80.5019 98.1738 80.3311 98.1027C80.1603 98.0313 79.977 97.9945 79.7921 97.9945H52.6508C52.5172 97.9941 52.3875 97.9484 52.2835 97.8645C52.1796 97.7806 52.1072 97.6641 52.0782 97.5334C51.632 95.6865 50.5665 94.0481 49.0595 92.8908C47.5521 91.7335 45.6939 91.1278 43.7943 91.1735C41.691 91.2419 39.69 92.0965 38.1856 93.5683C36.6815 95.0399 35.7838 97.0221 35.6696 99.1234C35.6114 100.556 35.9256 101.98 36.5814 103.256C37.2376 104.531 38.2129 105.615 39.4123 106.401C40.6117 107.187 41.9944 107.65 43.4257 107.742C44.8568 107.835 46.2875 107.555 47.5787 106.931C47.6495 106.896 47.7265 106.876 47.8051 106.871C47.8838 106.867 47.9624 106.879 48.0368 106.905C48.1108 106.932 48.1789 106.973 48.2368 107.027C48.2948 107.08 48.3411 107.145 48.3737 107.217C48.4405 107.358 48.4494 107.521 48.3991 107.669C48.3487 107.817 48.2428 107.94 48.1032 108.012C46.8143 108.636 45.4014 108.962 43.9693 108.966ZM51.3309 105.07C51.2128 105.071 51.097 105.038 50.9973 104.975C50.9318 104.932 50.8755 104.876 50.8318 104.81C50.7883 104.745 50.7584 104.672 50.7436 104.595C50.7288 104.518 50.7294 104.439 50.7455 104.362C50.762 104.285 50.7933 104.212 50.838 104.148C51.4237 103.29 51.8443 102.33 52.0782 101.318C52.1072 101.187 52.1796 101.07 52.2835 100.987C52.3875 100.903 52.5172 100.857 52.6508 100.857H56.1486C56.2351 100.842 56.3237 100.847 56.4082 100.871C56.4925 100.894 56.5708 100.936 56.6376 100.992C56.7044 101.049 56.758 101.12 56.7949 101.199C56.8314 101.279 56.8505 101.365 56.8505 101.453C56.8505 101.54 56.8314 101.627 56.7949 101.707C56.758 101.786 56.7044 101.857 56.6376 101.913C56.5708 101.97 56.4925 102.012 56.4082 102.035C56.3237 102.059 56.2351 102.063 56.1486 102.049H53.1276C52.8446 103.036 52.4046 103.97 51.8239 104.816C51.7699 104.896 51.6965 104.962 51.6103 105.007C51.5241 105.051 51.428 105.073 51.3309 105.07ZM43.9693 104.068C43.0572 104.068 42.1658 103.798 41.4077 103.291C40.6492 102.785 40.0582 102.065 39.7094 101.222C39.3603 100.379 39.2691 99.4522 39.4468 98.5578C39.6248 97.6634 40.0641 96.8418 40.7087 96.1968C41.3537 95.5522 42.1753 95.1129 43.0697 94.9349C43.9641 94.7572 44.8913 94.8484 45.7337 95.1975C46.5764 95.5463 47.2964 96.1373 47.8031 96.8957C48.3099 97.6539 48.5804 98.5453 48.5804 99.4574C48.5804 100.68 48.0944 101.853 47.2299 102.718C46.3652 103.582 45.1921 104.068 43.9693 104.068ZM43.9693 96.0389C43.2931 96.0389 42.6324 96.2393 42.07 96.6151C41.508 96.9905 41.0697 97.5246 40.8111 98.1491C40.5524 98.774 40.4847 99.461 40.6166 100.124C40.7486 100.787 41.074 101.397 41.5521 101.875C42.0302 102.353 42.6393 102.678 43.3024 102.81C43.9654 102.942 44.6528 102.874 45.2777 102.616C45.9022 102.357 46.4359 101.919 46.8117 101.357C47.1872 100.794 47.3879 100.134 47.3879 99.4574C47.3879 98.5509 47.0276 97.6812 46.3866 97.0402C45.7456 96.3992 44.8759 96.0389 43.9693 96.0389Z" fill="#3E3126"/>
<path d="M49.8206 106.946C50.1894 106.946 50.4882 106.647 50.4882 106.279C50.4882 105.91 50.1894 105.611 49.8206 105.611C49.4517 105.611 49.1526 105.91 49.1526 106.279C49.1526 106.647 49.4517 106.946 49.8206 106.946Z" fill="#3E3126"/>
<path d="M1.18291 43.5999C1.61319 43.5999 1.96201 43.2511 1.96201 42.8207C1.96201 42.3906 1.61319 42.0418 1.18291 42.0418C0.752625 42.0418 0.403809 42.3906 0.403809 42.8207C0.403809 43.2511 0.752625 43.5999 1.18291 43.5999Z" fill="#3E3126"/>
<path d="M55.4813 1.61985C55.9117 1.61985 56.2605 1.27103 56.2605 0.840745C56.2605 0.410461 55.9117 0.0616455 55.4813 0.0616455C55.0509 0.0616455 54.7021 0.410461 54.7021 0.840745C54.7021 1.27103 55.0509 1.61985 55.4813 1.61985Z" fill="#3E3126"/>
<path d="M69.7277 27.6018C69.6648 27.6173 69.5993 27.6173 69.5368 27.6018C69.4802 27.5791 69.4289 27.5454 69.3851 27.5026C69.3417 27.4599 69.3071 27.4089 69.2834 27.3527C69.2597 27.2966 69.2476 27.2362 69.2476 27.1753C69.2472 27.1143 69.2591 27.0539 69.2824 26.9976L71.8425 20.9715C71.8886 20.8576 71.9784 20.7668 72.0916 20.7191C72.2051 20.6714 72.3328 20.6707 72.4466 20.717C72.5605 20.7634 72.6513 20.8532 72.699 20.9665C72.7467 21.0798 72.7474 21.2074 72.701 21.3213L70.1571 27.3156C70.1261 27.4034 70.0676 27.4787 69.9899 27.5304C69.9126 27.582 69.8204 27.607 69.7277 27.6018Z" fill="#3E3126"/>
<path d="M73.0827 24.712C73.0251 24.7261 72.9652 24.7261 72.908 24.712C72.8514 24.6893 72.7997 24.6556 72.7563 24.6128C72.7128 24.5701 72.6783 24.5191 72.6546 24.463C72.6309 24.4068 72.6187 24.3465 72.6184 24.2855C72.6181 24.2245 72.6302 24.1641 72.6533 24.1078L74.005 20.9278C74.0277 20.8714 74.0616 20.8201 74.1044 20.7768C74.1472 20.7335 74.1982 20.6991 74.2544 20.6754C74.3104 20.6518 74.3706 20.6395 74.4315 20.6391C74.4923 20.6388 74.5526 20.6504 74.6092 20.6734C74.6654 20.6963 74.7168 20.7302 74.7602 20.773C74.8033 20.8158 74.8379 20.8667 74.8615 20.9228C74.8849 20.9789 74.8974 21.0391 74.8977 21.1C74.8981 21.1609 74.8866 21.2212 74.8635 21.2776L73.496 24.4576C73.4591 24.5354 73.4005 24.6009 73.3272 24.6461C73.2538 24.6912 73.1689 24.7141 73.0827 24.712Z" fill="#3E3126"/>
</g>
</svg>
