<svg width="163" height="103" viewBox="0 0 163 103" fill="none" xmlns="http://www.w3.org/2000/svg">
<g clip-path="url(#clip0_134_2130)">
<mask id="mask0_134_2130" style="mask-type:luminance" maskUnits="userSpaceOnUse" x="0" y="0" width="163" height="103">
<path d="M162.878 0H0V102.98H162.878V0Z" fill="white"/>
</mask>
<g mask="url(#mask0_134_2130)">
<path opacity="0.5" d="M154.284 65.8643C148.528 80.7367 137.705 93.7665 122.673 99.4928C120.718 100.236 118.721 100.867 116.694 101.382C105.969 104.111 94.236 103.162 84.3496 98.1886C80.1536 96.0768 76.3275 93.2863 72.1164 91.2048C67.9052 89.1233 63.0963 87.7622 58.5128 88.7897C54.5663 89.6743 51.2367 92.2095 47.8842 94.4679C39.9812 99.7923 30.4785 104.006 21.1203 102.177C16.8142 101.337 12.5739 99.0088 10.5741 95.1175C6.15393 86.5148 14.4901 76.2869 12.8018 66.7729C11.7215 60.6839 6.78719 56.1241 3.7197 50.7504C-1.52873 41.5588 -0.906875 29.3492 5.24711 20.7351C11.4011 12.121 22.7642 7.55486 33.1825 9.50871C45.8869 11.891 55.4921 22.622 67.8457 26.4134C75.5714 28.7855 83.9595 28.0778 91.3382 24.9537C103.26 19.9048 119.638 12.1614 133.055 13.4227C140.189 14.0938 147.186 17.2533 151.895 22.6485C157.848 29.4591 159.632 39.1285 158.639 48.1091C157.958 54.1896 156.494 60.1572 154.284 65.8643Z" fill="#16E1F5"/>
<path d="M158.114 77.6278C157.849 77.6275 157.586 77.5957 157.329 77.533C156.515 77.3337 155.81 76.8322 155.355 76.1311C154.901 75.4299 154.731 74.5819 154.882 73.7603C155.031 72.9387 155.491 72.2053 156.165 71.71C156.838 71.2146 157.677 70.9947 158.508 71.0949C159.338 71.1953 160.1 71.6083 160.635 72.2497C161.172 72.8911 161.442 73.7125 161.393 74.5463C161.342 75.38 160.975 76.1632 160.366 76.7359C159.756 77.3086 158.951 77.6277 158.114 77.6278ZM158.105 72.5498C157.669 72.5512 157.249 72.7118 156.923 73.0013C156.598 73.2908 156.39 73.6891 156.338 74.1211C156.287 74.5532 156.396 74.989 156.645 75.3464C156.893 75.7036 157.265 75.9578 157.688 76.0607C157.916 76.1158 158.152 76.1256 158.384 76.0896C158.615 76.0536 158.837 75.9725 159.037 75.8509C159.237 75.7292 159.411 75.5694 159.549 75.3807C159.687 75.1919 159.787 74.978 159.841 74.7507C159.897 74.5236 159.907 74.2879 159.87 74.057C159.835 73.826 159.754 73.6045 159.631 73.4049C159.509 73.2054 159.35 73.0317 159.16 72.894C158.971 72.7561 158.757 72.6567 158.529 72.6016C158.39 72.5671 158.248 72.5493 158.105 72.5486V72.5498Z" fill="#E7F6FF"/>
<path d="M155.116 81.1042C155.302 80.3357 154.83 79.5616 154.06 79.3752C153.288 79.1889 152.513 79.6608 152.326 80.4294C152.14 81.1979 152.612 81.972 153.383 82.1584C154.153 82.3447 154.929 81.8728 155.116 81.1042Z" fill="#E7F6FF"/>
<path d="M6.98982 77.3155C6.11992 77.2964 5.29262 76.9358 4.68753 76.3119C4.08243 75.6881 3.74838 74.8511 3.75789 73.983C3.76739 73.1147 4.11969 72.2853 4.73831 71.6747C5.35691 71.0642 6.19191 70.7217 7.06201 70.7217C7.93213 70.7217 8.76712 71.0642 9.38573 71.6747C10.0043 72.2853 10.3566 73.1147 10.3662 73.983C10.3756 74.8511 10.0416 75.6881 9.43651 76.3119C8.83141 76.9358 8.00411 77.2964 7.1342 77.3155H6.98982ZM6.98982 72.2387H6.9151C6.44527 72.2489 5.99842 72.4435 5.67156 72.7804C5.34471 73.1174 5.16423 73.5693 5.16933 74.0383C5.1744 74.5072 5.36465 74.9552 5.69874 75.2849C6.03282 75.6148 6.48379 75.7997 6.95373 75.7997C7.42367 75.7997 7.87463 75.6148 8.20873 75.2849C8.54282 74.9552 8.73305 74.5072 8.73814 74.0383C8.74323 73.5693 8.56275 73.1174 8.23589 72.7804C7.90903 72.4435 7.46218 72.2489 6.99236 72.2387H6.98982Z" fill="#E7F6FF"/>
<path d="M4.63402 82.8491C5.4258 82.8149 6.03997 82.1469 6.00581 81.3568C5.97165 80.5668 5.30211 79.9538 4.51034 79.9879C3.71858 80.0221 3.10441 80.6901 3.13857 81.4802C3.17271 82.2702 3.84225 82.8832 4.63402 82.8491Z" fill="#E7F6FF"/>
<path d="M89.8057 24.0122C89.017 24.0147 88.2534 23.7354 87.653 23.2248C87.0528 22.7141 86.6557 22.006 86.5333 21.2284C86.411 20.4509 86.5716 19.6553 86.9862 18.9858C87.4008 18.3162 88.0419 17.8167 88.7935 17.578C89.5451 17.3393 90.3576 17.3768 91.0838 17.6841C91.81 17.9912 92.402 18.5476 92.7527 19.2527C93.1034 19.9576 93.1895 20.7647 92.9956 21.5275C92.8017 22.2905 92.3404 22.9589 91.6954 23.4119C91.142 23.8005 90.4824 24.01 89.8057 24.0122ZM89.7956 18.9317C89.3346 18.9313 88.8912 19.1084 88.5578 19.4261C88.2244 19.7438 88.0268 20.1778 88.006 20.6373C87.9854 21.0968 88.1432 21.5467 88.4466 21.893C88.7502 22.2393 89.1759 22.4554 89.6351 22.4962C90.0942 22.5369 90.5516 22.3994 90.9117 22.112C91.2716 21.8248 91.5067 21.4099 91.5677 20.9539C91.6287 20.4979 91.5111 20.036 91.2392 19.6644C90.9674 19.2929 90.5622 19.0404 90.1084 18.9595C90.0052 18.9412 89.9005 18.9318 89.7956 18.9317Z" fill="#E7F6FF"/>
<path d="M83.0693 23.8273C83.7183 23.3732 83.8753 22.4803 83.4204 21.8329C82.9654 21.1853 82.0704 21.0286 81.4216 21.4825C80.7728 21.9366 80.6156 22.8295 81.0707 23.4771C81.5256 24.1245 82.4205 24.2814 83.0693 23.8273Z" fill="#E7F6FF"/>
<path d="M162.873 40.9924C162.873 39.6027 162.32 38.2699 161.336 37.2873C160.35 36.3047 159.016 35.7526 157.622 35.7526C157.506 35.7526 157.391 35.7526 157.277 35.764C157.284 35.6503 157.288 35.5353 157.288 35.419C157.288 34.6742 157.128 33.9381 156.821 33.2597C156.513 32.5811 156.065 31.9759 155.504 31.4843C154.942 30.9926 154.284 30.6259 153.57 30.4085C152.857 30.1911 152.104 30.1279 151.365 30.2235C150.624 30.3189 149.913 30.5707 149.277 30.9621C148.643 31.3533 148.098 31.8753 147.682 32.4929C147.265 33.1107 146.985 33.8099 146.86 34.5442C146.735 35.2783 146.768 36.0307 146.958 36.751C146.324 36.2915 145.593 35.9799 144.822 35.8388C144.05 35.6978 143.258 35.7309 142.5 35.9358C141.744 36.1406 141.042 36.5121 140.448 37.0229C139.854 37.5336 139.382 38.1707 139.067 38.8872C138.753 39.6038 138.602 40.3817 138.627 41.1639C138.653 41.946 138.854 42.7124 139.215 43.407C139.577 44.1014 140.089 44.7064 140.716 45.1773C141.341 45.6483 142.066 45.9733 142.835 46.1285C143.149 46.9584 143.668 47.6955 144.346 48.2704C145.022 48.8451 145.835 49.2391 146.706 49.4152C147.576 49.5913 148.479 49.5436 149.327 49.277C150.174 49.0102 150.94 48.5331 151.553 47.8902C152.18 48.3622 152.905 48.688 153.675 48.8436C154.445 48.9991 155.239 48.9804 156 48.7888C156.762 48.5972 157.47 48.2376 158.075 47.7365C158.679 47.2354 159.161 46.6055 159.489 45.8934C160.485 45.5153 161.342 44.8441 161.946 43.9686C162.55 43.0933 162.873 42.0553 162.873 40.9924Z" fill="white"/>
<path d="M24.2473 28.3922C24.2473 27.0028 23.6942 25.6703 22.7098 24.6876C21.7253 23.705 20.39 23.1529 18.9976 23.1525C18.8811 23.1525 18.7659 23.1525 18.6519 23.1639C18.6595 23.0501 18.6633 22.9351 18.6633 22.8189C18.6632 22.0742 18.504 21.3381 18.1962 20.6597C17.8886 19.9811 17.4394 19.3759 16.8789 18.8843C16.3183 18.3926 15.6591 18.0259 14.9453 17.8085C14.2315 17.591 13.4794 17.5279 12.7393 17.6234C11.9992 17.7189 11.2879 17.9707 10.653 18.3619C10.018 18.7533 9.47396 19.2753 9.05706 19.8929C8.64015 20.5107 8.35999 21.2099 8.23524 21.9441C8.11049 22.6783 8.14403 23.4307 8.33361 24.1509C7.69899 23.6918 6.96937 23.3801 6.19829 23.239C5.42721 23.0978 4.63425 23.1308 3.87758 23.3354C3.12093 23.5399 2.41978 23.9109 1.8256 24.4212C1.23141 24.9316 0.759266 25.5681 0.443814 26.2842C0.128362 27.0004 -0.0223935 27.7779 0.00261089 28.5598C0.0276153 29.3417 0.227746 30.108 0.588314 30.8027C0.948882 31.4973 1.46074 32.1025 2.08632 32.5739C2.7119 33.0454 3.43533 33.3711 4.20352 33.5271C4.5176 34.3564 5.03738 35.0925 5.7142 35.6667C6.39103 36.2408 7.20278 36.6343 8.07349 36.8102C8.94419 36.9861 9.84537 36.9387 10.6927 36.6724C11.5401 36.4061 12.3058 35.9297 12.9184 35.2875C13.5452 35.7597 14.2701 36.0855 15.0398 36.241C15.8094 36.3965 16.6043 36.3778 17.3657 36.1862C18.1272 35.9946 18.8359 35.635 19.4397 35.1339C20.0434 34.6329 20.5268 34.003 20.8543 33.2907C21.8512 32.9143 22.7097 32.2441 23.3157 31.3691C23.9218 30.4942 24.2467 29.4559 24.2473 28.3922Z" fill="white"/>
<path d="M120.848 102.953H45.3005V101.31H120.848C121.066 101.31 121.276 101.397 121.43 101.551C121.584 101.705 121.671 101.914 121.671 102.132C121.671 102.35 121.584 102.558 121.43 102.712C121.276 102.867 121.066 102.953 120.848 102.953Z" fill="#426572"/>
<path d="M41.9215 102.953H37.3025C37.0842 102.953 36.8748 102.867 36.7205 102.712C36.5661 102.558 36.4793 102.35 36.4793 102.132C36.4793 101.914 36.5661 101.705 36.7205 101.551C36.8748 101.397 37.0842 101.31 37.3025 101.31H41.9215C42.1399 101.31 42.3492 101.397 42.5036 101.551C42.658 101.705 42.7447 101.914 42.7447 102.132C42.7447 102.35 42.658 102.558 42.5036 102.712C42.3492 102.867 42.1399 102.953 41.9215 102.953Z" fill="#426572"/>
<path d="M34.3047 102.953H32.833C32.6146 102.953 32.4053 102.867 32.2509 102.712C32.0965 102.558 32.0098 102.35 32.0098 102.132C32.0098 101.914 32.0965 101.705 32.2509 101.551C32.4053 101.397 32.6146 101.31 32.833 101.31H34.3047C34.523 101.31 34.7324 101.397 34.8868 101.551C35.0412 101.705 35.1279 101.914 35.1279 102.132C35.1279 102.35 35.0412 102.558 34.8868 102.712C34.7324 102.867 34.523 102.953 34.3047 102.953Z" fill="#426572"/>
<path d="M147.338 102.953H124.118V101.31H147.338C147.556 101.31 147.766 101.397 147.921 101.551C148.075 101.705 148.162 101.914 148.162 102.132C148.162 102.35 148.075 102.558 147.921 102.712C147.766 102.867 147.556 102.953 147.338 102.953Z" fill="#426572"/>
<path d="M28.6231 102.953H5.40161V101.31H28.6231C28.8415 101.31 29.0508 101.397 29.2052 101.551C29.3596 101.705 29.4463 101.914 29.4463 102.132C29.4463 102.35 29.3596 102.558 29.2052 102.712C29.0508 102.867 28.8415 102.953 28.6231 102.953Z" fill="#426572"/>
<path d="M125.62 15.6118V102.348H32.7393V15.6118C32.7436 14.0148 33.3811 12.4845 34.5126 11.3552C35.6441 10.2259 37.1776 9.58936 38.778 9.58469H119.581C121.182 9.58936 122.715 10.2259 123.847 11.3552C124.978 12.4845 125.616 14.0148 125.62 15.6118Z" fill="white"/>
<path d="M119.571 23.8869H37.775V102.348H119.571V23.8869Z" fill="white"/>
<path opacity="0.4" d="M125.114 13.8928V15.1149C124.368 13.4441 122.051 12.2182 119.328 12.2182H38.5247C35.2026 12.2182 32.486 14.0432 32.486 16.275V72.2691H32.2327V13.8928C32.2327 11.6622 34.9493 9.83597 38.2714 9.83597H119.075C122.397 9.83723 125.114 11.6622 125.114 13.8928Z" fill="#C1CEDE"/>
<path d="M125.873 102.98H31.4728V15.4854C31.4748 13.6866 32.1917 11.9621 33.4661 10.6901C34.7408 9.41803 36.4688 8.70236 38.2714 8.70001H119.075C120.877 8.70236 122.605 9.41803 123.88 10.6901C125.155 11.9621 125.871 13.6866 125.873 15.4854V45.7295H124.354V15.4854C124.352 14.0886 123.796 12.7495 122.806 11.7617C121.816 10.7739 120.475 10.2183 119.075 10.2166H38.2714C36.8717 10.2183 35.5298 10.7739 34.5401 11.7617C33.5505 12.7495 32.994 14.0886 32.9926 15.4854V101.463H124.354V63.4227H125.873V102.98Z" fill="#426572"/>
<path d="M38.9895 30.9287H119.237V25.598L119.109 23.5986H47.3574H38.1042L37.9763 25.598V30.9287H38.9895Z" fill="#E2F2FF"/>
<path d="M114.676 26.537H41.6631C41.2085 26.537 40.8399 26.9048 40.8399 27.3585V27.7376C40.8399 28.1912 41.2085 28.5591 41.6631 28.5591H114.676C115.131 28.5591 115.499 28.1912 115.499 27.7376V27.3585C115.499 26.9048 115.131 26.537 114.676 26.537Z" fill="#CADCE8"/>
<path d="M120.331 102.853H37.015V22.8748H120.331V102.853ZM38.5348 101.337H118.811V24.3914H38.5348V101.337Z" fill="#426572"/>
<path d="M108.368 77.7669H89.826V96.5976H108.368V77.7669Z" fill="#DDE4ED"/>
<path d="M88.2644 77.7669H51.181V96.5976H88.2644V77.7669Z" fill="#DDE4ED"/>
<path d="M108.346 39.0313H92.0526V46.1086H108.346V39.0313Z" fill="#E8837E"/>
<path d="M108.346 47.3926H92.0526V54.4699H108.346V47.3926Z" fill="#87D6FE"/>
<path d="M108.346 64.1178H92.0526V71.1951H108.346V64.1178Z" fill="#FBC907"/>
<path d="M108.346 55.755H92.0526V62.8323H108.346V55.755Z" fill="#A8EF9E"/>
<path opacity="0.2" d="M46.4911 23.4255C47.3828 21.7671 47.9319 19.9471 48.106 18.073C48.28 16.1991 48.0755 14.3093 47.5045 12.5156C46.9335 10.7219 46.0075 9.06079 44.7815 7.63061C43.5556 6.20043 42.0545 5.03027 40.3671 4.18941C38.6799 3.34855 36.8405 2.85411 34.9582 2.73534C33.0759 2.61658 31.189 2.87592 29.4089 3.498C27.6288 4.12008 25.992 5.09226 24.5953 6.35696C23.1985 7.62166 22.0702 9.15318 21.2774 10.8608C20.1777 12.9214 19.6091 15.2228 19.6229 17.5573C19.6367 19.8918 20.2325 22.1862 21.3565 24.2338C22.4806 26.2813 24.0975 28.0175 26.0616 29.286C28.0257 30.5545 30.2753 31.3153 32.6076 31.4999C32.2006 31.596 31.7873 31.674 31.3677 31.7337C33.5754 32.0515 35.8273 31.8418 37.9381 31.1221C40.0488 30.4023 41.9584 29.193 43.5097 27.5935C44.7501 26.3975 45.7605 24.9848 46.4911 23.4255Z" fill="#606060"/>
<path opacity="0.2" d="M128.873 4.91835C127.051 4.44461 125.154 4.33946 123.292 4.6091C121.429 4.87872 119.64 5.51768 118.029 6.4883C116.418 7.45891 115.018 8.74153 113.912 10.2605C112.806 11.7796 112.015 13.5043 111.587 15.3329C111.16 17.1615 111.103 19.057 111.421 20.9079C111.739 22.7587 112.425 24.5272 113.439 26.1092C114.453 27.6912 115.774 29.0547 117.324 30.1192C118.874 31.1837 120.622 31.9277 122.465 32.3075C124.729 32.8978 127.105 32.9167 129.377 32.3626C131.65 31.8084 133.749 30.6986 135.485 29.1331C137.22 27.5676 138.539 25.5957 139.32 23.3952C140.101 21.1946 140.323 18.8345 139.962 16.5277C140.15 16.9001 140.322 17.283 140.478 17.6765C140.276 15.4597 139.549 13.3225 138.359 11.4403C137.168 9.55811 135.547 7.98473 133.628 6.84944C132.174 5.92135 130.562 5.26684 128.873 4.91835Z" fill="#606060"/>
<path opacity="0.2" d="M47.3447 79.7242C48.1677 78.1868 48.6734 76.5005 48.8322 74.7647C48.9911 73.0289 48.7996 71.2792 48.2691 69.6185C47.7387 67.9579 46.88 66.4202 45.7441 65.0963C44.608 63.7723 43.2175 62.6891 41.6549 61.9105C40.0922 61.1318 38.389 60.6737 36.6459 60.563C34.9026 60.4524 33.155 60.6914 31.506 61.2662C29.857 61.841 28.3402 62.7397 27.0452 63.9092C25.7502 65.0787 24.7033 66.4954 23.9662 68.0757C22.9464 69.986 22.419 72.1197 22.4318 74.2843C22.4445 76.4488 22.9968 78.5761 24.0389 80.4745C25.081 82.3728 26.5803 83.9827 28.4014 85.1586C30.2225 86.3346 32.3082 87.0399 34.4706 87.2109C34.0932 87.2994 33.7103 87.3718 33.3219 87.4283C35.3692 87.723 37.4574 87.5288 39.4148 86.8614C41.3722 86.1938 43.1429 85.0722 44.5812 83.5889C45.7311 82.4798 46.6676 81.1698 47.3447 79.7242Z" fill="#606060"/>
<path d="M32.1503 28.2206C39.9355 28.2206 46.2466 21.9231 46.2466 14.1545C46.2466 6.386 39.9355 0.0883789 32.1503 0.0883789C24.3652 0.0883789 18.0541 6.386 18.0541 14.1545C18.0541 21.9231 24.3652 28.2206 32.1503 28.2206Z" fill="#A8EF9E"/>
<path d="M45.5754 15.1591C45.575 17.176 45.1401 19.1691 44.3 21.0036C43.4599 22.838 42.2343 24.4707 40.7064 25.791C39.1785 27.1113 37.3839 28.0882 35.4444 28.6558C33.5049 29.2232 31.4658 29.3679 29.4653 29.0799C32.8196 28.5961 35.8869 26.9226 38.1053 24.3658C40.3238 21.8091 41.5448 18.5404 41.5448 15.1585C41.5448 11.7766 40.3238 8.50794 38.1053 5.95123C35.8869 3.39451 32.8196 1.72095 29.4653 1.2371C31.4659 0.949165 33.5051 1.09388 35.4448 1.66143C37.3843 2.229 39.179 3.20611 40.7069 4.52653C42.2348 5.84695 43.4603 7.47978 44.3004 9.31432C45.1403 11.1489 45.5751 13.1422 45.5754 15.1591Z" fill="#A7E59C"/>
<path d="M31.8147 29.6473C28.8764 29.6473 26.0041 28.778 23.561 27.1489C21.1178 25.52 19.2137 23.2046 18.0893 20.4958C16.9649 17.7868 16.6708 14.8061 17.2441 11.9304C17.8174 9.0547 19.2324 6.41325 21.3103 4.34007C23.3881 2.26689 26.0352 0.855096 28.9172 0.283235C31.7991 -0.288626 34.7862 0.00512755 37.5008 1.12735C40.2154 2.24956 42.5355 4.14984 44.1678 6.58787C45.8 9.0259 46.6711 11.8922 46.6709 14.8242C46.6662 18.7544 45.0994 22.5221 42.3143 25.301C39.5293 28.08 35.7533 29.643 31.8147 29.6473ZM31.8147 1.51637C29.1771 1.51637 26.5986 2.29687 24.4054 3.75915C22.2123 5.22143 20.5029 7.29983 19.4935 9.73153C18.4842 12.1632 18.22 14.839 18.7346 17.4204C19.2492 20.002 20.5193 22.3731 22.3845 24.2343C24.2496 26.0954 26.6259 27.3629 29.2129 27.8764C31.7999 28.3898 34.4814 28.1263 36.9184 27.1191C39.3553 26.1118 41.438 24.4061 42.9035 22.2177C44.3689 20.0292 45.1511 17.4563 45.1511 14.8242C45.1474 11.2959 43.7411 7.91312 41.2409 5.41822C38.7406 2.92331 35.3506 1.52006 31.8147 1.51637Z" fill="#426572"/>
<path d="M127.326 2.22403C123.687 2.23039 120.199 3.67819 117.63 6.24927C115.06 8.82035 113.618 12.3044 113.621 15.9356C113.624 19.5669 115.072 23.0484 117.647 25.6149C120.221 28.1816 123.711 29.6232 127.35 29.6232C130.989 29.6232 134.479 28.1816 137.054 25.6149C139.628 23.0484 141.075 19.5669 141.079 15.9356C141.083 12.3044 139.64 8.82035 137.071 6.24927C134.501 3.67819 131.013 2.23039 127.374 2.22403H127.326Z" fill="#87D6FE"/>
<path d="M141.197 16.0832C141.193 19.3217 140.041 22.4544 137.945 24.9266C135.847 27.3989 132.942 29.0512 129.743 29.5912C126.542 30.1311 123.254 29.5239 120.459 27.877C117.665 26.23 115.545 23.6496 114.474 20.5924C114.545 20.5555 114.619 20.5238 114.695 20.4976C116.097 20.0098 117.355 21.4101 118.401 22.4591C120.609 24.672 123.881 25.8499 126.964 25.3216C130.047 24.7933 132.811 22.478 133.652 19.4714C134.412 16.7656 133.702 13.6339 135.218 11.2668C135.659 10.5986 136.251 10.043 136.947 9.64457C137.642 9.24618 138.421 9.01617 139.221 8.97302C140.523 11.1166 141.206 13.5769 141.197 16.0832Z" fill="#37B5FF"/>
<path d="M127.706 30.5714C123.859 30.5714 120.17 29.0464 117.449 26.332C114.729 23.6175 113.201 19.9359 113.201 16.0971C113.201 12.2582 114.729 8.57661 117.449 5.86215C120.17 3.14769 123.859 1.62271 127.706 1.62271H127.754C131.602 1.62908 135.289 3.16017 138.004 5.87914C140.72 8.5981 142.242 12.2822 142.236 16.1211C142.229 19.9599 140.694 23.639 137.97 26.3489C135.246 29.0589 131.554 30.5777 127.706 30.5714ZM127.706 3.13928C124.273 3.14548 120.983 4.51154 118.558 6.93728C116.134 9.36303 114.774 12.6501 114.777 16.0758C114.78 19.5018 116.146 22.7863 118.575 25.2076C121.004 27.629 124.296 28.9891 127.73 28.9891C131.162 28.9891 134.455 27.629 136.885 25.2076C139.312 22.7863 140.679 19.5018 140.682 16.0758C140.685 12.6501 139.325 9.36303 136.901 6.93728C134.477 4.51154 131.186 3.14548 127.753 3.13928H127.706Z" fill="#426572"/>
<path d="M129.473 26.2235C125.005 26.2235 124.105 22.7948 123.889 21.9367V15.0793H121.312V11.6506C122.499 11.0648 123.54 10.221 124.358 9.18103C125.175 8.1411 125.749 6.93151 126.037 5.6412H128.614V11.6506H132.477V15.0793H128.614V21.0887C128.741 22.0302 129.256 22.719 130.333 22.8037C131.449 22.719 132.052 22.2034 132.096 22.0024L132.052 21.9582C132.062 21.9571 132.073 21.9602 132.081 21.9668C132.09 21.9735 132.095 21.9831 132.096 21.9936C132.096 21.9965 132.096 21.9994 132.096 22.0024L133.341 24.5301C133.341 24.5301 132.224 26.2235 129.473 26.2235Z" fill="white"/>
<path d="M30.9447 59.6007C27.3056 59.6071 23.818 61.0549 21.2481 63.626C18.6783 66.197 17.2366 69.681 17.2398 73.3122C17.2429 76.9437 18.6908 80.4251 21.2651 82.9916C23.8395 85.5583 27.3297 86.9999 30.9687 86.9999C34.6078 86.9999 38.098 85.5583 40.6724 82.9916C43.2467 80.4251 44.6945 76.9437 44.6977 73.3122C44.7009 69.681 43.2592 66.197 40.6893 63.626C38.1196 61.0549 34.6319 59.6071 30.9928 59.6007H30.9447Z" fill="#E8837E"/>
<path d="M44.8155 73.4599C44.8114 76.6984 43.6592 79.8311 41.5627 82.3033C39.4663 84.7756 36.5609 86.4279 33.3608 86.9679C30.1608 87.5078 26.8724 86.9005 24.078 85.2537C21.2835 83.6067 19.1631 81.0263 18.0921 77.9691C18.1635 77.9322 18.2376 77.9005 18.3137 77.8743C19.7158 77.3865 20.9734 78.7868 22.0196 79.8358C24.2271 82.0487 27.4997 83.2265 30.5824 82.6983C33.6651 82.17 36.4299 79.8547 37.2709 76.8481C38.0308 74.1423 37.3203 71.0106 38.8363 68.6435C39.2773 67.9753 39.8691 67.4196 40.5644 67.0213C41.2598 66.6228 42.0392 66.3928 42.8397 66.3497C44.1412 68.4934 44.8247 70.9536 44.8155 73.4599Z" fill="#D66765"/>
<path d="M31.3246 87.9481C27.4775 87.9481 23.7881 86.4231 21.0677 83.7087C18.3475 80.9942 16.8192 77.3126 16.8192 73.4738C16.8192 69.635 18.3475 65.9532 21.0677 63.2389C23.7881 60.5243 27.4775 58.9994 31.3246 58.9994H31.3727C35.2197 59.0057 38.9067 60.5368 41.6224 63.2558C44.3382 65.9747 45.8603 69.659 45.854 73.4978C45.8477 77.3366 44.3133 81.0156 41.5885 83.7256C38.8636 86.4356 35.1716 87.9544 31.3246 87.9481ZM31.3246 60.516C27.8913 60.5222 24.601 61.8882 22.1767 64.314C19.7523 66.7397 18.3923 70.0267 18.3954 73.4525C18.3986 76.8785 19.7645 80.1629 22.1933 82.5843C24.6221 85.0057 27.9147 86.3658 31.348 86.3658C34.7813 86.3658 38.0739 85.0057 40.5027 82.5843C42.9315 80.1629 44.2974 76.8785 44.3006 73.4525C44.3038 70.0267 42.9437 66.7397 40.5193 64.314C38.095 61.8882 34.8047 60.5222 31.3714 60.516H31.3246Z" fill="#426572"/>
<path d="M29.3387 81.3382V72.163L26.8057 74.6665L24.2499 72.0126L29.9682 66.4228H33.8526V81.3382H29.3387Z" fill="white"/>
<path d="M88.7748 74.2912H51.8737L59.4728 63.8193L64.5388 68.7128L71.7769 56.3262L88.7748 74.2912Z" fill="#DDE4ED"/>
<path d="M65.9282 54.9363C66.6266 54.9363 67.3093 54.7296 67.8899 54.3424C68.4706 53.9553 68.9232 53.4049 69.1905 52.7611C69.4578 52.1174 69.5277 51.4089 69.3914 50.7254C69.2551 50.0418 68.9189 49.4141 68.425 48.9213C67.9312 48.4285 67.302 48.0929 66.6171 47.9569C65.9322 47.8211 65.2222 47.8908 64.577 48.1575C63.9317 48.4242 63.3803 48.8758 62.9923 49.4552C62.6043 50.0346 62.3972 50.7159 62.3972 51.4128C62.4013 52.346 62.7745 53.2399 63.4359 53.8998C64.0971 54.5598 64.9929 54.9322 65.9282 54.9363Z" fill="#DDE4ED"/>
<path d="M125.823 57.7558H124.303V60.5994H125.823V57.7558Z" fill="#426572"/>
<path d="M125.823 48.2571H124.303V55.9233H125.823V48.2571Z" fill="#426572"/>
<path d="M37.091 21.0142C32.9546 21.5993 27.8556 20.0853 27.8556 20.0853L25.3416 20.5845C25.2314 20.6057 25.1178 20.6018 25.0094 20.5731C24.9009 20.5444 24.8003 20.4916 24.7151 20.4188C24.6298 20.3459 24.5622 20.2547 24.5172 20.1521C24.4722 20.0495 24.451 19.9382 24.4551 19.8262C24.506 18.0321 24.4599 16.2366 24.317 14.4474C24.3043 14.3181 24.3259 14.1879 24.3796 14.0694C24.4331 13.9511 24.517 13.8489 24.6226 13.7731C24.7284 13.6971 24.8521 13.6502 24.9815 13.6371C25.1111 13.6239 25.2418 13.6449 25.3606 13.698C25.9271 13.9769 26.5478 14.1288 27.1793 14.1429C28.7055 14.1302 30.0378 12.9625 30.7192 11.5761C31.4006 10.1897 31.5551 9.29114 31.6982 7.7493C31.7603 7.07569 31.8591 6.32879 32.372 5.89657C33.2586 5.14713 34.7176 6.02295 35.0051 7.15405C35.2926 8.28516 34.8291 8.78436 34.4377 9.88766C34.1844 10.6055 34.2401 10.6459 34.035 11.3853C34.0089 11.4453 33.9959 11.5102 33.9973 11.5757C33.9986 11.6411 34.0141 11.7055 34.0425 11.7644C34.0793 11.8055 34.1241 11.8386 34.1743 11.8617C34.2243 11.8847 34.2786 11.8972 34.3338 11.8984C35.1621 12.0045 35.7055 12.3129 36.535 12.4039C36.9161 12.445 37.2784 12.5911 37.5809 12.826C37.8836 13.0608 38.1148 13.375 38.2486 13.7334V19.9374C38.2499 20.0854 38.2204 20.2321 38.162 20.3681C38.1035 20.5042 38.0174 20.6267 37.9091 20.7278C37.8007 20.8288 37.6725 20.9064 37.5325 20.9555C37.3926 21.0046 37.244 21.0241 37.0961 21.0129L37.091 21.0142Z" fill="#85D175"/>
</g>
</g>
<defs>
<clipPath id="clip0_134_2130">
<rect width="163" height="103" fill="white"/>
</clipPath>
</defs>
</svg>
