<svg width="173" height="101" viewBox="0 0 173 101" fill="none" xmlns="http://www.w3.org/2000/svg">
<g clip-path="url(#clip0_134_1302)">
<mask id="mask0_134_1302" style="mask-type:luminance" maskUnits="userSpaceOnUse" x="0" y="0" width="173" height="101">
<path d="M172.871 0H0V100.877H172.871V0Z" fill="white"/>
</mask>
<g mask="url(#mask0_134_1302)">
<path opacity="0.5" d="M163.749 60.7701C157.64 76.6813 146.153 90.6212 130.199 96.7475C128.124 97.543 126.005 98.218 123.853 98.7688C112.47 101.688 100.017 100.673 89.5244 95.3535C85.0711 93.0942 81.0102 90.1088 76.5407 87.8819C72.0712 85.6551 66.9672 84.1975 62.1025 85.2968C57.914 86.2432 54.38 88.9555 50.8219 91.3716C42.434 97.0679 32.3484 101.576 22.416 99.6193C17.8457 98.7202 13.3453 96.2296 11.2228 92.0666C6.53149 82.863 15.3791 71.9207 13.5873 61.7423C12.4406 55.228 7.2036 50.3497 3.94792 44.6007C-1.62384 34.767 -0.965169 21.7046 5.56769 12.4903C12.1006 3.27589 24.1608 -1.61186 35.2183 0.478444C48.7021 3.02846 58.8966 14.5062 72.008 18.5678C80.2077 21.1057 89.1104 20.3485 96.9418 17.0062C109.595 11.6047 126.978 3.32051 141.217 4.66988C148.789 5.38783 156.216 8.76802 161.214 14.54C167.532 21.8263 169.426 32.171 168.372 41.7789C167.649 48.2828 166.095 54.6658 163.749 60.7701Z" fill="#16E1F5"/>
<path d="M167.814 73.3555C167.533 73.3551 167.253 73.3212 166.981 73.2541C166.118 73.0407 165.369 72.5044 164.886 71.7542C164.404 71.0041 164.224 70.0969 164.384 69.2179C164.542 68.3389 165.03 67.5543 165.745 67.0243C166.46 66.4944 167.35 66.259 168.232 66.3663C169.114 66.4737 169.922 66.9156 170.49 67.6017C171.06 68.2879 171.347 69.1668 171.294 70.0587C171.24 70.9507 170.851 71.7886 170.204 72.4012C169.557 73.014 168.703 73.3552 167.814 73.3555ZM167.814 67.9229C167.352 67.9246 166.907 68.0963 166.561 68.4055C166.216 68.7148 165.995 69.1403 165.94 69.6019C165.886 70.0633 166.001 70.5291 166.264 70.9115C166.526 71.2939 166.919 71.5663 167.368 71.6776C167.627 71.7404 167.897 71.7472 168.161 71.6974C168.423 71.6478 168.672 71.5428 168.891 71.3892C169.11 71.2357 169.295 71.0372 169.432 70.8068C169.57 70.5764 169.658 70.3194 169.689 70.0526C169.721 69.7857 169.696 69.5152 169.617 69.2587C169.537 69.0022 169.404 68.7656 169.227 68.5644C169.049 68.3632 168.833 68.2021 168.588 68.0915C168.345 67.9809 168.082 67.9234 167.814 67.9229Z" fill="#E7F6FF"/>
<path d="M164.632 77.0747C164.83 76.2525 164.328 75.4242 163.51 75.2249C162.693 75.0255 161.87 75.5305 161.671 76.3527C161.473 77.1749 161.975 78.003 162.792 78.2024C163.611 78.4017 164.433 77.8969 164.632 77.0747Z" fill="#E7F6FF"/>
<path d="M7.4187 73.0212C6.49544 73.0009 5.61739 72.6152 4.97517 71.9477C4.33294 71.2802 3.97841 70.3848 3.98849 69.4561C3.99859 68.5272 4.37249 67.6398 5.02906 66.9866C5.68562 66.3333 6.57184 65.967 7.49532 65.967C8.41882 65.967 9.30503 66.3333 9.9616 66.9866C10.6182 67.6398 10.9921 68.5272 11.0022 69.4561C11.0122 70.3848 10.6577 71.2802 10.0155 71.9477C9.37327 72.6152 8.49521 73.0009 7.57194 73.0212H7.4187ZM7.4187 67.5899H7.33939C6.84075 67.6009 6.36648 67.8091 6.01958 68.1696C5.67267 68.53 5.48112 69.0135 5.48652 69.5153C5.49191 70.0169 5.69382 70.4961 6.04841 70.849C6.403 71.2017 6.88164 71.3997 7.38039 71.3997C7.87916 71.3997 8.3578 71.2017 8.71239 70.849C9.06697 70.4961 9.26889 70.0169 9.27428 69.5153C9.27968 69.0135 9.08813 68.53 8.74122 68.1696C8.39432 67.8091 7.92005 67.6009 7.42139 67.5899H7.4187Z" fill="#E7F6FF"/>
<path d="M4.91836 78.9408C5.75871 78.9043 6.41055 78.1896 6.3743 77.3443C6.33805 76.4991 5.62743 75.8434 4.7871 75.8799C3.94675 75.9164 3.2949 76.6311 3.33115 77.4764C3.36739 78.3216 4.07802 78.9773 4.91836 78.9408Z" fill="#E7F6FF"/>
<path d="M95.3153 15.9892C94.4784 15.9899 93.6689 15.6893 93.0334 15.1417C92.3977 14.5941 91.9781 13.8357 91.8502 13.0038C91.7225 12.1719 91.895 11.3215 92.3366 10.6064C92.7781 9.8914 93.4596 9.35899 94.2577 9.10559C95.0556 8.85218 95.9175 8.89453 96.6872 9.22495C97.4569 9.55538 98.0836 10.1521 98.4538 10.907C98.824 11.6619 98.9132 12.5252 98.7054 13.3406C98.4976 14.156 98.0064 14.8697 97.3209 15.3524C96.7329 15.7661 96.0329 15.9884 95.3153 15.9892ZM95.3046 10.5592C94.8149 10.5587 94.344 10.7483 93.9898 11.0885C93.6357 11.4286 93.4258 11.8931 93.4039 12.3852C93.3818 12.8772 93.5494 13.3588 93.8718 13.7296C94.1941 14.1003 94.6462 14.3317 95.134 14.3754C95.6217 14.419 96.1073 14.2718 96.4898 13.9641C96.8722 13.6565 97.1218 13.2123 97.1866 12.7241C97.2514 12.2359 97.1264 11.7414 96.8377 11.3436C96.5489 10.9458 96.1186 10.6755 95.6366 10.589C95.527 10.5693 95.4159 10.5594 95.3046 10.5592Z" fill="#E7F6FF"/>
<path d="M88.1648 15.7967C88.8534 15.3109 89.0203 14.3556 88.5373 13.6628C88.0543 12.9702 87.1046 12.8024 86.416 13.2882C85.7272 13.774 85.5605 14.7292 86.0434 15.422C86.5263 16.1147 87.4762 16.2825 88.1648 15.7967Z" fill="#E7F6FF"/>
<path d="M172.866 34.1611C172.866 32.6745 172.278 31.2486 171.234 30.1974C170.188 29.146 168.771 28.5554 167.292 28.5554C167.169 28.5554 167.046 28.5554 166.926 28.5676C166.934 28.4459 166.938 28.3229 166.938 28.1985C166.938 27.4018 166.768 26.6142 166.442 25.8884C166.115 25.1625 165.639 24.515 165.044 23.9891C164.448 23.4631 163.749 23.0707 162.991 22.8382C162.234 22.6055 161.436 22.538 160.651 22.6401C159.864 22.7423 159.11 23.0116 158.435 23.4302C157.762 23.849 157.184 24.4074 156.742 25.0681C156.3 25.729 156.002 26.4771 155.869 27.2626C155.738 28.0481 155.773 28.853 155.974 29.6236C155.301 29.1323 154.526 28.7989 153.708 28.6479C152.889 28.4969 152.048 28.5322 151.245 28.7511C150.441 28.9698 149.698 29.3668 149.066 29.9128C148.436 30.4587 147.936 31.1398 147.6 31.9059C147.265 32.6721 147.105 33.5039 147.132 34.3404C147.159 35.1769 147.371 35.9967 147.754 36.7399C148.136 37.483 148.679 38.1305 149.343 38.6349C150.007 39.1393 150.775 39.4877 151.591 39.6546C151.924 40.5426 152.475 41.3312 153.194 41.9462C153.912 42.5611 154.775 42.9826 155.7 43.1709C156.623 43.3593 157.582 43.3084 158.481 43.0232C159.38 42.7377 160.194 42.2272 160.844 41.5394C161.51 42.0445 162.279 42.3931 163.096 42.5594C163.913 42.7258 164.756 42.7058 165.564 42.5009C166.373 42.2959 167.124 41.9111 167.766 41.3751C168.407 40.839 168.919 40.1651 169.267 39.4031C170.325 38.9998 171.235 38.2824 171.879 37.3461C172.521 36.4098 172.866 35.299 172.866 34.1611Z" fill="white"/>
<path d="M25.7349 20.6864C25.7356 19.9499 25.592 19.2205 25.3124 18.5399C25.0327 17.8592 24.6224 17.2406 24.1049 16.7196C23.5875 16.1985 22.9731 15.785 22.2967 15.503C21.6204 15.2208 20.8953 15.0754 20.1631 15.0753C20.0395 15.0753 19.9172 15.0753 19.7962 15.0875C19.8042 14.9658 19.8083 14.8427 19.8083 14.7184C19.8081 13.9217 19.6392 13.1341 19.3125 12.4083C18.986 11.6824 18.5094 11.0349 17.9144 10.5089C17.3195 9.98295 16.6198 9.59058 15.8622 9.35799C15.1046 9.12537 14.3064 9.05789 13.5209 9.16C12.7353 9.26211 11.9804 9.53148 11.3065 9.95015C10.6326 10.3688 10.0552 10.9272 9.61271 11.588C9.17022 12.2488 8.87288 12.997 8.74048 13.7824C8.60807 14.568 8.64367 15.3729 8.84488 16.1434C8.17132 15.6521 7.39694 15.3187 6.57856 15.1678C5.76017 15.0168 4.91856 15.052 4.11548 15.2708C3.3124 15.4897 2.56824 15.8867 1.9376 16.4327C1.30696 16.9786 0.805851 17.6597 0.471045 18.4257C0.136241 19.192 -0.0237636 20.0238 0.00277481 20.8603C0.0293132 21.6967 0.241721 22.5166 0.62441 23.2597C1.0071 24.0029 1.55036 24.6504 2.21432 25.1548C2.87828 25.6591 3.64609 26.0076 4.46141 26.1745C4.79461 27.0617 5.34617 27.8494 6.06445 28.4638C6.78273 29.0783 7.64426 29.4994 8.56839 29.6877C9.49252 29.8761 10.449 29.8254 11.3484 29.5406C12.2478 29.2559 13.0607 28.7461 13.7109 28.0593C14.3762 28.5644 15.1456 28.913 15.9625 29.0793C16.7794 29.2457 17.623 29.2257 18.4311 29.0206C19.2393 28.8156 19.9915 28.431 20.6323 27.8949C21.2731 27.3588 21.7861 26.685 22.1338 25.923C23.1911 25.5205 24.1018 24.804 24.745 23.8688C25.3882 22.9336 25.7334 21.8236 25.7349 20.6864Z" fill="white"/>
<path d="M128.262 100.45H48.0797V98.692H128.262C128.494 98.692 128.716 98.7846 128.88 98.9493C129.044 99.1141 129.136 99.3378 129.136 99.5709C129.136 99.804 129.044 100.027 128.88 100.192C128.716 100.357 128.494 100.45 128.262 100.45Z" fill="#426572"/>
<path d="M44.4934 100.45H39.591C39.3593 100.45 39.1371 100.357 38.9732 100.192C38.8094 100.027 38.7173 99.804 38.7173 99.5709C38.7173 99.3378 38.8094 99.1141 38.9732 98.9493C39.1371 98.7846 39.3593 98.692 39.591 98.692H44.4934C44.7251 98.692 44.9473 98.7846 45.1112 98.9493C45.275 99.1141 45.3671 99.3378 45.3671 99.5709C45.3671 99.804 45.275 100.027 45.1112 100.192C44.9473 100.357 44.7251 100.45 44.4934 100.45Z" fill="#426572"/>
<path d="M36.4093 100.45H34.8473C34.6156 100.45 34.3934 100.357 34.2295 100.192C34.0656 100.027 33.9736 99.804 33.9736 99.5709C33.9736 99.3378 34.0656 99.1141 34.2295 98.9493C34.3934 98.7846 34.6156 98.692 34.8473 98.692H36.4093C36.641 98.692 36.8632 98.7846 37.0271 98.9493C37.1909 99.1141 37.283 99.3378 37.283 99.5709C37.283 99.804 37.1909 100.027 37.0271 100.192C36.8632 100.357 36.641 100.45 36.4093 100.45Z" fill="#426572"/>
<path d="M156.377 100.45H131.733V98.692H156.377C156.609 98.692 156.832 98.7846 156.996 98.9493C157.16 99.1141 157.251 99.3378 157.251 99.5709C157.251 99.804 157.16 100.027 156.996 100.192C156.832 100.357 156.609 100.45 156.377 100.45Z" fill="#426572"/>
<path d="M30.3791 100.45H5.73303V98.692H30.3791C30.6109 98.692 30.8331 98.7846 30.9969 98.9493C31.1608 99.1141 31.2529 99.3378 31.2529 99.5709C31.2529 99.804 31.1608 100.027 30.9969 100.192C30.8331 100.357 30.6109 100.45 30.3791 100.45Z" fill="#426572"/>
<path d="M34.1792 31.833H132.405C132.641 31.833 132.874 31.8797 133.092 31.9704C133.31 32.0612 133.508 32.1943 133.675 32.3621C133.841 32.5297 133.974 32.7289 134.064 32.9481C134.154 33.1672 134.201 33.4021 134.201 33.6394V96.3093H32.3834V33.6394C32.3834 33.4021 32.4299 33.1672 32.5201 32.9481C32.6103 32.7289 32.7425 32.5297 32.9094 32.3621C33.0762 32.1943 33.274 32.0612 33.4919 31.9704C33.7098 31.8797 33.9435 31.833 34.1792 31.833Z" fill="#EBF0F9"/>
<path d="M130.659 36.3069H36.3259V90.5116H130.659V36.3069Z" fill="#637F91"/>
<path d="M35.6216 90.4105H131.061C131.061 90.8408 130.891 91.2535 130.588 91.5578C130.286 91.862 129.875 92.033 129.448 92.033H37.2346C36.8068 92.033 36.3965 91.862 36.0941 91.5578C35.7915 91.2535 35.6216 90.8408 35.6216 90.4105Z" fill="white"/>
<g opacity="0.5">
<path opacity="0.5" d="M64.5141 36.104L50.4106 90.8171H43.3078L57.4113 36.104H64.5141Z" fill="#A7BCD5"/>
<path opacity="0.5" d="M82.6193 36.104L68.5145 90.8171H53.6206L67.7241 36.104H82.6193Z" fill="#A7BCD5"/>
</g>
<path d="M135.003 97.1205H31.5768V37.9794C31.579 36.1347 32.3085 34.3664 33.6053 33.0619C34.902 31.7575 36.6602 31.0238 38.4942 31.0217H77.2209V32.6442H38.4942C37.088 32.646 35.7399 33.2086 34.7454 34.2088C33.7511 35.209 33.1916 36.565 33.1899 37.9794V95.498H133.39V34.1219C133.39 33.7301 133.235 33.3545 132.959 33.0774C132.684 32.8004 132.31 32.6445 131.921 32.6442H95.0975V31.0217H131.921C132.738 31.0242 133.52 31.3516 134.098 31.9325C134.675 32.5133 135 33.3005 135.003 34.1219V97.1205Z" fill="#426572"/>
<path d="M19.5421 94.3748H149.767V94.7966C149.767 96.1951 149.214 97.5363 148.232 98.5252C147.248 99.5141 145.914 100.07 144.524 100.07H24.7845C23.3942 100.07 22.0608 99.5141 21.0776 98.5252C20.0944 97.5363 19.5421 96.1951 19.5421 94.7966V94.3748Z" fill="#EBF0F9"/>
<path opacity="0.5" d="M149.101 97.1233C148.815 97.8717 148.31 98.5151 147.652 98.9689C146.995 99.4226 146.217 99.6655 145.419 99.6652H23.0815C22.2842 99.6655 21.5058 99.4226 20.8484 98.9689C20.1911 98.5151 19.6861 97.8717 19.3997 97.1233H149.101Z" fill="#A7BCD5"/>
<path d="M143.918 100.681H24.1783C22.5745 100.679 21.037 100.038 19.903 98.8969C18.769 97.7561 18.1311 96.2096 18.1293 94.5966V93.3635H149.967V94.5966C149.966 96.2096 149.327 97.7561 148.194 98.8969C147.059 100.038 145.522 100.679 143.918 100.681ZM19.7599 94.9847C19.8566 96.0965 20.3642 97.1314 21.1824 97.8853C22.0007 98.6392 23.07 99.0572 24.1796 99.0571H143.919C145.028 99.0572 146.098 98.6392 146.917 97.8853C147.734 97.1314 148.242 96.0965 148.339 94.9847H19.7599Z" fill="#426572"/>
<path d="M131.262 91.0186H35.3178V35.4956H131.262V91.0186ZM36.9295 89.3961H129.649V37.1181H36.9309L36.9295 89.3961Z" fill="#426572"/>
<path d="M147.34 49.3249V64.2748C147.338 64.5969 147.21 64.9052 146.984 65.133C146.757 65.3607 146.45 65.4895 146.131 65.4917H119.738C119.569 65.4921 119.401 65.4561 119.246 65.3862C119.032 65.291 118.849 65.135 118.721 64.9371C118.592 64.7393 118.524 64.5082 118.524 64.2721V49.3249C118.524 49.0783 118.598 48.8374 118.737 48.6341C118.876 48.4308 119.073 48.2748 119.301 48.1865C119.439 48.1325 119.586 48.1051 119.734 48.1053H146.122C146.414 48.1063 146.696 48.2128 146.918 48.4058C147.139 48.5986 147.283 48.8649 147.324 49.1559C147.334 49.2118 147.339 49.2683 147.34 49.3249Z" fill="white"/>
<path d="M147.139 48.9177V63.8676C147.136 64.1896 147.008 64.4979 146.782 64.7257C146.555 64.9534 146.249 65.0824 145.929 65.0844H119.537C119.367 65.0849 119.199 65.0489 119.045 64.979C118.83 64.8838 118.647 64.7278 118.519 64.53C118.391 64.3322 118.323 64.1011 118.323 63.8649V63.6621H144.308C144.628 63.66 144.934 63.5311 145.161 63.3034C145.387 63.0757 145.515 62.7673 145.518 62.4452V47.6981H145.921C146.213 47.6991 146.495 47.8057 146.717 47.9985C146.937 48.1915 147.081 48.4577 147.123 48.7487C147.132 48.8047 147.137 48.861 147.139 48.9177Z" fill="#D6DEE9"/>
<path d="M145.925 66.1028H119.537C119.253 66.1034 118.973 66.0429 118.714 65.9257C118.357 65.7663 118.054 65.5062 117.842 65.1769C117.629 64.8476 117.516 64.4633 117.516 64.0707V49.1221C117.518 48.7204 117.638 48.3281 117.86 47.9944C118.083 47.6605 118.398 47.4001 118.766 47.2454L118.901 47.1724H118.965C119.149 47.1182 119.34 47.0909 119.531 47.0913H145.92C146.406 47.0931 146.875 47.2706 147.242 47.5916C147.609 47.9124 147.85 48.3554 147.92 48.8395C147.933 48.9331 147.94 49.0276 147.94 49.1221V64.072C147.941 64.4944 147.809 64.9064 147.565 65.2497C147.378 65.5125 147.132 65.727 146.847 65.8753C146.562 66.0236 146.246 66.1016 145.925 66.1028ZM119.295 48.7963C119.244 48.8339 119.202 48.8832 119.173 48.94C119.144 48.9968 119.129 49.0597 119.129 49.1235V64.072C119.129 64.1514 119.152 64.229 119.195 64.2952C119.239 64.3616 119.3 64.4137 119.373 64.4452C119.424 64.4686 119.48 64.4806 119.537 64.4803H145.925C145.989 64.4802 146.054 64.4644 146.112 64.434C146.17 64.4035 146.218 64.3596 146.256 64.3059C146.304 64.2372 146.331 64.155 146.331 64.0707V49.1221C146.332 49.1051 146.332 49.0879 146.331 49.0707C146.317 48.9722 146.27 48.8816 146.196 48.8157C146.121 48.7499 146.027 48.7133 145.928 48.7124H119.537C119.499 48.7123 119.461 48.7179 119.425 48.7287L119.295 48.7963Z" fill="#426572"/>
<path d="M125.953 55.9499C125.553 55.7091 125.117 55.5352 124.662 55.4347C124.894 55.2892 125.085 55.0864 125.217 54.8454C125.349 54.6044 125.417 54.3333 125.415 54.0583C125.412 53.779 125.337 53.5052 125.198 53.2637C125.058 53.0222 124.858 52.8214 124.618 52.681C124.378 52.5406 124.106 52.4653 123.828 52.4626C123.55 52.4599 123.277 52.5299 123.034 52.6657C122.791 52.8014 122.588 52.9983 122.444 53.2369C122.299 53.4756 122.219 53.7479 122.211 54.0272C122.203 54.3064 122.267 54.5829 122.397 54.8297C122.528 55.0764 122.719 55.2849 122.954 55.4347C122.48 55.5302 122.025 55.7057 121.609 55.9539C121.507 56.0209 121.422 56.1108 121.361 56.2166C121.299 56.3225 121.264 56.4414 121.256 56.5637V58.4958C121.256 58.6033 121.298 58.7065 121.374 58.7826C121.45 58.8587 121.552 58.9015 121.659 58.9015H125.906C126.013 58.9015 126.115 58.8587 126.191 58.7826C126.266 58.7065 126.309 58.6033 126.309 58.4958V56.561C126.303 56.4377 126.268 56.3176 126.206 56.2111C126.144 56.1047 126.057 56.0149 125.953 55.9499Z" fill="#426572"/>
<path d="M142.892 50.6335H128.738V52.256H142.892V50.6335Z" fill="#426572"/>
<path d="M137.837 53.481H128.738V55.1034H137.837V53.481Z" fill="#426572"/>
<path d="M142.691 59.0746H128.738V60.6971H142.691V59.0746Z" fill="#426572"/>
<path d="M84.7687 99.9711C84.7687 99.9711 106.284 89.1545 106.284 72.9201V51.2774L84.7687 45.8691L63.2532 51.2774V72.9188C63.2532 89.1504 84.7687 99.9711 84.7687 99.9711Z" fill="#03A9F4"/>
<path d="M89.0338 97.9782C87.6513 98.8954 86.2233 99.7411 84.7552 100.512C84.7552 100.512 63.2397 89.6953 63.2397 73.4596V51.8183L67.9445 50.6353V68.9816C67.9445 83.1243 82.1582 93.6988 89.0338 97.9782Z" fill="#03A9F4"/>
<path d="M84.3385 100.876L83.9782 100.695C83.7551 100.583 78.4441 97.8898 73.0498 93.1413C69.8654 90.3384 67.3248 87.4044 65.498 84.4177C63.1873 80.6413 62.0165 76.7731 62.0165 72.9251V50.6442L84.3385 45.0304L84.5347 45.0791L106.66 50.6429V72.9183C106.66 76.7731 105.49 80.6413 103.179 84.4109C101.352 87.3977 98.8116 90.3317 95.6272 93.1345C90.2329 97.883 84.9219 100.571 84.6987 100.689L84.3385 100.876ZM63.6296 51.9111V72.9183C63.6296 76.4675 64.7197 80.0505 66.8718 83.5672C68.6193 86.4147 71.0496 89.2257 74.1117 91.9204C77.2552 94.6622 80.684 97.0545 84.3385 99.0553C88.0029 97.0481 91.4409 94.6483 94.5921 91.8974C97.6475 89.204 100.078 86.3971 101.815 83.5578C103.965 80.0424 105.041 76.4688 105.041 72.9251V51.9111L84.3385 46.7029L63.6296 51.9111Z" fill="#426572"/>
<path d="M71.84 81.2324L81.1366 88.7134L82.4566 89.7762C83.1852 90.363 83.8761 90.6861 84.8278 90.5577C85.2515 90.5063 85.6578 90.3577 86.0154 90.1232C86.3728 89.8888 86.672 89.5748 86.8898 89.2056L97.0655 72.471L98.5172 70.0846C99.2888 68.8163 98.8345 66.9058 97.505 66.2C96.1299 65.4686 94.4658 65.8647 93.6431 67.2182L83.4674 83.9514L82.0157 86.3378L86.4516 85.7632L77.1577 78.2849L75.8377 77.2222C74.6871 76.296 72.9544 76.0053 71.8454 77.2222C70.9044 78.2524 70.6141 80.2467 71.8454 81.2378L71.84 81.2324Z" fill="white"/>
<path opacity="0.2" d="M47.8539 46.6465C48.7934 44.8727 49.3702 42.9277 49.5503 40.926C49.7303 38.9243 49.5099 36.9067 48.9021 34.9921C48.2943 33.0775 47.3114 31.3048 46.0115 29.7785C44.7116 28.2522 43.1208 27.0033 41.3332 26.1054C39.5455 25.2075 37.5972 24.6788 35.6031 24.5507C33.609 24.4225 31.6097 24.6974 29.7229 25.3589C27.8362 26.0206 26.1003 27.0558 24.6178 28.4031C23.1351 29.7506 21.9358 31.383 21.0907 33.2042C19.9235 35.4088 19.3201 37.8708 19.3347 40.3683C19.3494 42.866 19.9817 45.3207 21.1747 47.5112C22.3677 49.7017 24.0838 51.5592 26.1684 52.9162C28.253 54.2733 30.6406 55.0874 33.116 55.2849C32.6841 55.3877 32.2453 55.471 31.8 55.5351C34.1432 55.8748 36.5332 55.6505 38.7735 54.8805C41.0138 54.1105 43.0404 52.8169 44.687 51.1057C46.0044 49.8262 47.0778 48.3149 47.8539 46.6465Z" fill="#606060"/>
<path d="M32.632 51.7705C40.8948 51.7705 47.5931 45.033 47.5931 36.7219C47.5931 28.4109 40.8948 21.6733 32.632 21.6733C24.3693 21.6733 17.671 28.4109 17.671 36.7219C17.671 45.033 24.3693 51.7705 32.632 51.7705Z" fill="#A8EF9E"/>
<path d="M46.8794 37.7972C46.879 39.9549 46.4174 42.0871 45.5258 44.0495C44.6343 46.0119 43.3336 47.7585 41.7122 49.171C40.0907 50.5835 38.1862 51.6288 36.1278 52.236C34.0696 52.8433 31.9054 52.9982 29.7823 52.6903C33.3424 52.1728 36.5979 50.3822 38.9524 47.647C41.3069 44.9117 42.6029 41.4147 42.6029 37.7966C42.6029 34.1784 41.3069 30.6814 38.9524 27.9461C36.5979 25.2109 33.3424 23.4205 29.7823 22.9028C31.9057 22.5948 34.07 22.7496 36.1286 23.3568C38.1872 23.964 40.0919 25.0093 41.7136 26.422C43.3352 27.8346 44.636 29.5815 45.5275 31.5442C46.419 33.5068 46.8806 35.6395 46.8807 37.7972H46.8794Z" fill="#A7E59C"/>
<path d="M32.2759 53.2975C29.1572 53.2977 26.1085 52.3678 23.5154 50.6251C20.9221 48.8825 18.901 46.4055 17.7074 43.5075C16.5138 40.6094 16.2015 37.4204 16.8098 34.3438C17.4182 31.2671 18.9199 28.4412 21.1251 26.223C23.3304 24.0049 26.1399 22.4943 29.1987 21.8824C32.2574 21.2706 35.4279 21.5847 38.3091 22.7853C41.1904 23.9858 43.6529 26.0188 45.3854 28.6272C47.1178 31.2355 48.0424 34.302 48.0421 37.439C48.0371 41.6434 46.3745 45.674 43.4188 48.6471C40.4632 51.6201 36.4558 53.2925 32.2759 53.2975ZM32.2759 23.2016C29.4763 23.2013 26.7396 24.0361 24.4117 25.6003C22.0838 27.1647 20.2694 29.3882 19.1978 31.9896C18.1263 34.5911 17.8457 37.4538 18.3918 40.2157C18.9378 42.9776 20.2858 45.5145 22.2652 47.5058C24.2447 49.497 26.7669 50.8532 29.5126 51.4027C32.2584 51.9521 35.1045 51.6702 37.6909 50.5926C40.2774 49.5152 42.4881 47.6903 44.0435 45.3489C45.5989 43.0076 46.4291 40.2549 46.4291 37.439C46.4252 33.6644 44.9328 30.0456 42.2795 27.3764C39.6261 24.7073 36.0285 23.2059 32.2759 23.2016Z" fill="#426572"/>
<path d="M93.0598 31.0935H90.0353V32.716H93.0598V31.0935Z" fill="#426572"/>
<path d="M88.0848 31.0935H79.9308V32.716H88.0848V31.0935Z" fill="#426572"/>
<path d="M38.1567 45.6647C33.7665 46.2907 28.3548 44.6709 28.3548 44.6709L25.6865 45.205C25.5695 45.2277 25.449 45.2235 25.3339 45.1928C25.2187 45.1621 25.112 45.1056 25.0215 45.0276C24.931 44.9497 24.8593 44.8522 24.8115 44.7424C24.7637 44.6326 24.7411 44.5135 24.7455 44.3937C24.7996 42.4743 24.7507 40.5534 24.599 38.6393C24.5856 38.501 24.6084 38.3616 24.6653 38.2349C24.7223 38.1083 24.8113 37.999 24.9234 37.9178C25.0356 37.8366 25.167 37.7864 25.3043 37.7723C25.4418 37.7583 25.5806 37.7807 25.7067 37.8375C26.3078 38.1359 26.9667 38.2984 27.6369 38.3135C29.2567 38.2999 30.6708 37.0506 31.394 35.5674C32.1172 34.0842 32.2812 33.1228 32.4331 31.4733C32.499 30.7526 32.6038 29.9536 33.1482 29.4912C34.0892 28.6894 35.6377 29.6264 35.9428 30.8365C36.248 32.0466 35.756 32.5847 35.3406 33.761C35.0718 34.529 35.1309 34.5723 34.9132 35.3632C34.8855 35.4274 34.8718 35.4969 34.8732 35.567C34.8746 35.6369 34.891 35.7058 34.9212 35.7688C34.9602 35.8128 35.0078 35.8482 35.061 35.873C35.1141 35.8976 35.1718 35.9109 35.2304 35.9122C36.1095 36.0257 36.6862 36.3556 37.5666 36.453C37.9712 36.4971 38.3558 36.6536 38.677 36.9051C38.9982 37.1566 39.2435 37.493 39.3853 37.8767V44.5141C39.3867 44.6724 39.3554 44.8294 39.2934 44.9749C39.2313 45.1205 39.1399 45.2514 39.025 45.3595C38.9099 45.4677 38.7739 45.5507 38.6253 45.6033C38.4768 45.6558 38.3191 45.6767 38.1621 45.6647H38.1567Z" fill="#85D175"/>
</g>
</g>
<defs>
<clipPath id="clip0_134_1302">
<rect width="173" height="101" fill="white"/>
</clipPath>
</defs>
</svg>
