<svg width="161" height="160" viewBox="0 0 161 160" fill="none" xmlns="http://www.w3.org/2000/svg">
<path d="M38.7708 157C58.4134 157 74.3368 147.055 74.3368 134.788C74.3368 122.521 58.4134 112.576 38.7708 112.576C19.1282 112.576 3.20471 122.521 3.20471 134.788C3.20471 147.055 19.1282 157 38.7708 157Z" fill="#FF6242"/>
<path d="M38.7708 157C58.4134 157 74.3368 147.055 74.3368 134.788C74.3368 122.521 58.4134 112.576 38.7708 112.576C19.1282 112.576 3.20471 122.521 3.20471 134.788C3.20471 147.055 19.1282 157 38.7708 157Z" stroke="#070808" stroke-width="6" stroke-miterlimit="10"/>
<path d="M35.9151 97.5664L30.7471 113.991C30.1763 115.805 30.0409 117.729 30.352 119.606C30.6633 121.483 31.4122 123.26 32.5382 124.794C33.6642 126.328 35.1357 127.575 36.8335 128.435C38.5315 129.295 40.408 129.743 42.3113 129.744C45.3712 129.743 48.3178 128.586 50.5599 126.505C52.8022 124.424 54.1742 121.573 54.4007 118.523L55.9045 98.261L35.9151 97.5664Z" fill="#FFDA8F" stroke="#45413C" stroke-linecap="round" stroke-linejoin="round"/>
<path d="M30.7471 113.991C30.7471 113.991 41.3036 118.149 47.8433 114.542C54.3829 110.936 56.4126 104.399 56.4126 104.399L53.9319 98.3127L34.3127 97.4111L30.7471 113.991Z" fill="#FFBE3D"/>
<path d="M35.9151 97.5664L30.7471 113.991C30.1763 115.805 30.0409 117.729 30.352 119.606C30.6633 121.483 31.4122 123.26 32.5382 124.794C33.6642 126.328 35.1357 127.575 36.8335 128.435C38.5315 129.295 40.408 129.743 42.3113 129.744C45.3712 129.743 48.3178 128.586 50.5599 126.505C52.8022 124.424 54.1742 121.573 54.4007 118.523L55.9045 98.261L35.9151 97.5664Z" stroke="#070808" stroke-width="6" stroke-miterlimit="10"/>
<path d="M44.4821 74.7311C44.4821 69.9135 42.5674 65.2932 39.1594 61.8867C35.7516 58.4801 31.1293 56.5666 26.3096 56.5666C21.4899 56.5666 16.8678 58.4801 13.4598 61.8867C10.0517 65.2932 8.13708 69.9135 8.13708 74.7311C10.0032 77.0036 8.68046 79.7715 9.6536 81.9969C8.44699 84.761 7.94795 87.7821 8.20128 90.7875C8.45484 93.7929 9.45315 96.6877 11.1059 99.2109C12.7587 101.734 15.0139 103.806 17.6682 105.241C20.3225 106.675 23.2923 107.426 26.3096 107.426C29.3269 107.426 32.2966 106.675 34.9509 105.241C37.6052 103.806 39.8607 101.734 41.5135 99.2109C43.166 96.6877 44.1643 93.7929 44.4179 90.7875C44.6714 87.7821 44.1722 84.761 42.9656 81.9969C43.968 79.7057 44.4844 77.2317 44.4821 74.7311Z" fill="#724F3D"/>
<path d="M30.8559 98.0694C20.8195 98.0694 13.6055 94.4819 13.7995 84.4506C14.0304 72.4602 24.0654 75.0432 24.0654 72.459C24.0654 68.2534 22.4967 58.9238 22.9701 51.7088C14.0242 51.9251 5.30014 54.8019 3.23656 62.0224C1.98815 66.3897 5.94559 72.2665 8.91164 75.4335C9.69518 78.371 5.36388 78.5035 9.65361 81.9952C7.88123 86.0511 7.65169 90.6143 9.00793 94.8276C10.3642 99.0407 13.2127 102.614 17.0186 104.876C20.8246 107.138 25.3258 107.933 29.677 107.111C34.0279 106.29 37.929 103.909 40.6475 100.415C38.0694 101.819 33.9979 98.0694 30.8559 98.0694Z" fill="#A86C4D"/>
<path d="M44.4821 74.7311C44.4821 64.6991 35.819 60.1181 27.8307 54.045C18.2702 46.7755 -7.84944 57.3689 8.13707 74.7311C12.5261 79.4977 3.02662 76.4644 9.65358 81.9969C8.44675 84.761 7.94771 87.7821 8.20127 90.7875C8.45483 93.7929 9.45291 96.6877 11.1057 99.2109C12.7584 101.734 15.0137 103.806 17.6682 105.241C20.3225 106.675 23.2922 107.426 26.3096 107.426C29.3269 107.426 32.2966 106.675 34.9509 105.241C37.6052 103.806 39.8605 101.734 41.5132 99.2109C43.166 96.6877 44.1643 93.7929 44.4179 90.7875C44.6712 87.7821 44.1721 84.761 42.9655 81.9969C43.9678 79.7057 44.4841 77.2317 44.4821 74.7311Z" stroke="#070808" stroke-width="6" stroke-miterlimit="10"/>
<path d="M23.6465 60.7845H68.8587V85.977C68.8587 91.97 66.4772 97.7174 62.2375 101.955C57.9981 106.192 52.2482 108.573 46.2526 108.573C40.2573 108.573 34.5071 106.192 30.2677 101.955C26.0283 97.7174 23.6465 91.97 23.6465 85.977V60.7845Z" fill="#FFDA8F" stroke="#45413C" stroke-linecap="round" stroke-linejoin="round"/>
<path d="M27.5492 71.8658C27.5492 71.8658 33.433 74.4615 44.2915 73.2132C54.4164 72.0491 62.7562 67.6918 62.7562 67.6918C62.7562 67.6918 68.5649 71.2717 68.5649 73.3514C71.0913 72.4602 72.2801 60.1312 72.2801 60.1312L63.2152 58.4974C63.2152 58.4974 27.8457 65.9243 27.5492 71.8658Z" fill="#FFBE3D"/>
<path d="M49.3057 103.968C30.6046 106.045 24.3465 87.3006 24.3465 87.3006C24.1296 87.6007 23.9356 87.9033 23.756 88.208C24.3102 93.7873 26.9195 98.9613 31.0769 102.725C35.2345 106.489 40.6431 108.573 46.2524 108.573C50.4419 108.574 54.5494 107.411 58.1161 105.214C61.6828 103.017 64.5685 99.8726 66.4513 96.1316L67.0032 92.9753C67.0032 92.9753 65.5943 102.159 49.3057 103.968Z" fill="#FFBE3D"/>
<path d="M23.6465 60.7845H68.8587V85.977C68.8587 91.97 66.4772 97.7174 62.2375 101.955C57.9981 106.192 52.2482 108.573 46.2526 108.573C40.2573 108.573 34.5071 106.192 30.2677 101.955C26.0283 97.7174 23.6465 91.97 23.6465 85.977V60.7845Z" stroke="#070808" stroke-width="6" stroke-miterlimit="10"/>
<path d="M60.8815 49.0455C60.8815 49.0455 57.2329 55.9652 61.4074 62.3587C62.7989 64.4897 68.1382 64.751 68.7033 70.0568C69.3848 76.4549 80.8994 57.5166 69.5141 49.8998C67.3568 48.4566 61.5993 42.0509 60.8815 49.0455Z" fill="#EFDD5C"/>
<path d="M60.8815 49.0455C60.8815 49.0455 57.2329 55.9652 61.4074 62.3587C62.7989 64.4897 68.1382 64.751 68.7033 70.0568C69.3848 76.4549 80.8994 57.5166 69.5141 49.8998C67.3568 48.4566 61.5993 42.0509 60.8815 49.0455Z" fill="#724F3D"/>
<path d="M60.8815 49.0455C60.8815 49.0455 57.2329 55.9652 61.4074 62.3587C62.7989 64.4897 68.1382 64.751 68.7033 70.0568C69.3848 76.4549 80.4359 58.1341 69.5141 49.8998C67.4418 48.3375 61.5993 42.0509 60.8815 49.0455Z" stroke="#070808" stroke-width="6" stroke-linecap="round" stroke-linejoin="round"/>
<path d="M24.0654 72.4602C37.9803 72.2213 52.3808 69.7881 64.3459 60.9405C67.8489 58.3504 69.7975 50.9247 66.0846 46.5345C51.3721 29.1384 28.6699 42.3891 24.0717 49.8091C19.3187 57.4788 17.5269 65.302 24.0654 72.4602Z" fill="#A86C4D"/>
<path d="M67.187 48.244C66.7614 51.0528 65.377 53.6514 63.5813 54.9794C52.9768 62.8206 40.4595 65.6231 28.0628 66.3262C26.3121 66.4377 24.5718 65.9839 23.099 65.0315C21.6261 64.0791 20.4985 62.6786 19.8823 61.037C19.8754 61.0183 19.8687 60.9996 19.862 60.9809C17.5296 63.5713 17.7204 69.0885 24.0649 72.4602C37.9798 72.2213 52.3803 69.7881 64.3454 60.9405C67.426 58.6629 69.3025 52.6476 67.187 48.244Z" fill="#724F3D"/>
<path d="M23.6428 72.1964C24.6984 73.2289 53.611 71.0125 64.3459 60.9405C67.523 57.9598 69.7975 50.9247 66.0846 46.5345C51.3721 29.1384 28.6699 42.3891 24.0717 49.8091C22.5642 52.2415 21.0999 54.9369 20.1921 57.7191" stroke="#070808" stroke-width="6" stroke-linecap="round" stroke-linejoin="round"/>
<path d="M65.7243 75.1581C65.7243 75.1581 63.8062 72.6206 60.4305 72.7487" stroke="#070808" stroke-width="6" stroke-miterlimit="10" stroke-linecap="round"/>
<path d="M62.6758 80.5343C63.3414 80.49 63.8178 79.5023 63.7395 78.3281C63.6614 77.1538 63.0582 76.2379 62.3927 76.2822C61.7269 76.3266 61.2508 77.3143 61.3288 78.4885C61.4071 79.6627 62.01 80.5786 62.6758 80.5343Z" fill="#070808"/>
<path d="M54.0345 78.0045L58.5094 85.1158L53.6867 86.321" stroke="#070808" stroke-width="6" stroke-linecap="round" stroke-linejoin="round"/>
<path d="M38.928 77.7877C38.928 77.7877 40.7562 75.1849 44.1343 75.1948" stroke="#070808" stroke-width="6" stroke-miterlimit="10" stroke-linecap="round"/>
<path d="M44.0281 82.7007C44.6818 82.5684 45.0225 81.526 44.789 80.3728C44.5553 79.2193 43.8357 78.3916 43.1817 78.5238C42.528 78.6563 42.1873 79.6985 42.421 80.852C42.6547 82.0054 43.3741 82.8332 44.0281 82.7007Z" fill="#070808"/>
<path d="M59.2352 91.6987C59.2352 91.6987 54.1302 97.4567 47.9398 93.4193" stroke="#070808" stroke-width="6" stroke-linecap="round" stroke-linejoin="round"/>
<path d="M60.8815 49.0455C60.8815 49.0455 59.328 57.2676 46.9352 57.931" stroke="#070808" stroke-width="6" stroke-linecap="round" stroke-linejoin="round"/>
<path d="M26.9888 84.7096C21.0594 87.0322 16.4612 81.2617 16.5725 78.7027C17.2937 62.1242 27.5116 73.1146 27.5116 73.1146" fill="#FFDA8F"/>
<path d="M26.9888 84.7096C21.0594 87.0322 16.4612 81.2617 16.5725 78.7027C17.2937 62.1242 27.5116 73.1146 27.5116 73.1146" stroke="#45413C" stroke-linecap="round" stroke-linejoin="round"/>
<path d="M26.9887 84.7096C19.6126 88.3439 14.7296 78.2233 16.2819 74.2505C20.2345 64.1384 27.5116 73.1146 27.5116 73.1146" stroke="#070808" stroke-width="6" stroke-miterlimit="10" stroke-linecap="round"/>
<path d="M144.627 6.80334H101.574C95.9741 6.80334 91.4345 11.3407 91.4345 16.9381V45.5326C91.4345 51.1297 95.9741 55.6673 101.574 55.6673H144.627C150.227 55.6673 154.766 51.1297 154.766 45.5326V16.9381C154.766 11.3407 150.227 6.80334 144.627 6.80334Z" fill="#CFD5EC"/>
<path d="M147.861 3H104.808C99.2078 3 94.6685 7.53762 94.6685 13.1347V41.7292C94.6685 47.3266 99.2078 51.864 104.808 51.864H147.861C153.461 51.864 158 47.3266 158 41.7292V13.1347C158 7.53762 153.461 3 147.861 3Z" fill="#73E1FF"/>
<path d="M147.861 3H104.808C99.2078 3 94.6685 7.53762 94.6685 13.1347V41.7292C94.6685 47.3266 99.2078 51.864 104.808 51.864H147.861C153.461 51.864 158 47.3266 158 41.7292V13.1347C158 7.53762 153.461 3 147.861 3Z" stroke="#070808" stroke-width="6" stroke-miterlimit="10"/>
<path d="M97.0239 68.548C100.014 68.548 102.439 66.1247 102.439 63.1353C102.439 60.1461 100.014 57.7226 97.0239 57.7226C94.0332 57.7226 91.6089 60.1461 91.6089 63.1353C91.6089 66.1247 94.0332 68.548 97.0239 68.548Z" stroke="#070808" stroke-width="6" stroke-miterlimit="10"/>
<path d="M87.5108 76.4755C89.359 76.4755 90.8572 74.9779 90.8572 73.1306C90.8572 71.2833 89.359 69.7856 87.5108 69.7856C85.6627 69.7856 84.1644 71.2833 84.1644 73.1306C84.1644 74.9779 85.6627 76.4755 87.5108 76.4755Z" stroke="#070808" stroke-width="6" stroke-miterlimit="10"/>
<path d="M143.685 31.9347H107.434C105.991 31.9347 104.822 33.1034 104.822 34.5452V40.9019C104.822 42.3437 105.991 43.5124 107.434 43.5124H143.685C145.128 43.5124 146.297 42.3437 146.297 40.9019V34.5452C146.297 33.1034 145.128 31.9347 143.685 31.9347Z" fill="white"/>
<path d="M110.129 40.9525C109.437 40.9522 108.772 40.6773 108.283 40.1877C107.793 39.6982 107.518 39.0341 107.518 38.3418V31.9853C107.518 31.9682 107.52 31.9516 107.52 31.9347H107.434C106.741 31.9347 106.077 32.2096 105.587 32.6992C105.097 33.1888 104.822 33.8527 104.822 34.5452V40.9015C104.822 41.5937 105.097 42.2578 105.587 42.7472C106.077 43.2368 106.741 43.5119 107.434 43.5119H143.685C144.369 43.5119 145.025 43.2439 145.513 42.7652C146.001 42.2864 146.282 41.6355 146.295 40.9522L110.129 40.9525Z" fill="#E4E4E4"/>
<path d="M143.685 31.9347H107.434C105.991 31.9347 104.822 33.1034 104.822 34.5452V40.9019C104.822 42.3437 105.991 43.5124 107.434 43.5124H143.685C145.128 43.5124 146.297 42.3437 146.297 40.9019V34.5452C146.297 33.1034 145.128 31.9347 143.685 31.9347Z" stroke="#070808" stroke-width="6" stroke-miterlimit="10"/>
<path d="M113.307 39.2965C114.372 39.2965 115.236 38.4335 115.236 37.3687C115.236 36.3038 114.372 35.4408 113.307 35.4408C112.242 35.4408 111.378 36.3038 111.378 37.3687C111.378 38.4335 112.242 39.2965 113.307 39.2965Z" fill="#070808"/>
<path d="M119.534 39.2965C120.599 39.2965 121.462 38.4335 121.462 37.3687C121.462 36.3038 120.599 35.4408 119.534 35.4408C118.468 35.4408 117.605 36.3038 117.605 37.3687C117.605 38.4335 118.468 39.2965 119.534 39.2965Z" fill="#070808"/>
<path d="M125.76 39.2965C126.826 39.2965 127.689 38.4335 127.689 37.3687C127.689 36.3038 126.826 35.4408 125.76 35.4408C124.695 35.4408 123.832 36.3038 123.832 37.3687C123.832 38.4335 124.695 39.2965 125.76 39.2965Z" fill="#070808"/>
<path d="M131.987 39.2965C133.052 39.2965 133.916 38.4335 133.916 37.3687C133.916 36.3038 133.052 35.4408 131.987 35.4408C130.922 35.4408 130.058 36.3038 130.058 37.3687C130.058 38.4335 130.922 39.2965 131.987 39.2965Z" fill="#070808"/>
<path d="M138.214 39.2965C139.279 39.2965 140.142 38.4335 140.142 37.3687C140.142 36.3038 139.279 35.4408 138.214 35.4408C137.148 35.4408 136.285 36.3038 136.285 37.3687C136.285 38.4335 137.148 39.2965 138.214 39.2965Z" fill="#070808"/>
<path d="M105.857 26.0539C105.857 26.0539 125.186 22.9082 122.614 15.8294C120.453 9.88213 114.991 14.2471 115.181 15.6581C116.506 25.5103 131.733 26.6405 134.564 18.8978C138.45 8.27003 130.178 9.14256 131.721 14.5338C133.265 19.925 140.472 10.4382 142.016 18.432" stroke="#070808" stroke-width="6" stroke-miterlimit="10" stroke-linecap="round"/>
</svg>
