<svg width="167" height="125" viewBox="0 0 167 125" fill="none" xmlns="http://www.w3.org/2000/svg">
<g clip-path="url(#clip0_134_2184)">
<mask id="mask0_134_2184" style="mask-type:luminance" maskUnits="userSpaceOnUse" x="0" y="0" width="167" height="125">
<path d="M166.878 0H0V124.944H166.878V0Z" fill="white"/>
</mask>
<g mask="url(#mask0_134_2184)">
<path d="M109.11 9.56667H6.62886C3.51803 9.56667 0.996216 12.089 0.996216 15.2006V40.621C0.996216 43.7324 3.51803 46.2549 6.62886 46.2549H109.11C112.221 46.2549 114.743 43.7324 114.743 40.621V15.2006C114.743 12.089 112.221 9.56667 109.11 9.56667Z" fill="white"/>
<path d="M114.743 32.5289V44.0569C114.743 45.2714 112.297 46.2544 109.297 46.2544H6.44871C3.44004 46.2544 1.00287 45.2714 1.00287 44.0569V37.3843C7.93637 39.2215 15.8305 40.4604 23.927 41.23C33.7113 42.1597 43.7958 42.431 53.838 42.4711C65.846 42.52 78.0541 42.2286 89.3572 40.5983C99.7152 39.1081 109.319 36.3612 114.743 32.5289Z" fill="#E8F0F9"/>
<path d="M109.004 47.1866H6.52212C4.79328 47.1848 3.13571 46.4973 1.91302 45.2747C0.690331 44.0523 0.00235448 42.3946 0 40.6653V15.2426C0.00235448 13.5134 0.690331 11.8557 1.91302 10.6332C3.13571 9.41063 4.79328 8.72306 6.52212 8.72128H109.004C110.733 8.72306 112.391 9.41092 113.614 10.634C114.836 11.857 115.524 13.5153 115.526 15.2449V40.6675C115.523 42.3964 114.835 44.0534 113.612 45.2756C112.389 46.4976 110.732 47.1848 109.004 47.1866ZM6.52212 10.5006C5.2649 10.5018 4.05948 11.0017 3.17029 11.8907C2.2811 12.7797 1.78073 13.9851 1.77896 15.2426V40.6653C1.78014 41.923 2.28025 43.1292 3.16951 44.0187C4.05877 44.9081 5.26452 45.4084 6.52212 45.4095H109.004C110.261 45.4084 111.467 44.9081 112.356 44.0187C113.246 43.1292 113.746 41.923 113.747 40.6653V15.2426C113.746 13.9848 113.246 12.7787 112.356 11.8893C111.467 10.9998 110.261 10.4996 109.004 10.4984L6.52212 10.5006Z" fill="#314E5D"/>
<path d="M160.478 66.5062H43.3355C40.2248 66.5062 37.7029 69.0285 37.7029 72.1401V97.5605C37.7029 100.672 40.2248 103.194 43.3355 103.194H160.478C163.589 103.194 166.111 100.672 166.111 97.5605V72.1401C166.111 69.0285 163.589 66.5062 160.478 66.5062Z" fill="white"/>
<path d="M166.111 89.4684V100.996C166.111 102.211 163.358 103.194 159.962 103.194H43.8514C40.4558 103.194 37.7029 102.211 37.7029 100.996V94.3238C45.5303 96.161 54.4429 97.3999 63.5823 98.1695C74.6163 99.0992 86.0106 99.3706 97.3492 99.4106C110.9 99.4595 124.687 99.1681 137.447 97.5378C149.146 96.0476 159.989 93.3007 166.111 89.4684Z" fill="#E8F0F9"/>
<path d="M84.1271 66.5974C72.0302 67.3225 55.219 66.6219 44.7876 69.2887C39.8354 70.5521 38.6146 73.0031 37.8163 75.0294L37.8319 69.3554C37.8319 68.6281 37.9008 67.8363 39.215 67.2803C40.8405 66.5952 43.6935 66.5418 46.2063 66.544C58.5434 66.5485 72.0346 66.0592 84.1271 66.5974Z" fill="#4ED9FF"/>
<path d="M160.358 104.126H43.2132C41.4843 104.124 39.8267 103.436 38.6042 102.214C37.3813 100.991 36.6935 99.3336 36.6911 97.6043V72.1817C36.6929 70.4522 37.3807 68.7938 38.6033 67.571C39.8261 66.3479 41.4841 65.6599 43.2132 65.6581H160.358C162.087 65.6599 163.745 66.3479 164.968 67.571C166.19 68.7938 166.878 70.4522 166.88 72.1817V97.6043C166.878 99.3336 166.19 100.991 164.967 102.214C163.744 103.436 162.087 104.124 160.358 104.126ZM43.2132 67.4397C41.9559 67.4408 40.7507 67.9408 39.8614 68.8299C38.9722 69.7189 38.4718 70.9242 38.4701 72.1817V97.6043C38.4712 98.8623 38.9713 100.068 39.8605 100.958C40.7498 101.847 41.9557 102.347 43.2132 102.349H160.358C161.615 102.347 162.821 101.847 163.71 100.958C164.6 100.068 165.1 98.8623 165.101 97.6043V72.1817C165.1 70.9239 164.6 69.7177 163.71 68.8283C162.821 67.9388 161.615 67.4388 160.358 67.4375L43.2132 67.4397Z" fill="#314E5D"/>
<path d="M144.196 0.751541H27.0691C23.9584 0.751541 21.4365 3.27391 21.4365 6.38544V110.965C21.4365 114.077 23.9584 116.599 27.0691 116.599H144.196C147.307 116.599 149.829 114.077 149.829 110.965V6.38544C149.829 3.27391 147.307 0.751541 144.196 0.751541Z" fill="#1DCDFF"/>
<path d="M149.829 73.2605V109.653C149.829 113.485 147.076 116.59 143.68 116.59H27.5739C24.1783 116.59 21.4254 113.476 21.4254 109.653V88.6074C29.2528 94.4081 38.1632 98.3227 47.3004 100.754C58.3344 103.692 69.7264 104.55 81.0629 104.675C94.6141 104.829 108.397 103.908 121.156 98.7587C132.866 94.0389 143.709 85.3601 149.829 73.2605Z" fill="#1AB5E1"/>
<path d="M67.8563 1.04302C55.7616 3.33617 38.9615 1.12309 28.5212 9.53946C23.5713 13.5297 22.3505 21.2677 21.5521 27.6666L21.5699 9.75521C21.5699 7.46206 21.6388 4.95538 22.9531 3.20494C24.5786 1.04302 27.4316 0.876203 29.9422 0.876203C42.2748 0.889548 55.7638 -0.627356 67.8563 1.04302Z" fill="#4ED9FF"/>
<path d="M144.076 117.627H26.9468C25.2177 117.625 23.5597 116.937 22.3369 115.714C21.1142 114.491 20.4265 112.833 20.4247 111.103V6.52358C20.4265 4.79395 21.1142 3.1357 22.3369 1.91266C23.5597 0.689637 25.2177 0.00176642 26.9468 0H144.076C145.805 0.00176642 147.463 0.689637 148.686 1.91266C149.909 3.1357 150.596 4.79395 150.598 6.52358V111.105C150.596 112.835 149.908 114.492 148.685 115.715C147.462 116.938 145.805 117.625 144.076 117.627ZM26.9468 1.77936C25.6893 1.78054 24.4834 2.28076 23.5942 3.17022C22.7049 4.05968 22.2049 5.2657 22.2037 6.52358V111.105C22.2049 112.363 22.7049 113.569 23.5942 114.459C24.4834 115.348 25.6893 115.849 26.9468 115.85H144.076C145.334 115.849 146.539 115.348 147.429 114.459C148.318 113.569 148.818 112.363 148.819 111.105V6.52358C148.818 5.2657 148.318 4.05968 147.429 3.17022C146.539 2.28076 145.334 1.78054 144.076 1.77936H26.9468Z" fill="#314E5D"/>
<path d="M135.194 8.22084H36.591C34.6433 8.22084 33.0642 9.8002 33.0642 11.7484V104.442C33.0642 106.39 34.6433 107.97 36.591 107.97H135.194C137.142 107.97 138.721 106.39 138.721 104.442V11.7484C138.721 9.8002 137.142 8.22084 135.194 8.22084Z" fill="white"/>
<path d="M138.552 11.0494V30.4177H32.8885V11.0494C32.8885 9.56364 34.4007 8.35812 36.2664 8.35812H135.174C137.04 8.35812 138.552 9.56364 138.552 11.0494Z" fill="#DCEAEF"/>
<path d="M135.068 109.413H36.4687C35.2977 109.412 34.1752 108.946 33.3473 108.118C32.5192 107.29 32.0535 106.167 32.0524 104.996V11.5794C32.0542 10.4086 32.5201 9.28633 33.348 8.45866C34.1758 7.63099 35.2981 7.16553 36.4687 7.16435H135.068C136.238 7.16553 137.361 7.6313 138.189 8.45944C139.017 9.2876 139.483 10.4105 139.484 11.5816V104.998C139.482 106.169 139.016 107.291 138.188 108.119C137.36 108.946 136.238 109.412 135.068 109.413ZM36.4687 8.94371C35.7696 8.94489 35.0993 9.2232 34.605 9.71764C34.1107 10.2121 33.8325 10.8824 33.8314 11.5816V104.998C33.8332 105.697 34.1116 106.367 34.6059 106.861C35.1002 107.355 35.77 107.633 36.4687 107.634H135.068C135.767 107.633 136.437 107.354 136.931 106.86C137.425 106.365 137.704 105.695 137.705 104.996V11.5794C137.703 10.8805 137.425 10.2108 136.93 9.71687C136.436 9.22289 135.766 8.94489 135.068 8.94371H36.4687Z" fill="#314E5D"/>
<path d="M89.7486 21.2611H44.8098V25.1446H89.7486V21.2611Z" fill="white"/>
<path d="M43.4089 39.9755H65.3946V39.0525H43.4089V39.9755Z" fill="#CED5D8"/>
<path d="M43.4089 42.0087H91.2607V41.0856H43.4089V42.0087Z" fill="#CED5D8"/>
<path d="M43.4089 44.0418H65.3946V43.1188H43.4089V44.0418Z" fill="#CED5D8"/>
<path d="M43.4089 46.0738H91.2607V45.1508H43.4089V46.0738Z" fill="#CED5D8"/>
<path d="M43.4089 48.107H65.3946V47.1839H43.4089V48.107Z" fill="#CED5D8"/>
<path d="M43.4089 50.1383H91.2607V49.2153H43.4089V50.1383Z" fill="#CED5D8"/>
<path d="M43.4089 58.3452H65.3946V57.4221H43.4089V58.3452Z" fill="#CED5D8"/>
<path d="M43.4089 60.3783H91.2607V59.4553H43.4089V60.3783Z" fill="#CED5D8"/>
<path d="M43.4089 62.4115H65.3946V61.4884H43.4089V62.4115Z" fill="#CED5D8"/>
<path d="M43.4089 64.4435H91.2607V63.5205H43.4089V64.4435Z" fill="#CED5D8"/>
<path d="M43.4089 66.4766H65.3946V65.5536H43.4089V66.4766Z" fill="#CED5D8"/>
<path d="M43.4089 68.508H91.2607V67.585H43.4089V68.508Z" fill="#CED5D8"/>
<path d="M43.4089 76.7149H65.3946V75.7918H43.4089V76.7149Z" fill="#CED5D8"/>
<path d="M43.4089 78.748H91.2607V77.825H43.4089V78.748Z" fill="#CED5D8"/>
<path d="M43.4089 80.7809H65.3946V79.8579H43.4089V80.7809Z" fill="#CED5D8"/>
<path d="M43.4089 82.8132H91.2607V81.8901H43.4089V82.8132Z" fill="#CED5D8"/>
<path d="M43.4089 84.8463H65.3946V83.9233H43.4089V84.8463Z" fill="#CED5D8"/>
<path d="M43.4089 86.8777H91.2607V85.9546H43.4089V86.8777Z" fill="#CED5D8"/>
<path d="M117.625 14.4399H134.129V12.4982H117.625V14.4399Z" fill="#EEA248"/>
<path d="M98.8436 14.4399H115.348V12.4982H98.8436V14.4399Z" fill="#EEA248"/>
<path d="M38.1387 15.3401C39.1727 15.3401 40.0111 14.5016 40.0111 13.4673C40.0111 12.433 39.1727 11.5945 38.1387 11.5945C37.1047 11.5945 36.2664 12.433 36.2664 13.4673C36.2664 14.5016 37.1047 15.3401 38.1387 15.3401Z" fill="#EEA248"/>
<path d="M104.332 83.683L98.3623 89.3459L110.476 102.123L116.447 96.4604L104.332 83.683Z" fill="#314E5D"/>
<g opacity="0.5">
<path opacity="0.5" d="M99.1529 83.8852C106.933 76.5053 107.26 64.214 99.8811 56.4317C92.5029 48.6495 80.2143 48.3232 72.4338 55.7031C64.6533 63.0832 64.327 75.3746 71.7053 83.1568C79.0837 90.9391 91.3724 91.2651 99.1529 83.8852Z" fill="#8BDDEB"/>
<path opacity="0.5" d="M75.5614 81.0162C73.5979 78.9464 72.1149 76.4691 71.2179 73.7605C70.3208 71.0521 70.0318 68.1788 70.3715 65.3459C70.7113 62.5129 71.6713 59.7898 73.1834 57.3701C74.6953 54.9506 76.7222 52.8943 79.1194 51.3476C76.5543 52.2878 74.2165 53.7589 72.2588 55.6646C70.301 57.5703 68.7674 59.8677 67.7582 62.4068C66.7489 64.946 66.2866 67.6695 66.4018 70.3995C66.5167 73.1294 67.2065 75.8045 68.426 78.2496C69.6453 80.6946 71.3669 82.855 73.478 84.589C75.5892 86.3232 78.0424 87.5921 80.6775 88.3129C83.3126 89.0338 86.07 89.1904 88.7696 88.7725C91.4693 88.3545 94.0504 87.3712 96.3441 85.8872C92.7829 87.1946 88.917 87.4302 85.2236 86.5645C81.5301 85.6988 78.1712 83.77 75.5614 81.0162Z" fill="#62D6F8"/>
</g>
<path d="M106.982 49.0616C104.866 46.8247 102.417 44.9288 99.7219 43.4411C99.6752 43.4121 99.6285 43.3877 99.5774 43.3632C93.3457 39.9689 86.1104 38.9019 79.1647 40.3528C72.2187 41.8038 66.0153 45.6782 61.6628 51.2836C57.3104 56.8888 55.0929 63.8596 55.4066 70.9502C55.7204 78.0405 58.545 84.788 63.3755 89.9869C63.4444 90.0647 63.5156 90.1403 63.5979 90.2093C65.8067 92.5447 68.3786 94.5073 71.2141 96.0211L71.2941 96.0634C77.5603 99.3786 84.8002 100.359 91.7221 98.8298C98.6441 97.3007 104.798 93.3614 109.085 87.7149C113.373 82.0683 115.515 75.0818 115.129 68.002C114.744 60.9221 111.857 54.2095 106.982 49.0616ZM99.6685 56.4326C102.311 59.2195 104.068 62.7275 104.717 66.5129C105.366 70.2985 104.878 74.1917 103.316 77.7C101.753 81.2082 99.1849 84.1742 95.9365 86.2226C92.6883 88.2714 88.9058 89.3103 85.0673 89.2086C81.2285 89.107 77.5062 87.869 74.371 85.6512C71.2358 83.4335 68.8287 80.3359 67.4535 76.7496C66.0786 73.1635 65.7976 69.25 66.6463 65.5042C67.4949 61.7582 69.4351 58.3483 72.2214 55.7053C74.0713 53.9504 76.2487 52.5772 78.6294 51.6639C81.0101 50.7509 83.5471 50.3158 86.096 50.3834C88.6448 50.4513 91.1553 51.0205 93.484 52.0587C95.8129 53.0972 97.9143 54.5841 99.6685 56.4348V56.4326Z" fill="#E7E7E7"/>
<path d="M109.079 87.0601C104.002 91.8761 97.3974 94.7587 90.4146 95.2057C83.4317 95.653 76.5133 93.6366 70.8636 89.5076C65.214 85.3783 61.1911 79.3981 59.4953 72.6081C57.7998 65.8181 58.5385 58.6484 61.5832 52.347C59.122 55.698 57.3862 59.5256 56.4869 63.5852C55.5879 67.645 55.5447 71.8477 56.3608 75.9248C57.1767 80.002 58.8336 83.8643 61.2258 87.2651C63.6181 90.6659 66.693 93.5303 70.2543 95.6755C73.8155 97.8207 77.7848 99.1997 81.9087 99.7244C86.0328 100.249 90.2209 99.9077 94.2055 98.7222C98.1902 97.5369 101.884 95.5334 105.051 92.8399C108.218 90.1464 110.789 86.8218 112.599 83.0787C111.546 84.5071 110.368 85.8394 109.079 87.0601Z" fill="#CED0D0"/>
<path d="M85.5369 100.594C80.4175 100.596 75.3795 99.3129 70.885 96.8617L70.7738 96.8016C64.2463 93.2095 59.2363 87.3792 56.6666 80.3848C56.6088 80.2335 56.5532 80.0756 56.502 79.9133C54.4723 74.0714 54.2474 67.7536 55.8574 61.7823C57.4671 55.8109 60.8369 50.4629 65.5281 46.4337C70.2192 42.4046 76.0141 39.8815 82.1589 39.1926C88.3036 38.5036 94.5133 39.6808 99.9799 42.5712C100.04 42.6001 100.1 42.6335 100.158 42.6668C105.912 45.7611 110.534 50.6059 113.353 56.5007C116.173 62.3952 117.045 69.0345 115.844 75.4577C114.642 81.881 111.429 87.7556 106.669 92.2318C101.91 96.708 95.8498 99.5538 89.3661 100.358C88.0957 100.515 86.8169 100.593 85.5369 100.594ZM85.5881 40.7629C80.957 40.7645 76.3935 41.8743 72.2788 43.9998C68.164 46.1252 64.6174 49.2044 61.935 52.9804C59.2528 56.7564 57.5125 61.1197 56.8598 65.7055C56.2072 70.2914 56.6608 74.9669 58.1832 79.3416V79.3683C58.2254 79.5018 58.2743 79.6352 58.3233 79.7665C60.7446 86.3641 65.4702 91.8632 71.6277 95.2491L71.7055 95.2914C77.7762 98.6128 84.8342 99.6544 91.6054 98.2278C98.3764 96.8012 104.415 93.0007 108.63 87.5122C112.846 82.0236 114.961 75.2086 114.594 68.2972C114.227 61.3857 111.402 54.833 106.629 49.8221C104.502 47.573 102.029 45.6806 99.3016 44.2171L99.2683 44.1971L99.1971 44.1593L99.1638 44.1415C94.9823 41.9239 90.321 40.7662 85.5881 40.7696V40.7629ZM85.5881 90.0979C85.4035 90.0979 85.2212 90.0979 85.0366 90.0979C79.6824 90.0249 74.5743 87.837 70.8267 84.0113C67.0791 80.1857 64.9961 75.0329 65.0326 69.677C65.0691 64.3212 67.2216 59.1971 71.021 55.4228C74.8202 51.6486 79.9577 49.5302 85.3123 49.5302C90.667 49.5302 95.8044 51.6486 99.6038 55.4228C103.403 59.1971 105.556 64.3212 105.592 69.677C105.629 75.0329 103.546 80.1857 99.798 84.0113C96.0506 87.837 90.9423 90.0249 85.5881 90.0979ZM85.5636 51.2589C80.8222 51.2491 76.2599 53.0705 72.8285 56.3434C69.7191 59.2929 67.7284 63.2295 67.1956 67.4827C66.6628 71.7358 67.6206 76.042 69.9061 79.6679C72.1918 83.2936 75.6635 86.0147 79.7299 87.3674C83.7962 88.72 88.2058 88.6205 92.2071 87.0859C96.2082 85.5514 99.554 82.6766 101.674 78.9513C103.794 75.2262 104.556 70.881 103.832 66.6564C103.108 62.4315 100.942 58.5887 97.7032 55.7823C94.464 52.9758 90.3523 51.3797 86.0684 51.2656C85.9038 51.2656 85.7377 51.2656 85.5703 51.2656L85.5636 51.2589Z" fill="#314E5D"/>
<path d="M109.104 94.1762L109.103 94.1777C106.568 96.5816 106.462 100.585 108.866 103.12L126.846 122.085C129.25 124.62 133.252 124.727 135.787 122.323L135.788 122.321C138.323 119.917 138.429 115.913 136.026 113.379L118.045 94.4135C115.642 91.8783 111.639 91.7722 109.104 94.1762Z" fill="#426372"/>
<path d="M131.174 124.945H130.976C130.029 124.923 129.096 124.714 128.23 124.33C127.364 123.946 126.584 123.393 125.933 122.705L107.954 103.737C107.302 103.049 106.792 102.24 106.453 101.355C106.113 100.47 105.952 99.5274 105.977 98.5801C106.002 97.633 106.213 96.6997 106.599 95.8343C106.985 94.9686 107.537 94.1875 108.224 93.5356C108.912 92.8835 109.721 92.3732 110.605 92.0338C111.49 91.6946 112.433 91.5327 113.38 91.5578C114.327 91.583 115.26 91.7945 116.125 92.1802C116.99 92.5658 117.771 93.1181 118.423 93.8058L136.404 112.767C137.716 114.158 138.424 116.012 138.373 117.923C138.322 119.835 137.517 121.648 136.133 122.967C134.797 124.241 133.02 124.95 131.174 124.945ZM113.186 93.3387C112.125 93.3412 111.088 93.6541 110.202 94.2391C109.316 94.8241 108.621 95.6555 108.202 96.6308C107.783 97.6061 107.658 98.6826 107.843 99.728C108.029 100.773 108.515 101.742 109.244 102.514L127.222 121.477C128.217 122.519 129.583 123.125 131.023 123.164C132.463 123.202 133.859 122.669 134.908 121.682C135.949 120.687 136.556 119.321 136.594 117.88C136.632 116.44 136.099 115.044 135.112 113.995L117.133 95.0314C116.626 94.4951 116.013 94.0685 115.335 93.7774C114.656 93.4864 113.925 93.337 113.186 93.3387Z" fill="#314E5D"/>
<g opacity="0.5">
<path opacity="0.5" d="M115.165 96.5478C117.389 98.4161 119.108 100.74 121.185 102.751C121.803 103.349 122.742 102.406 122.128 101.808C120.051 99.8063 118.332 97.4731 116.108 95.6047C115.455 95.0554 114.507 95.994 115.165 96.5478Z" fill="white"/>
<path opacity="0.5" d="M111.327 96.1277C111.684 95.9068 112.084 95.7673 112.5 95.7189C112.916 95.6704 113.338 95.7144 113.736 95.8474C114.561 96.0876 114.914 94.7998 114.091 94.5596C113.522 94.3799 112.921 94.3238 112.328 94.3952C111.735 94.4664 111.164 94.6637 110.654 94.9733C109.918 95.4181 110.587 96.5681 111.321 96.1254L111.327 96.1277Z" fill="white"/>
</g>
<path d="M92.9619 45.4068C96.5087 46.4855 99.8442 48.2115 102.615 50.6737C106.133 53.7876 108.526 57.8757 109.989 62.3152C110.256 63.127 111.545 62.78 111.276 61.9593C109.744 57.3107 107.245 52.998 103.56 49.7262C100.607 47.1061 97.0802 45.2778 93.3199 44.1168C92.4971 43.8654 92.1458 45.1533 92.9641 45.4046L92.9619 45.4068Z" fill="white"/>
<path d="M80.0043 44.1684C82.3236 43.8614 84.7275 43.9749 87.0446 44.2106C87.8985 44.2974 87.8918 42.9629 87.0446 42.8761C84.7275 42.6403 82.3236 42.5269 80.0043 42.8339C79.166 42.9451 79.1549 44.2818 80.0043 44.1684Z" fill="white"/>
</g>
</g>
<defs>
<clipPath id="clip0_134_2184">
<rect width="167" height="125" fill="white"/>
</clipPath>
</defs>
</svg>
