<svg width="181" height="196" viewBox="0 0 181 196" fill="none" xmlns="http://www.w3.org/2000/svg">
<g opacity="0.39">
<path opacity="0.39" d="M11.309 78.7642C13.8128 78.7642 15.8426 76.7345 15.8426 74.2306C15.8426 71.7268 13.8128 69.697 11.309 69.697C8.80515 69.697 6.77539 71.7268 6.77539 74.2306C6.77539 76.7345 8.80515 78.7642 11.309 78.7642Z" fill="white"/>
<path opacity="0.39" d="M11.3091 76.1736C12.3822 76.1736 13.2521 75.3037 13.2521 74.2306C13.2521 73.1575 12.3822 72.2876 11.3091 72.2876C10.2359 72.2876 9.36603 73.1575 9.36603 74.2306C9.36603 75.3037 10.2359 76.1736 11.3091 76.1736Z" fill="white"/>
<path opacity="0.39" d="M18.3681 67.7268L15.5636 69.3461L15.5678 69.3532C15.363 69.1744 15.1471 69.0086 14.9214 68.8569L14.929 68.8591L15.7671 65.7309C15.8338 65.4821 15.7989 65.2168 15.6699 64.9937C15.5411 64.7707 15.329 64.6077 15.0802 64.541L12.8905 63.9544C12.6417 63.8877 12.3766 63.9226 12.1534 64.0516C11.9304 64.1803 11.7676 64.3925 11.7009 64.6413L10.8628 67.7693H10.8674C10.5986 67.7878 10.3313 67.8229 10.0669 67.8747L10.0705 67.8725L8.45143 65.0682C8.38761 64.9577 8.30289 64.8608 8.2015 64.7832C8.10032 64.7053 7.98491 64.6484 7.86172 64.6155C7.73831 64.5824 7.60978 64.5739 7.48325 64.5906C7.35694 64.6073 7.23487 64.6486 7.12435 64.7124L5.1613 65.8465C5.05078 65.9103 4.95383 65.9951 4.87622 66.0962C4.79862 66.1974 4.74147 66.313 4.70856 66.4362C4.67543 66.5594 4.66698 66.6879 4.68366 66.8145C4.70033 66.941 4.74169 67.0629 4.80551 67.1734L6.42456 69.9779L6.42812 69.9759C6.25089 70.1791 6.08679 70.3935 5.93624 70.6172L5.93758 70.6127L2.80955 69.7744C2.56072 69.7077 2.29544 69.7428 2.07241 69.8716C1.84937 70.0005 1.6866 70.2127 1.61989 70.4615L1.03307 72.6509C0.966358 72.8998 1.00149 73.165 1.13024 73.3881C1.25921 73.6113 1.47135 73.7741 1.72018 73.8408L4.84798 74.6789L4.84999 74.6713C4.86844 74.9426 4.90402 75.2124 4.9565 75.4792L4.9525 75.4721L2.14801 77.0911C1.92498 77.2199 1.76198 77.4322 1.69527 77.6811C1.62856 77.9299 1.66348 78.195 1.79223 78.4182L2.92629 80.3813C2.99011 80.4918 3.07506 80.5887 3.17624 80.6663C3.27741 80.7442 3.39282 80.8011 3.51623 80.834C3.63942 80.8671 3.76795 80.8756 3.89448 80.8589C4.021 80.8422 4.14286 80.8009 4.25338 80.7371L7.05764 79.118L7.05141 79.1073C7.25866 79.2883 7.47747 79.4558 7.70606 79.6088L7.6925 79.6052L6.8544 82.733C6.78769 82.9818 6.8226 83.2471 6.95135 83.4702C7.08032 83.6934 7.29246 83.8562 7.54129 83.9229L9.73093 84.5095C9.97976 84.5762 10.2448 84.5413 10.4681 84.4123C10.6911 84.2836 10.8539 84.0714 10.9206 83.8226L11.7587 80.6946L11.7422 80.6901C12.0191 80.6719 12.2944 80.6359 12.5663 80.5819L12.5519 80.5903L14.1711 83.3946C14.235 83.5051 14.3199 83.602 14.4211 83.6796C14.5223 83.7575 14.6377 83.8144 14.7611 83.8473C14.8843 83.8804 15.0128 83.8889 15.1393 83.8722C15.2659 83.8555 15.3877 83.8142 15.4982 83.7503L17.4613 82.6163C17.6843 82.4875 17.8473 82.2754 17.914 82.0266C17.9807 81.7777 17.9458 81.5124 17.8171 81.2894L16.198 78.4849L16.1836 78.4932C16.3663 78.2846 16.5353 78.0642 16.6894 77.8336L16.685 77.8501L19.8128 78.6884C19.936 78.7213 20.0645 78.7298 20.191 78.7131C20.3176 78.6966 20.4397 78.655 20.5502 78.5912C20.6607 78.5274 20.7574 78.4425 20.835 78.3413C20.9128 78.2401 20.9698 78.1245 21.0027 78.0013L21.5893 75.8119C21.6224 75.6887 21.6309 75.5601 21.6142 75.4336C21.5975 75.3071 21.5562 75.185 21.4923 75.0747C21.4285 74.9642 21.3436 74.8673 21.2424 74.7896C21.1412 74.712 21.0256 74.6549 20.9024 74.622L17.7726 73.785L17.7688 73.7986C17.7508 73.5239 17.715 73.2509 17.6618 72.9809L17.6681 72.9918L20.4726 71.3728C20.6956 71.244 20.8586 71.0317 20.9253 70.7828C20.992 70.534 20.9571 70.2689 20.8284 70.0457L19.6943 68.0826C19.5655 67.8596 19.3534 67.697 19.1048 67.6303C18.8562 67.5636 18.5911 67.5983 18.3681 67.7268Z" fill="white"/>
</g>
<path opacity="0.39" d="M39.0184 32.7997C45.3489 32.7997 50.4809 27.6677 50.4809 21.3372C50.4809 15.0064 45.3489 9.87465 39.0184 9.87465C32.6878 9.87465 27.5558 15.0064 27.5558 21.3372C27.5558 27.6677 32.6878 32.7997 39.0184 32.7997Z" fill="white"/>
<path d="M38.861 21.4617L45.0532 17.8634L45.0341 24.5951L38.8419 28.1936L38.861 21.4617Z" stroke="#1E223B" stroke-width="2" stroke-linecap="round" stroke-linejoin="round"/>
<path d="M33.0025 18.0795L39.1947 14.481L45.0532 17.8634L38.861 21.4617L33.0025 18.0795Z" stroke="#1E223B" stroke-width="2" stroke-linecap="round" stroke-linejoin="round"/>
<path d="M33.0025 18.0795L39.1947 14.481L45.0532 17.8634L38.861 21.4617L33.0025 18.0795Z" fill="#028B9E" stroke="#1E223B" stroke-width="2" stroke-linecap="round" stroke-linejoin="round"/>
<path opacity="0.4" d="M38.8609 21.4617L38.8418 28.1936L32.9833 24.8112L33.0025 18.0795L38.8609 21.4617Z" fill="#028B9E" stroke="#1E223B" stroke-width="2" stroke-linecap="round" stroke-linejoin="round"/>
<path d="M38.8609 21.4617L38.8418 28.1936L32.9833 24.8112L33.0025 18.0795L38.8609 21.4617Z" stroke="#1E223B" stroke-width="2" stroke-linecap="round" stroke-linejoin="round"/>
<path d="M39.0184 32.7997C45.3489 32.7997 50.4809 27.6677 50.4809 21.3372C50.4809 15.0064 45.3489 9.87465 39.0184 9.87465C32.6878 9.87465 27.5558 15.0064 27.5558 21.3372C27.5558 27.6677 32.6878 32.7997 39.0184 32.7997Z" stroke="#1E223B" stroke-width="2" stroke-linecap="round" stroke-linejoin="round"/>
<g style="mix-blend-mode:multiply" opacity="0.11">
<path d="M118.794 110.479H56.0863C53.8758 110.479 52.0837 112.271 52.0837 114.482V159.4C52.0837 161.61 53.8758 163.402 56.0863 163.402H118.794C121.004 163.402 122.796 161.61 122.796 159.4V114.482C122.796 112.271 121.004 110.479 118.794 110.479Z" fill="#161616"/>
<path d="M118.794 110.479H56.0863C53.8758 110.479 52.0837 112.271 52.0837 114.482V159.4C52.0837 161.61 53.8758 163.402 56.0863 163.402H118.794C121.004 163.402 122.796 161.61 122.796 159.4V114.482C122.796 112.271 121.004 110.479 118.794 110.479Z" stroke="#1E223B" stroke-miterlimit="10"/>
</g>
<g style="mix-blend-mode:multiply" opacity="0.11">
<path d="M121.24 107.366H53.6403C52.7806 107.366 52.0837 108.063 52.0837 108.923C52.0837 109.782 52.7806 110.479 53.6403 110.479H121.24C122.099 110.479 122.796 109.782 122.796 108.923C122.796 108.063 122.099 107.366 121.24 107.366Z" fill="#161616"/>
<path d="M121.24 107.366H53.6403C52.7806 107.366 52.0837 108.063 52.0837 108.923C52.0837 109.782 52.7806 110.479 53.6403 110.479H121.24C122.099 110.479 122.796 109.782 122.796 108.923C122.796 108.063 122.099 107.366 121.24 107.366Z" stroke="#1E223B" stroke-miterlimit="10"/>
</g>
<path d="M116.57 108.7H53.8626C51.6521 108.7 49.86 110.492 49.86 112.703V157.621C49.86 159.831 51.6521 161.624 53.8626 161.624H116.57C118.781 161.624 120.573 159.831 120.573 157.621V112.703C120.573 110.492 118.781 108.7 116.57 108.7Z" fill="#2F4584"/>
<path d="M116.57 108.7H53.8626C51.6521 108.7 49.86 110.492 49.86 112.703V156.287C49.86 158.497 51.6521 160.289 53.8626 160.289H116.57C118.781 160.289 120.573 158.497 120.573 156.287V112.703C120.573 110.492 118.781 108.7 116.57 108.7Z" fill="white"/>
<g style="mix-blend-mode:multiply" opacity="0.11">
<path d="M95.7787 157.138H95.4452C95.0914 157.138 94.7519 157.279 94.5017 157.529C94.2515 157.779 94.111 158.119 94.111 158.472V160.067C94.111 160.244 94.0407 160.414 93.9155 160.539C93.7906 160.664 93.6207 160.734 93.4439 160.734C93.2669 160.734 93.0972 160.664 92.9723 160.539C92.8471 160.414 92.7768 160.244 92.7768 160.067V158.472C92.7768 158.119 92.6363 157.779 92.3859 157.529C92.1357 157.279 91.7964 157.138 91.4426 157.138H91.1091C90.7553 157.138 90.4157 157.279 90.1656 157.529C89.9154 157.779 89.7749 158.119 89.7749 158.472V160.067C89.7749 160.244 89.7046 160.414 89.5794 160.539C89.4544 160.664 89.2848 160.734 89.1078 160.734C88.9308 160.734 88.7611 160.664 88.6361 160.539C88.5109 160.414 88.4407 160.244 88.4407 160.067V158.472C88.4407 158.119 88.3001 157.779 88.0497 157.529C87.7996 157.279 87.4602 157.138 87.1065 157.138H86.7729C86.4191 157.138 86.0796 157.279 85.8294 157.529C85.5792 157.779 85.4387 158.119 85.4387 158.472V160.067C85.4387 160.244 85.3684 160.414 85.2432 160.539C85.1183 160.664 84.9486 160.734 84.7716 160.734C84.5946 160.734 84.4249 160.664 84.3 160.539C84.1748 160.414 84.1045 160.244 84.1045 160.067V150.061C84.1045 149.707 83.964 149.368 83.7136 149.117C83.4634 148.867 83.1241 148.726 82.7703 148.726H82.4368C82.083 148.726 81.7434 148.867 81.4933 149.117C81.2431 149.368 81.1026 149.707 81.1026 150.061V167.502L78.5436 163.069C78.456 162.917 78.3394 162.784 78.2002 162.677C78.0613 162.57 77.9025 162.492 77.7333 162.447C77.5638 162.401 77.3873 162.39 77.2134 162.412C77.0395 162.435 76.872 162.492 76.7202 162.58L76.4311 162.747C76.2792 162.834 76.146 162.951 76.0391 163.09C75.9323 163.229 75.854 163.388 75.8085 163.557C75.7631 163.726 75.7515 163.903 75.7744 164.077C75.7971 164.251 75.854 164.418 75.9419 164.57L81.2885 173.831C81.4848 174.329 81.8261 174.756 82.2687 175.058C82.7109 175.359 83.2339 175.52 83.7692 175.521H84.2139V181.003H83.3358V186.532H82.906C82.5235 186.532 82.1566 186.684 81.8862 186.954C81.6156 187.225 81.4637 187.592 81.4637 187.974V194.703H96.7529V187.974C96.7529 187.592 96.6011 187.225 96.3304 186.954C96.06 186.684 95.6931 186.532 95.3107 186.532H94.8786V181.003H93.9998V175.521H94.4445C95.1521 175.521 95.831 175.239 96.3313 174.739C96.8319 174.239 97.1129 173.56 97.1129 172.852V158.472C97.1129 158.119 96.9724 157.779 96.722 157.529C96.4719 157.279 96.1325 157.138 95.7787 157.138Z" fill="#161616"/>
<path d="M95.7787 157.138H95.4452C95.0914 157.138 94.7519 157.279 94.5017 157.529C94.2515 157.779 94.111 158.119 94.111 158.472V160.067C94.111 160.244 94.0407 160.414 93.9155 160.539C93.7906 160.664 93.6207 160.734 93.4439 160.734C93.2669 160.734 93.0972 160.664 92.9723 160.539C92.8471 160.414 92.7768 160.244 92.7768 160.067V158.472C92.7768 158.119 92.6363 157.779 92.3859 157.529C92.1357 157.279 91.7964 157.138 91.4426 157.138H91.1091C90.7553 157.138 90.4157 157.279 90.1656 157.529C89.9154 157.779 89.7749 158.119 89.7749 158.472V160.067C89.7749 160.244 89.7046 160.414 89.5794 160.539C89.4544 160.664 89.2848 160.734 89.1078 160.734C88.9308 160.734 88.7611 160.664 88.6361 160.539C88.5109 160.414 88.4407 160.244 88.4407 160.067V158.472C88.4407 158.119 88.3001 157.779 88.0497 157.529C87.7996 157.279 87.4602 157.138 87.1065 157.138H86.7729C86.4191 157.138 86.0796 157.279 85.8294 157.529C85.5792 157.779 85.4387 158.119 85.4387 158.472V160.067C85.4387 160.244 85.3684 160.414 85.2432 160.539C85.1183 160.664 84.9486 160.734 84.7716 160.734C84.5946 160.734 84.4249 160.664 84.3 160.539C84.1748 160.414 84.1045 160.244 84.1045 160.067V150.061C84.1045 149.707 83.964 149.368 83.7136 149.117C83.4634 148.867 83.1241 148.726 82.7703 148.726H82.4368C82.083 148.726 81.7434 148.867 81.4933 149.117C81.2431 149.368 81.1026 149.707 81.1026 150.061V167.502L78.5436 163.069C78.456 162.917 78.3394 162.784 78.2002 162.677C78.0613 162.57 77.9025 162.492 77.7333 162.447C77.5638 162.401 77.3873 162.39 77.2134 162.412C77.0395 162.435 76.872 162.492 76.7202 162.58L76.4311 162.747C76.2792 162.834 76.146 162.951 76.0391 163.09C75.9323 163.229 75.854 163.388 75.8085 163.557C75.7631 163.726 75.7515 163.903 75.7744 164.077C75.7971 164.251 75.854 164.418 75.9419 164.57L81.2885 173.831C81.4848 174.329 81.8261 174.756 82.2687 175.058C82.7109 175.359 83.2339 175.52 83.7692 175.521H84.2139V181.003H83.3358V186.532H82.906C82.5235 186.532 82.1566 186.684 81.8862 186.954C81.6156 187.225 81.4637 187.592 81.4637 187.974V194.703H96.7529V187.974C96.7529 187.592 96.6011 187.225 96.3304 186.954C96.06 186.684 95.6931 186.532 95.3107 186.532H94.8786V181.003H93.9998V175.521H94.4445C95.1521 175.521 95.831 175.239 96.3313 174.739C96.8319 174.239 97.1129 173.56 97.1129 172.852V158.472C97.1129 158.119 96.9724 157.779 96.722 157.529C96.4719 157.279 96.1325 157.138 95.7787 157.138Z" stroke="#1E223B" stroke-miterlimit="10"/>
</g>
<g style="mix-blend-mode:multiply" opacity="0.11">
<path d="M70.2209 156.287C70.8873 156.286 71.5293 156.037 72.0209 155.587C72.5126 155.137 72.8181 154.52 72.8775 153.856L77.7964 145.336C77.8843 145.184 77.941 145.017 77.9639 144.843C77.9868 144.669 77.9752 144.492 77.9299 144.323C77.8843 144.154 77.806 143.995 77.6993 143.856C77.5923 143.717 77.4591 143.6 77.3072 143.513L77.0182 143.346C76.8663 143.258 76.6988 143.202 76.525 143.179C76.3511 143.156 76.1745 143.167 76.0051 143.213C75.8358 143.258 75.6771 143.337 75.5379 143.443C75.3989 143.55 75.2824 143.683 75.1948 143.835L72.8877 147.831V130.827C72.8877 130.473 72.7472 130.133 72.497 129.883C72.2468 129.633 71.9073 129.492 71.5535 129.492H71.22C70.8662 129.492 70.5268 129.633 70.2765 129.883C70.0263 130.133 69.8858 130.473 69.8858 130.827V140.833C69.8858 141.01 69.8155 141.18 69.6903 141.305C69.5653 141.43 69.3957 141.5 69.2187 141.5C69.0417 141.5 68.872 141.43 68.747 141.305C68.6218 141.18 68.5516 141.01 68.5516 140.833V128.893C68.5516 128.54 68.411 128.2 68.1609 127.95C67.9107 127.7 67.5711 127.559 67.2174 127.559H66.8838C66.53 127.559 66.1907 127.7 65.9403 127.95C65.6901 128.2 65.5496 128.54 65.5496 128.893V140.833C65.5496 141.01 65.4793 141.18 65.3542 141.305C65.2292 141.43 65.0595 141.5 64.8825 141.5C64.7055 141.5 64.5358 141.43 64.4109 141.305C64.2857 141.18 64.2154 141.01 64.2154 140.833V130.827C64.2154 130.473 64.0749 130.134 63.8247 129.883C63.5745 129.633 63.235 129.493 62.8812 129.493H62.5477C62.1939 129.493 61.8545 129.633 61.6042 129.883C61.354 130.134 61.2135 130.473 61.2135 130.827V140.833C61.2135 141.01 61.1432 141.18 61.018 141.305C60.893 141.43 60.7234 141.5 60.5464 141.5C60.3694 141.5 60.1997 141.43 60.0747 141.305C59.9495 141.18 59.8793 141.01 59.8793 140.833V133.996C59.8793 133.642 59.7387 133.302 59.4886 133.052C59.2384 132.802 58.8989 132.661 58.5451 132.661H58.2115C57.8577 132.661 57.5184 132.802 57.268 133.052C57.0179 133.302 56.8773 133.642 56.8773 133.996V153.618C56.8773 154.326 57.1584 155.005 57.6589 155.505C58.1593 156.006 58.8381 156.287 59.5457 156.287H60.1194V161.769H59.1123V167.298H58.6803C58.2978 167.298 57.9309 167.45 57.6603 167.72C57.3899 167.991 57.2378 168.358 57.2378 168.74V194.703H72.5272V168.74C72.5272 168.358 72.3754 167.991 72.1048 167.72C71.8344 167.45 71.4674 167.298 71.0848 167.298H70.6527V161.769H69.9035V156.287H70.2209Z" fill="#161616"/>
<path d="M70.2209 156.287C70.8873 156.286 71.5293 156.037 72.0209 155.587C72.5126 155.137 72.8181 154.52 72.8775 153.856L77.7964 145.336C77.8843 145.184 77.941 145.017 77.9639 144.843C77.9868 144.669 77.9752 144.492 77.9299 144.323C77.8843 144.154 77.806 143.995 77.6993 143.856C77.5923 143.717 77.4591 143.6 77.3072 143.513L77.0182 143.346C76.8663 143.258 76.6988 143.202 76.5249 143.179C76.3511 143.156 76.1745 143.167 76.0051 143.213C75.8358 143.258 75.6771 143.337 75.5379 143.443C75.3989 143.55 75.2824 143.683 75.1948 143.835L72.8877 147.831V130.827C72.8877 130.473 72.7472 130.133 72.497 129.883C72.2468 129.633 71.9073 129.492 71.5535 129.492H71.22C70.8662 129.492 70.5268 129.633 70.2765 129.883C70.0263 130.133 69.8858 130.473 69.8858 130.827V140.833C69.8858 141.01 69.8155 141.18 69.6903 141.305C69.5653 141.43 69.3957 141.5 69.2187 141.5C69.0417 141.5 68.872 141.43 68.747 141.305C68.6218 141.18 68.5516 141.01 68.5516 140.833V128.893C68.5516 128.54 68.411 128.2 68.1609 127.95C67.9107 127.7 67.5711 127.559 67.2174 127.559H66.8838C66.53 127.559 66.1907 127.7 65.9403 127.95C65.6901 128.2 65.5496 128.54 65.5496 128.893V140.833C65.5496 141.01 65.4793 141.18 65.3542 141.305C65.2292 141.43 65.0595 141.5 64.8825 141.5C64.7055 141.5 64.5358 141.43 64.4109 141.305C64.2857 141.18 64.2154 141.01 64.2154 140.833V130.827C64.2154 130.473 64.0749 130.134 63.8247 129.883C63.5745 129.633 63.235 129.493 62.8812 129.493H62.5477C62.1939 129.493 61.8545 129.633 61.6042 129.883C61.354 130.134 61.2135 130.473 61.2135 130.827V140.833C61.2135 141.01 61.1432 141.18 61.018 141.305C60.893 141.43 60.7234 141.5 60.5464 141.5C60.3694 141.5 60.1997 141.43 60.0747 141.305C59.9495 141.18 59.8793 141.01 59.8793 140.833V133.996C59.8793 133.642 59.7387 133.302 59.4886 133.052C59.2384 132.802 58.8989 132.661 58.5451 132.661H58.2115C57.8577 132.661 57.5184 132.802 57.268 133.052C57.0179 133.302 56.8773 133.642 56.8773 133.996V153.618C56.8773 154.326 57.1584 155.005 57.6589 155.505C58.1593 156.006 58.8381 156.287 59.5457 156.287H60.1194V161.769H59.1123V167.298H58.6803C58.2978 167.298 57.9309 167.45 57.6603 167.72C57.3899 167.991 57.2378 168.358 57.2378 168.74V194.703H72.5272V168.74C72.5272 168.358 72.3754 167.991 72.1048 167.72C71.8344 167.45 71.4674 167.298 71.0848 167.298H70.6527V161.769H69.9035V156.287H70.2209Z" stroke="#1E223B" stroke-miterlimit="10"/>
</g>
<path opacity="0.15" d="M116.459 112.592H53.9739C53.4827 112.592 53.0844 112.99 53.0844 113.481V138.609C53.0844 139.1 53.4827 139.498 53.9739 139.498H116.459C116.95 139.498 117.348 139.1 117.348 138.609V113.481C117.348 112.99 116.95 112.592 116.459 112.592Z" fill="#1E223B" stroke="#1E223B" stroke-width="2" stroke-miterlimit="11"/>
<path d="M116.57 108.7H53.8626C51.6521 108.7 49.86 110.492 49.86 112.703V156.287C49.86 158.497 51.6521 160.289 53.8626 160.289H116.57C118.781 160.289 120.573 158.497 120.573 156.287V112.703C120.573 110.492 118.781 108.7 116.57 108.7Z" stroke="#1E223B" stroke-width="2" stroke-linecap="round" stroke-linejoin="round"/>
<path d="M116.57 108.7H53.8626C51.6521 108.7 49.86 110.492 49.86 112.703V157.621C49.86 159.831 51.6521 161.624 53.8626 161.624H116.57C118.781 161.624 120.573 159.831 120.573 157.621V112.703C120.573 110.492 118.781 108.7 116.57 108.7Z" stroke="#1E223B" stroke-width="2" stroke-linecap="round" stroke-linejoin="round"/>
<path d="M116.57 57.1113H53.8626C51.6521 57.1113 49.86 58.9033 49.86 61.1139V104.698C49.86 106.908 51.6521 108.7 53.8626 108.7H116.57C118.781 108.7 120.573 106.908 120.573 104.698V61.1139C120.573 58.9033 118.781 57.1113 116.57 57.1113Z" fill="#2F4584"/>
<path d="M116.57 57.1113H53.8626C51.6521 57.1113 49.86 58.9033 49.86 61.1139V104.698C49.86 106.908 51.6521 108.7 53.8626 108.7H116.57C118.781 108.7 120.573 106.908 120.573 104.698V61.1139C120.573 58.9033 118.781 57.1113 116.57 57.1113Z" stroke="#1E223B" stroke-width="2" stroke-linecap="round" stroke-linejoin="round"/>
<path d="M119.239 104.698V61.1139C119.239 59.6403 118.044 58.4455 116.57 58.4455H53.8629C52.3892 58.4455 51.1945 59.6403 51.1945 61.1139V104.698C51.1945 106.172 52.3892 107.366 53.8629 107.366H116.57C118.044 107.366 119.239 106.172 119.239 104.698Z" fill="white"/>
<path d="M113.902 102.029V63.7823H56.5313V102.029H113.902Z" fill="#FF5855" stroke="#1E223B" stroke-miterlimit="10"/>
<path d="M119.239 104.698V61.1139C119.239 59.6403 118.044 58.4455 116.57 58.4455H53.8629C52.3892 58.4455 51.1945 59.6403 51.1945 61.1139V104.698C51.1945 106.172 52.3892 107.366 53.8629 107.366H116.57C118.044 107.366 119.239 106.172 119.239 104.698Z" stroke="#1E223B" stroke-width="2" stroke-linecap="round" stroke-linejoin="round"/>
<path d="M113.902 102.029V63.7823H56.5313V102.029H113.902Z" stroke="#1E223B" stroke-width="2" stroke-linecap="round" stroke-linejoin="round"/>
<g opacity="0.1">
<path opacity="0.1" d="M93.8331 141.611H76.5997C76.0778 141.611 75.6546 142.034 75.6546 142.556V154.007C75.6546 154.53 76.0778 154.953 76.5997 154.953H93.8331C94.355 154.953 94.7781 154.53 94.7781 154.007V142.556C94.7781 142.034 94.355 141.611 93.8331 141.611Z" fill="#1E223B"/>
</g>
<path d="M93.8331 141.611H76.5997C76.0778 141.611 75.6546 142.034 75.6546 142.556V154.007C75.6546 154.53 76.0778 154.953 76.5997 154.953H93.8331C94.355 154.953 94.7781 154.53 94.7781 154.007V142.556C94.7781 142.034 94.355 141.611 93.8331 141.611Z" stroke="#1E223B" stroke-width="2" stroke-linecap="round" stroke-linejoin="round"/>
<path d="M93.7775 159.845H76.8776V161.624H93.7775V159.845Z" fill="#263C72"/>
<path d="M93.7775 159.845H76.8776V161.624H93.7775V159.845Z" stroke="#1E223B" stroke-width="2" stroke-linecap="round" stroke-linejoin="round"/>
<g style="mix-blend-mode:multiply" opacity="0.11">
<path d="M107.675 51.7745H65.8705C65.1335 51.7745 64.5363 52.372 64.5363 53.1087V100.25C64.5363 100.987 65.1335 101.585 65.8705 101.585H107.675C108.412 101.585 109.01 100.987 109.01 100.25V53.1087C109.01 52.372 108.412 51.7745 107.675 51.7745Z" fill="#161616"/>
<path d="M107.675 51.7745H65.8705C65.1335 51.7745 64.5363 52.372 64.5363 53.1087V100.25C64.5363 100.987 65.1335 101.585 65.8705 101.585H107.675C108.412 101.585 109.01 100.987 109.01 100.25V53.1087C109.01 52.372 108.412 51.7745 107.675 51.7745Z" stroke="#1E223B" stroke-miterlimit="10"/>
</g>
<path d="M106.452 50.885H64.6474C63.9105 50.885 63.3132 51.4825 63.3132 52.2192V99.3609C63.3132 100.098 63.9105 100.695 64.6474 100.695H106.452C107.189 100.695 107.787 100.098 107.787 99.3609V52.2192C107.787 51.4825 107.189 50.885 106.452 50.885Z" fill="white"/>
<path d="M63.3132 93.1346H107.787V99.3609C107.787 99.7149 107.646 100.054 107.396 100.304C107.145 100.555 106.806 100.695 106.452 100.695H64.6474C64.2936 100.695 63.9543 100.555 63.7039 100.304C63.4538 100.054 63.3132 99.7149 63.3132 99.3609V93.1346Z" fill="#EFEFEF"/>
<path d="M106.452 50.885H64.6474C63.9105 50.885 63.3132 51.4825 63.3132 52.2192V99.3609C63.3132 100.098 63.9105 100.695 64.6474 100.695H106.452C107.189 100.695 107.787 100.098 107.787 99.3609V52.2192C107.787 51.4825 107.189 50.885 106.452 50.885Z" stroke="#1E223B" stroke-width="2" stroke-linecap="round" stroke-linejoin="round"/>
<path d="M64.52 50.885H106.58C106.738 50.885 106.895 50.9164 107.042 50.9771C107.188 51.0376 107.321 51.1265 107.433 51.2386C107.545 51.3507 107.634 51.4839 107.695 51.6302C107.755 51.7767 107.787 51.9337 107.787 52.092V54.8878H63.3132V52.092C63.3132 51.9337 63.3444 51.7767 63.4051 51.6302C63.4656 51.4839 63.5545 51.3507 63.6666 51.2386C63.7786 51.1265 63.9116 51.0376 64.0582 50.9771C64.2045 50.9164 64.3615 50.885 64.52 50.885Z" fill="#363D56"/>
<path d="M64.52 50.885H106.58C106.738 50.885 106.895 50.9164 107.042 50.9771C107.188 51.0376 107.321 51.1265 107.433 51.2386C107.545 51.3507 107.634 51.4839 107.695 51.6302C107.755 51.7767 107.787 51.9337 107.787 52.092V54.8878H63.3132V52.092C63.3132 51.9337 63.3444 51.7767 63.4051 51.6302C63.4656 51.4839 63.5545 51.3507 63.6666 51.2386C63.7786 51.1265 63.9116 51.0376 64.0582 50.9771C64.2045 50.9164 64.3615 50.885 64.52 50.885Z" stroke="#1E223B" stroke-width="2" stroke-linecap="round" stroke-linejoin="round"/>
<path d="M107.787 54.8876H63.3132V56.6665H107.787V54.8876Z" fill="#424960"/>
<path d="M107.787 54.8876H63.3132V56.6665H107.787V54.8876Z" stroke="#1E223B" stroke-width="2" stroke-linecap="round" stroke-linejoin="round"/>
<path d="M65.7964 53.5534C66.1648 53.5534 66.4635 53.2548 66.4635 52.8863C66.4635 52.5179 66.1648 52.2192 65.7964 52.2192C65.4279 52.2192 65.1293 52.5179 65.1293 52.8863C65.1293 53.2548 65.4279 53.5534 65.7964 53.5534Z" fill="#F73E39"/>
<path d="M65.7964 53.5534C66.1648 53.5534 66.4635 53.2548 66.4635 52.8863C66.4635 52.5179 66.1648 52.2192 65.7964 52.2192C65.4279 52.2192 65.1293 52.5179 65.1293 52.8863C65.1293 53.2548 65.4279 53.5534 65.7964 53.5534Z" stroke="#1E223B" stroke-width="2" stroke-linecap="round" stroke-linejoin="round"/>
<path d="M68.5244 53.5534C68.8929 53.5534 69.1915 53.2548 69.1915 52.8863C69.1915 52.5179 68.8929 52.2192 68.5244 52.2192C68.1559 52.2192 67.8573 52.5179 67.8573 52.8863C67.8573 53.2548 68.1559 53.5534 68.5244 53.5534Z" fill="#383838"/>
<path d="M68.5244 53.5534C68.8929 53.5534 69.1915 53.2548 69.1915 52.8863C69.1915 52.5179 68.8929 52.2192 68.5244 52.2192C68.1559 52.2192 67.8573 52.5179 67.8573 52.8863C67.8573 53.2548 68.1559 53.5534 68.5244 53.5534Z" stroke="#1E223B" stroke-width="2" stroke-linecap="round" stroke-linejoin="round"/>
<path d="M71.0209 53.5534C71.3894 53.5534 71.688 53.2548 71.688 52.8863C71.688 52.5179 71.3894 52.2192 71.0209 52.2192C70.6525 52.2192 70.3538 52.5179 70.3538 52.8863C70.3538 53.2548 70.6525 53.5534 71.0209 53.5534Z" fill="#C6C6C6"/>
<path d="M71.0209 53.5534C71.3894 53.5534 71.688 53.2548 71.688 52.8863C71.688 52.5179 71.3894 52.2192 71.0209 52.2192C70.6525 52.2192 70.3538 52.5179 70.3538 52.8863C70.3538 53.2548 70.6525 53.5534 71.0209 53.5534Z" stroke="#1E223B" stroke-width="2" stroke-linecap="round" stroke-linejoin="round"/>
<path opacity="0.28" d="M88.5518 52.2192H74.7651C74.3967 52.2192 74.098 52.5179 74.098 52.8863C74.098 53.2548 74.3967 53.5534 74.7651 53.5534H88.5518C88.9203 53.5534 89.2189 53.2548 89.2189 52.8863C89.2189 52.5179 88.9203 52.2192 88.5518 52.2192Z" fill="#8289A3"/>
<path d="M11.3091 78.7642C13.8129 78.7642 15.8427 76.7345 15.8427 74.2306C15.8427 71.7268 13.8129 69.697 11.3091 69.697C8.80521 69.697 6.77545 71.7268 6.77545 74.2306C6.77545 76.7345 8.80521 78.7642 11.3091 78.7642Z" stroke="#1E223B" stroke-width="2" stroke-linecap="round" stroke-linejoin="round"/>
<path d="M11.3091 76.1736C12.3822 76.1736 13.2521 75.3037 13.2521 74.2306C13.2521 73.1575 12.3822 72.2876 11.3091 72.2876C10.2359 72.2876 9.36603 73.1575 9.36603 74.2306C9.36603 75.3037 10.2359 76.1736 11.3091 76.1736Z" stroke="#1E223B" stroke-width="2" stroke-linecap="round" stroke-linejoin="round"/>
<path d="M18.3681 67.7268L15.5636 69.3461L15.5678 69.3532C15.363 69.1744 15.1471 69.0086 14.9214 68.8569L14.929 68.8591L15.7671 65.7309C15.8338 65.4821 15.7989 65.2168 15.6699 64.9937C15.5411 64.7707 15.329 64.6077 15.0802 64.541L12.8905 63.9544C12.6417 63.8877 12.3766 63.9226 12.1534 64.0516C11.9304 64.1803 11.7676 64.3925 11.7009 64.6413L10.8628 67.7693H10.8674C10.5986 67.7878 10.3313 67.8229 10.0669 67.8747L10.0705 67.8725L8.45143 65.0682C8.38761 64.9577 8.30289 64.8608 8.20149 64.7832C8.10032 64.7053 7.98491 64.6484 7.86172 64.6155C7.73831 64.5824 7.60977 64.5739 7.48325 64.5906C7.35694 64.6073 7.23487 64.6486 7.12435 64.7124L5.1613 65.8465C5.05078 65.9103 4.95383 65.9951 4.87622 66.0962C4.79862 66.1974 4.74147 66.313 4.70856 66.4362C4.67543 66.5594 4.66698 66.6879 4.68366 66.8145C4.70033 66.941 4.74169 67.0629 4.80551 67.1734L6.42456 69.9779L6.42812 69.9759C6.25089 70.1791 6.08679 70.3935 5.93624 70.6172L5.93758 70.6127L2.80955 69.7744C2.56072 69.7077 2.29544 69.7428 2.07241 69.8716C1.84937 70.0005 1.6866 70.2127 1.61989 70.4615L1.03307 72.6509C0.966358 72.8998 1.00149 73.165 1.13024 73.3881C1.25921 73.6113 1.47135 73.7741 1.72018 73.8408L4.84798 74.6789L4.84999 74.6713C4.86844 74.9426 4.90402 75.2124 4.9565 75.4792L4.9525 75.4721L2.14801 77.0911C1.92498 77.2199 1.76198 77.4322 1.69527 77.6811C1.62856 77.9299 1.66348 78.195 1.79223 78.4182L2.92629 80.3813C2.99011 80.4918 3.07506 80.5887 3.17624 80.6663C3.27741 80.7442 3.39282 80.8011 3.51623 80.834C3.63942 80.8671 3.76795 80.8756 3.89448 80.8589C4.021 80.8422 4.14286 80.8009 4.25338 80.7371L7.05764 79.118L7.05141 79.1073C7.25866 79.2883 7.47747 79.4558 7.70606 79.6088L7.6925 79.6052L6.8544 82.733C6.78769 82.9818 6.8226 83.2471 6.95135 83.4702C7.08032 83.6934 7.29246 83.8562 7.54129 83.9229L9.73093 84.5095C9.97976 84.5762 10.2448 84.5413 10.4681 84.4123C10.6911 84.2836 10.8539 84.0714 10.9206 83.8226L11.7587 80.6946L11.7422 80.6901C12.0191 80.6719 12.2944 80.6359 12.5663 80.5819L12.5519 80.5903L14.1711 83.3946C14.235 83.5051 14.3199 83.602 14.4211 83.6796C14.5223 83.7575 14.6377 83.8144 14.7611 83.8473C14.8843 83.8804 15.0128 83.8889 15.1393 83.8722C15.2659 83.8555 15.3877 83.8142 15.4982 83.7503L17.4613 82.6163C17.6843 82.4875 17.8473 82.2754 17.914 82.0266C17.9807 81.7777 17.9458 81.5124 17.8171 81.2894L16.198 78.4849L16.1836 78.4932C16.3663 78.2846 16.5353 78.0642 16.6894 77.8336L16.685 77.8501L19.8128 78.6884C19.936 78.7213 20.0645 78.7298 20.191 78.7131C20.3176 78.6966 20.4397 78.655 20.5502 78.5912C20.6607 78.5274 20.7574 78.4425 20.835 78.3413C20.9128 78.2401 20.9698 78.1245 21.0027 78.0013L21.5893 75.8119C21.6224 75.6887 21.6309 75.5601 21.6142 75.4336C21.5975 75.3071 21.5562 75.185 21.4923 75.0747C21.4285 74.9642 21.3436 74.8673 21.2424 74.7896C21.1412 74.712 21.0256 74.6549 20.9024 74.622L17.7726 73.785L17.7688 73.7986C17.7508 73.5239 17.715 73.2509 17.6619 72.9809L17.6681 72.9918L20.4726 71.3728C20.6956 71.244 20.8586 71.0317 20.9253 70.7828C20.992 70.534 20.9571 70.2689 20.8283 70.0457L19.6943 68.0826C19.5655 67.8596 19.3534 67.697 19.1048 67.6303C18.8562 67.5636 18.5911 67.5983 18.3681 67.7268Z" stroke="#1E223B" stroke-width="2" stroke-linecap="round" stroke-linejoin="round"/>
<g opacity="0.32">
<path opacity="0.32" d="M72.1951 65.845C73.143 65.845 73.9117 65.0762 73.9117 64.1283C73.9117 63.1801 73.143 62.4116 72.1951 62.4116C71.2469 62.4116 70.4784 63.1801 70.4784 64.1283C70.4784 65.0762 71.2469 65.845 72.1951 65.845Z" stroke="#1E223B" stroke-linecap="round" stroke-linejoin="round"/>
<path opacity="0.32" d="M72.195 64.8639C72.6013 64.8639 72.9309 64.5345 72.9309 64.1281C72.9309 63.7218 72.6013 63.3922 72.195 63.3922C71.7886 63.3922 71.4592 63.7218 71.4592 64.1281C71.4592 64.5345 71.7886 64.8639 72.195 64.8639Z" stroke="#1E223B" stroke-linecap="round" stroke-linejoin="round"/>
<path opacity="0.32" d="M75.8267 64.2768L74.6422 63.9595V63.9626C74.6353 63.8599 74.6219 63.7576 74.6021 63.6566L74.6035 63.6591L75.6655 63.046C75.7498 62.9969 75.8111 62.9166 75.8363 62.8223C75.8612 62.728 75.8478 62.6277 75.7989 62.5435L75.3697 61.8003C75.3455 61.7583 75.3135 61.7216 75.2752 61.6923C75.2368 61.6629 75.1932 61.6413 75.1465 61.6287C75.0998 61.6162 75.0511 61.6131 75.0033 61.6193C74.9555 61.6255 74.9092 61.6413 74.8674 61.6656L73.8054 62.2786V62.2802C73.7284 62.213 73.6473 62.1508 73.5626 62.0939H73.5641L73.8814 60.9093C73.9068 60.815 73.8934 60.7145 73.8447 60.63C73.796 60.5457 73.7158 60.4839 73.6215 60.4588L72.7923 60.2364C72.698 60.2111 72.5977 60.2244 72.5132 60.2731C72.4287 60.322 72.3671 60.4023 72.3418 60.4966L72.0245 61.6809H72.026C71.9242 61.6878 71.8228 61.7012 71.7225 61.7209H71.724L71.111 60.6591C71.062 60.5746 70.9818 60.5128 70.8875 60.4877C70.7934 60.4623 70.6929 60.4755 70.6084 60.5244L69.8651 60.9536C69.7806 61.0022 69.719 61.0827 69.6938 61.1768C69.6685 61.2711 69.6818 61.3716 69.7305 61.4561L70.3436 62.5181L70.346 62.5166C70.2784 62.594 70.2157 62.6758 70.1584 62.7612V62.7581L68.974 62.4407C68.9273 62.4281 68.8786 62.425 68.8308 62.4312C68.7828 62.4376 68.7368 62.4532 68.695 62.4774C68.6529 62.5017 68.6165 62.5337 68.5869 62.5722C68.5575 62.6104 68.536 62.6542 68.5235 62.7009L68.3011 63.5299C68.2758 63.6242 68.2891 63.7245 68.3378 63.809C68.3868 63.8935 68.467 63.9553 68.5613 63.9806L69.7456 64.2979L69.747 64.2933C69.7539 64.3971 69.7677 64.5005 69.7879 64.6028L69.7852 64.5984L68.7232 65.2114C68.6814 65.2354 68.6447 65.2677 68.6154 65.3059C68.5858 65.3444 68.5642 65.388 68.5518 65.4347C68.5393 65.4814 68.5362 65.5301 68.5424 65.5779C68.5489 65.6259 68.5644 65.6719 68.5887 65.714L69.0178 66.4571C69.0419 66.4989 69.0741 66.5356 69.1123 66.565C69.1508 66.5943 69.1946 66.6161 69.2411 66.6286C69.2878 66.641 69.3365 66.6441 69.3845 66.6379C69.4323 66.6317 69.4786 66.6159 69.5204 66.5919L70.5822 65.9788L70.5791 65.9733C70.658 66.0424 70.7414 66.1062 70.8286 66.1647L70.8226 66.1632L70.5052 67.3477C70.4928 67.3942 70.4895 67.4429 70.4959 67.4909C70.5021 67.5387 70.5179 67.585 70.5419 67.6268C70.5662 67.6686 70.5984 67.7053 70.6367 67.7346C70.6749 67.764 70.7187 67.7855 70.7654 67.7982L71.5944 68.0206C71.6887 68.0457 71.789 68.0324 71.8735 67.9837C71.958 67.935 72.0196 67.8545 72.0449 67.7604L72.3636 66.5759L72.3576 66.5743C72.4621 66.5672 72.5661 66.5534 72.6689 66.5332L72.6633 66.5365L73.2764 67.5983C73.3251 67.6828 73.4056 67.7444 73.4996 67.7695C73.5939 67.7949 73.6944 67.7818 73.7789 67.7331L74.5223 67.3039C74.6068 67.255 74.6684 67.1747 74.6935 67.0804C74.7189 66.9861 74.7055 66.8858 74.6568 66.8013L74.0438 65.7393L74.0393 65.742C74.1078 65.6635 74.1714 65.5808 74.2294 65.4945V65.4989L75.4138 65.8165C75.508 65.8416 75.6083 65.8283 75.6928 65.7796C75.7773 65.7309 75.8389 65.6504 75.8643 65.5563L76.0866 64.7271C76.1118 64.6328 76.0987 64.5325 76.05 64.448C76.001 64.3635 75.9208 64.3019 75.8267 64.2768Z" stroke="#1E223B" stroke-linecap="round" stroke-linejoin="round"/>
</g>
<g opacity="0.49">
<path opacity="0.49" d="M156.745 31.9814C159.09 31.9814 160.991 30.0802 160.991 27.7351C160.991 25.3898 159.09 23.4888 156.745 23.4888C154.4 23.4888 152.499 25.3898 152.499 27.7351C152.499 30.0802 154.4 31.9814 156.745 31.9814Z" fill="white"/>
<path opacity="0.49" d="M156.745 29.555C157.75 29.555 158.565 28.7402 158.565 27.7351C158.565 26.73 157.75 25.9153 156.745 25.9153C155.74 25.9153 154.925 26.73 154.925 27.7351C154.925 28.7402 155.74 29.555 156.745 29.555Z" fill="white"/>
<path opacity="0.49" d="M163.357 21.6436L160.73 23.1601L160.734 23.1668C160.542 22.9992 160.34 22.8439 160.129 22.7021L160.136 22.7041L160.921 19.7742C160.983 19.5409 160.951 19.2928 160.83 19.0837C160.709 18.8747 160.51 18.7224 160.277 18.6599L158.227 18.1104C158.111 18.0793 157.991 18.0715 157.872 18.0871C157.754 18.1026 157.639 18.1413 157.536 18.2012C157.433 18.261 157.342 18.3404 157.269 18.4353C157.196 18.53 157.143 18.6383 157.112 18.7537L156.327 21.6834L156.332 21.6847C156.08 21.7016 155.829 21.7346 155.581 21.7833L155.584 21.7813L154.068 19.1547C153.947 18.9454 153.748 18.7929 153.515 18.7304C153.282 18.6679 153.034 18.7004 152.825 18.8211L150.986 19.8827C150.882 19.9423 150.791 20.0219 150.719 20.1166C150.646 20.2113 150.592 20.3196 150.562 20.435C150.531 20.5505 150.523 20.6708 150.538 20.7893C150.554 20.9078 150.592 21.0221 150.652 21.1257L152.169 23.7523L152.172 23.7503C152.006 23.9404 151.852 24.141 151.711 24.3507V24.3465L148.782 23.5613C148.549 23.4988 148.3 23.5315 148.091 23.6522C147.882 23.7728 147.73 23.9716 147.667 24.2048L147.118 26.2557C147.055 26.4888 147.088 26.7371 147.209 26.9459C147.329 27.155 147.528 27.3075 147.761 27.37L150.691 28.1549L150.693 28.1481C150.71 28.4018 150.743 28.6544 150.793 28.9041L150.789 28.8974L148.162 30.414C148.059 30.4736 147.968 30.5529 147.895 30.6479C147.822 30.7426 147.769 30.8507 147.738 30.9661C147.707 31.0815 147.699 31.202 147.714 31.3206C147.73 31.4389 147.769 31.5531 147.828 31.6568L148.89 33.4955C149.011 33.7045 149.209 33.8571 149.442 33.9196C149.676 33.9821 149.924 33.9496 150.133 33.8291L152.76 32.3125L152.754 32.3023C152.948 32.4717 153.153 32.6287 153.367 32.7722L153.354 32.7686L152.569 35.6985C152.538 35.8139 152.53 35.9342 152.546 36.0527C152.562 36.171 152.6 36.2853 152.66 36.3887C152.72 36.4924 152.799 36.5831 152.894 36.6558C152.989 36.7285 153.097 36.7819 153.213 36.8128L155.264 37.3623C155.379 37.3932 155.499 37.4009 155.618 37.3854C155.736 37.3698 155.851 37.3311 155.954 37.2713C156.058 37.2115 156.148 37.1321 156.221 37.0374C156.294 36.9424 156.347 36.8344 156.378 36.7189L157.163 33.7893L157.148 33.785C157.407 33.7679 157.664 33.7341 157.919 33.6836L157.906 33.6914L159.422 36.318C159.482 36.4214 159.562 36.5121 159.656 36.5851C159.751 36.6578 159.859 36.7112 159.975 36.7423C160.09 36.7732 160.211 36.781 160.329 36.7654C160.448 36.7499 160.562 36.7112 160.665 36.6516L162.504 35.59C162.608 35.5302 162.698 35.4508 162.771 35.3558C162.844 35.2611 162.897 35.153 162.928 35.0374C162.959 34.922 162.967 34.8017 162.952 34.6832C162.936 34.5647 162.897 34.4504 162.838 34.347L161.321 31.7204L161.308 31.7282C161.479 31.5325 161.637 31.3263 161.781 31.1104L161.777 31.1258L164.707 31.9109C164.94 31.9732 165.188 31.9405 165.397 31.8198C165.606 31.6992 165.759 31.5005 165.821 31.2674L166.371 29.2167C166.433 28.9835 166.401 28.7351 166.28 28.5261C166.159 28.317 165.96 28.1647 165.727 28.1022L162.798 27.3173L162.794 27.33C162.777 27.0727 162.744 26.817 162.694 26.5641L162.7 26.5741L165.327 25.0576C165.43 24.9978 165.521 24.9184 165.594 24.8237C165.666 24.7287 165.72 24.6207 165.751 24.5052C165.782 24.3898 165.79 24.2693 165.774 24.151C165.759 24.0325 165.72 23.9182 165.66 23.8148L164.601 21.9767C164.541 21.8731 164.462 21.7821 164.367 21.7094C164.272 21.6365 164.164 21.5831 164.048 21.5522C163.932 21.5213 163.812 21.5133 163.693 21.5291C163.575 21.5447 163.461 21.5836 163.357 21.6436Z" fill="white"/>
</g>
<path d="M143.872 44.8558C146.217 44.8558 148.118 42.9547 148.118 40.6094C148.118 38.2644 146.217 36.3631 143.872 36.3631C141.527 36.3631 139.626 38.2644 139.626 40.6094C139.626 42.9547 141.527 44.8558 143.872 44.8558Z" stroke="#1E223B" stroke-width="2" stroke-linecap="round" stroke-linejoin="round"/>
<path d="M143.872 42.4293C144.877 42.4293 145.692 41.6145 145.692 40.6094C145.692 39.6043 144.877 38.7896 143.872 38.7896C142.867 38.7896 142.052 39.6043 142.052 40.6094C142.052 41.6145 142.867 42.4293 143.872 42.4293Z" stroke="#1E223B" stroke-width="2" stroke-linecap="round" stroke-linejoin="round"/>
<path d="M152.855 40.9775L149.925 40.1925L149.923 40.1998C149.906 39.9459 149.873 39.6935 149.824 39.4438L149.827 39.45L152.454 37.9335C152.557 37.8737 152.648 37.7943 152.721 37.6996C152.794 37.6048 152.847 37.4965 152.878 37.3811C152.909 37.2657 152.917 37.1454 152.902 37.0269C152.886 36.9084 152.847 36.7941 152.788 36.6907L151.727 34.8513C151.606 34.6422 151.407 34.4895 151.174 34.427C150.941 34.3645 150.693 34.397 150.484 34.5177L147.857 36.0343L147.859 36.0383C147.669 35.8719 147.468 35.7178 147.259 35.5771H147.262L148.047 32.6472C148.11 32.4139 148.077 32.1657 147.956 31.9567C147.836 31.7477 147.637 31.5954 147.404 31.5329L145.353 30.9834C145.238 30.9525 145.117 30.9445 144.999 30.9601C144.88 30.9756 144.766 31.0146 144.663 31.0742C144.559 31.134 144.468 31.2136 144.396 31.3083C144.323 31.403 144.27 31.5113 144.239 31.6267L143.454 34.5564H143.457C143.205 34.5735 142.955 34.6067 142.707 34.6554L142.711 34.6531L141.194 32.0265C141.073 31.8175 140.875 31.6648 140.642 31.6023C140.409 31.5398 140.16 31.5725 139.951 31.693L138.112 32.7546C138.009 32.8142 137.918 32.8938 137.845 32.9885C137.772 33.0832 137.719 33.1915 137.688 33.3069C137.657 33.4223 137.649 33.5429 137.665 33.6612C137.68 33.7797 137.719 33.894 137.779 33.9976L139.295 36.6242L139.302 36.6206C139.134 36.8125 138.979 37.0147 138.837 37.2261L138.839 37.2188L135.909 36.4336C135.676 36.3711 135.428 36.4038 135.219 36.5246C135.01 36.6453 134.857 36.8439 134.795 37.0772L134.246 39.1278C134.183 39.3609 134.216 39.6092 134.336 39.8183C134.457 40.0273 134.656 40.1798 134.889 40.2423L137.819 41.0273L137.822 41.0162C137.839 41.2732 137.873 41.5289 137.923 41.7818L137.917 41.7704L135.29 43.287C135.186 43.3466 135.095 43.4262 135.023 43.5209C134.95 43.6156 134.896 43.7237 134.865 43.8391C134.835 43.9547 134.827 44.075 134.842 44.1935C134.858 44.3121 134.896 44.4261 134.956 44.5298L136.018 46.3685C136.138 46.5775 136.337 46.7301 136.57 46.7926C136.803 46.8553 137.052 46.8226 137.261 46.7021L139.887 45.1855L139.88 45.1717C140.075 45.3427 140.281 45.5011 140.497 45.6456L140.482 45.6416L139.697 48.5713C139.666 48.6867 139.658 48.807 139.674 48.9255C139.689 49.044 139.728 49.1581 139.788 49.2617C139.848 49.3651 139.927 49.4559 140.022 49.5286C140.117 49.6015 140.225 49.6549 140.34 49.6858L142.391 50.2352C142.507 50.2662 142.627 50.2742 142.745 50.2586C142.864 50.243 142.978 50.2041 143.082 50.1445C143.185 50.0847 143.276 50.0051 143.349 49.9104C143.421 49.8154 143.475 49.7073 143.506 49.5919L144.291 46.6623L144.276 46.6583C144.535 46.6409 144.793 46.6069 145.047 46.5564L145.034 46.5644L146.55 49.191C146.61 49.2944 146.689 49.3854 146.784 49.4581C146.879 49.531 146.987 49.5844 147.103 49.6153C147.218 49.6462 147.338 49.6542 147.457 49.6386C147.575 49.6231 147.69 49.5844 147.793 49.5246L149.632 48.463C149.735 48.4032 149.826 48.3238 149.899 48.2291C149.972 48.1341 150.025 48.026 150.056 47.9106C150.087 47.795 150.095 47.6747 150.079 47.5562C150.064 47.4377 150.025 47.3234 149.965 47.22L148.449 44.5934L148.437 44.6C148.607 44.4061 148.764 44.2013 148.908 43.9874L148.905 43.9988L151.835 44.7839C152.068 44.8462 152.316 44.8135 152.525 44.693C152.734 44.5722 152.887 44.3734 152.949 44.1404L153.499 42.0897C153.56 41.8567 153.527 41.609 153.407 41.4004C153.286 41.192 153.087 41.0397 152.855 40.9775Z" stroke="#1E223B" stroke-width="2" stroke-linecap="round" stroke-linejoin="round"/>
<path d="M102.332 28.1038H96.5058L90.4263 32.1569V28.1038H86.12C85.5825 28.1038 85.0671 27.8903 84.6871 27.5103C84.307 27.1303 84.0936 26.6148 84.0936 26.0774V14.9317C84.0936 14.3945 84.307 13.879 84.6871 13.499C85.0671 13.119 85.5825 12.9053 86.12 12.9053H102.332C102.598 12.9053 102.862 12.9578 103.107 13.0596C103.353 13.1614 103.577 13.3107 103.765 13.4988C103.953 13.6869 104.102 13.9104 104.204 14.1563C104.306 14.4023 104.358 14.6658 104.358 14.9317V26.0774C104.358 26.3436 104.306 26.6071 104.204 26.853C104.102 27.0989 103.953 27.3222 103.765 27.5105C103.577 27.6987 103.353 27.8479 103.107 27.9497C102.862 28.0515 102.598 28.104 102.332 28.1038Z" fill="white"/>
<path d="M102.332 28.1038H96.5058L90.4263 32.1569V28.1038H86.12C85.5825 28.1038 85.0671 27.8903 84.6871 27.5103C84.307 27.1303 84.0936 26.6148 84.0936 26.0774V14.9317C84.0936 14.3945 84.307 13.879 84.6871 13.499C85.0671 13.119 85.5825 12.9053 86.12 12.9053H102.332C102.598 12.9053 102.862 12.9578 103.107 13.0596C103.353 13.1614 103.577 13.3107 103.765 13.4988C103.953 13.6869 104.102 13.9104 104.204 14.1563C104.306 14.4023 104.358 14.6658 104.358 14.9317V26.0774C104.358 26.3436 104.306 26.6071 104.204 26.853C104.102 27.0989 103.953 27.3222 103.765 27.5105C103.577 27.6987 103.353 27.8479 103.107 27.9497C102.862 28.0516 102.598 28.104 102.332 28.1038Z" stroke="#1E223B" stroke-width="2" stroke-linecap="round" stroke-linejoin="round"/>
<path opacity="0.5" d="M102.539 10.8413H106.311L110.247 13.4652V10.8413H113.034C113.382 10.8413 113.716 10.7032 113.962 10.457C114.208 10.2111 114.346 9.87732 114.346 9.52931V2.31196C114.346 1.96418 114.208 1.63041 113.962 1.38425C113.716 1.13831 113.382 1 113.034 1H102.539C102.191 1 101.857 1.13831 101.611 1.38425C101.365 1.63041 101.227 1.96418 101.227 2.31196V9.52887C101.227 9.7012 101.26 9.87198 101.327 10.0312C101.392 10.1904 101.489 10.3352 101.611 10.457C101.733 10.5789 101.877 10.6754 102.037 10.7414C102.196 10.8075 102.366 10.8413 102.539 10.8413Z" fill="white"/>
<path d="M102.539 10.8413H106.311L110.247 13.4652V10.8413H113.034C113.382 10.8413 113.716 10.7032 113.962 10.457C114.208 10.2111 114.346 9.87732 114.346 9.52931V2.31196C114.346 1.96418 114.208 1.63041 113.962 1.38425C113.716 1.13831 113.382 1 113.034 1H102.539C102.191 1 101.857 1.13831 101.611 1.38425C101.365 1.63041 101.227 1.96418 101.227 2.31196V9.52887C101.227 9.7012 101.26 9.87198 101.327 10.0312C101.392 10.1904 101.489 10.3352 101.611 10.457C101.733 10.5789 101.877 10.6754 102.037 10.7414C102.196 10.8075 102.366 10.8413 102.539 10.8413Z" stroke="#1E223B" stroke-width="2" stroke-linecap="round" stroke-linejoin="round"/>
<path d="M116.228 152.336C116.228 152.918 116.056 153.487 115.733 153.971C115.409 154.454 114.95 154.832 114.412 155.054C113.874 155.277 113.283 155.335 112.712 155.222C112.141 155.108 111.617 154.828 111.205 154.416C110.794 154.005 110.514 153.48 110.4 152.91C110.287 152.339 110.345 151.747 110.568 151.21C110.79 150.672 111.168 150.213 111.651 149.889C112.135 149.566 112.704 149.393 113.286 149.393C113.673 149.393 114.055 149.47 114.412 149.618C114.769 149.765 115.093 149.982 115.367 150.255C115.64 150.529 115.857 150.853 116.004 151.21C116.152 151.567 116.228 151.95 116.228 152.336Z" fill="#DD4814"/>
<path d="M111.285 151.942C111.208 151.942 111.132 151.965 111.067 152.008C111.002 152.052 110.952 152.113 110.922 152.184C110.892 152.256 110.885 152.335 110.9 152.412C110.915 152.488 110.952 152.558 111.007 152.613C111.062 152.668 111.132 152.705 111.208 152.721C111.284 152.736 111.363 152.728 111.435 152.698C111.507 152.669 111.568 152.619 111.611 152.554C111.655 152.49 111.678 152.414 111.678 152.336C111.678 152.284 111.668 152.233 111.648 152.185C111.629 152.138 111.6 152.094 111.563 152.058C111.527 152.021 111.483 151.992 111.436 151.972C111.388 151.953 111.337 151.942 111.285 151.942ZM114.09 153.728C114.023 153.767 113.969 153.824 113.934 153.894C113.9 153.964 113.887 154.042 113.897 154.119C113.907 154.196 113.94 154.268 113.991 154.327C114.042 154.385 114.11 154.427 114.185 154.447C114.26 154.467 114.339 154.465 114.413 154.44C114.486 154.415 114.551 154.369 114.598 154.307C114.645 154.245 114.673 154.171 114.678 154.094C114.683 154.016 114.665 153.939 114.627 153.872C114.574 153.782 114.488 153.716 114.388 153.689C114.287 153.662 114.18 153.676 114.09 153.728V153.728ZM112.139 152.335C112.138 152.151 112.183 151.969 112.268 151.806C112.353 151.643 112.476 151.502 112.627 151.396L112.339 150.915C111.99 151.148 111.739 151.501 111.634 151.907C111.697 151.959 111.748 152.024 111.784 152.098C111.819 152.172 111.837 152.253 111.837 152.335C111.837 152.417 111.819 152.498 111.784 152.572C111.748 152.646 111.697 152.711 111.634 152.763C111.739 153.169 111.99 153.522 112.339 153.755L112.627 153.274C112.476 153.168 112.353 153.028 112.268 152.864C112.183 152.701 112.139 152.52 112.139 152.336V152.335ZM113.286 151.188C113.573 151.188 113.849 151.295 114.06 151.488C114.272 151.682 114.403 151.947 114.429 152.233L114.989 152.225C114.962 151.806 114.782 151.411 114.482 151.118C114.405 151.146 114.323 151.158 114.242 151.151C114.16 151.145 114.081 151.12 114.011 151.079C113.94 151.038 113.879 150.982 113.832 150.915C113.786 150.847 113.755 150.771 113.742 150.69C113.337 150.578 112.906 150.619 112.53 150.805L112.803 151.294C112.954 151.224 113.119 151.188 113.286 151.188V151.188ZM113.286 153.483C113.119 153.483 112.954 153.446 112.803 153.376L112.53 153.865C112.906 154.051 113.337 154.092 113.742 153.98C113.755 153.899 113.786 153.822 113.832 153.755C113.879 153.687 113.94 153.631 114.011 153.591C114.081 153.55 114.16 153.525 114.242 153.518C114.323 153.512 114.405 153.523 114.482 153.552C114.782 153.258 114.962 152.864 114.989 152.445L114.429 152.437C114.404 152.723 114.272 152.989 114.061 153.182C113.849 153.376 113.573 153.483 113.286 153.483V153.483ZM114.09 150.943C114.158 150.981 114.235 150.999 114.312 150.994C114.39 150.989 114.464 150.961 114.526 150.914C114.587 150.867 114.633 150.802 114.658 150.728C114.683 150.655 114.686 150.576 114.666 150.501C114.646 150.426 114.604 150.358 114.545 150.307C114.487 150.256 114.415 150.223 114.338 150.213C114.261 150.203 114.182 150.216 114.113 150.25C114.043 150.285 113.985 150.339 113.946 150.406C113.92 150.451 113.904 150.5 113.897 150.551C113.89 150.603 113.893 150.655 113.907 150.704C113.92 150.754 113.943 150.801 113.975 150.842C114.006 150.883 114.045 150.917 114.09 150.943V150.943Z" fill="white"/>
<path d="M14.6443 125.827L20.8833 122.201L20.8642 128.984L14.625 132.61L14.6443 125.827Z" fill="#777BB4"/>
<path d="M14.6443 125.827L20.8833 122.201L20.8642 128.984L14.625 132.61L14.6443 125.827Z" stroke="#1E223B" stroke-width="2" stroke-linecap="round" stroke-linejoin="round"/>
<path opacity="0.88" d="M8.74164 122.419L14.9806 118.794L20.8833 122.202L14.6444 125.827L8.74164 122.419Z" fill="#FF5855" stroke="#1E223B" stroke-miterlimit="10"/>
<path d="M14.6444 125.827L14.625 132.61L8.72229 129.202L8.74164 122.419L14.6444 125.827Z" fill="#0270BB"/>
<path d="M8.74164 122.419L14.9806 118.794L20.8833 122.202L14.6444 125.827L8.74164 122.419Z" stroke="#1E223B" stroke-width="2" stroke-linecap="round" stroke-linejoin="round"/>
<path d="M14.6444 125.827L14.625 132.61L8.72229 129.202L8.74164 122.419L14.6444 125.827Z" stroke="#1E223B" stroke-width="2" stroke-linecap="round" stroke-linejoin="round"/>
<path opacity="0.59" d="M10.0665 116.261C10.8034 116.261 11.4007 115.663 11.4007 114.927C11.4007 114.19 10.8034 113.592 10.0665 113.592C9.32958 113.592 8.7323 114.19 8.7323 114.927C8.7323 115.663 9.32958 116.261 10.0665 116.261Z" fill="white"/>
<path d="M10.0665 116.261C10.8034 116.261 11.4007 115.663 11.4007 114.927C11.4007 114.19 10.8034 113.592 10.0665 113.592C9.32958 113.592 8.7323 114.19 8.7323 114.927C8.7323 115.663 9.32958 116.261 10.0665 116.261Z" stroke="#1E223B" stroke-width="2" stroke-linecap="round" stroke-linejoin="round"/>
<path opacity="0.59" d="M14.625 116.261C15.3619 116.261 15.9592 115.663 15.9592 114.927C15.9592 114.19 15.3619 113.592 14.625 113.592C13.888 113.592 13.2908 114.19 13.2908 114.927C13.2908 115.663 13.888 116.261 14.625 116.261Z" fill="white"/>
<path d="M14.625 116.261C15.3619 116.261 15.9592 115.663 15.9592 114.927C15.9592 114.19 15.3619 113.592 14.625 113.592C13.888 113.592 13.2908 114.19 13.2908 114.927C13.2908 115.663 13.888 116.261 14.625 116.261Z" stroke="#1E223B" stroke-width="2" stroke-linecap="round" stroke-linejoin="round"/>
<path opacity="0.59" d="M19.1835 116.261C19.9204 116.261 20.5177 115.663 20.5177 114.927C20.5177 114.19 19.9204 113.592 19.1835 113.592C18.4466 113.592 17.8493 114.19 17.8493 114.927C17.8493 115.663 18.4466 116.261 19.1835 116.261Z" fill="white"/>
<path opacity="0.32" d="M171.217 96.4152C176.067 96.4152 180 92.4827 180 87.6317C180 82.7808 176.067 78.8483 171.217 78.8483C166.366 78.8483 162.433 82.7808 162.433 87.6317C162.433 92.4827 166.366 96.4152 171.217 96.4152Z" fill="white"/>
<path d="M19.1835 116.261C19.9204 116.261 20.5177 115.663 20.5177 114.927C20.5177 114.19 19.9204 113.592 19.1835 113.592C18.4466 113.592 17.8493 114.19 17.8493 114.927C17.8493 115.663 18.4466 116.261 19.1835 116.261Z" stroke="#1E223B" stroke-width="2" stroke-linecap="round" stroke-linejoin="round"/>
<path opacity="0.12" d="M171.337 87.7271L166.592 84.9698L166.607 90.1283L171.352 92.8856L171.337 87.7271Z" fill="#0270BB"/>
<path d="M171.337 87.7271L166.592 84.9698L166.607 90.1283L171.352 92.8856L171.337 87.7271Z" stroke="#1E223B" stroke-width="2" stroke-linecap="round" stroke-linejoin="round"/>
<path opacity="0.47" d="M175.826 85.1355L171.081 82.3779L166.592 84.9698L171.337 87.7271L175.826 85.1355Z" fill="#0270BB"/>
<path d="M175.826 85.1355L171.081 82.3779L166.592 84.9698L171.337 87.7271L175.826 85.1355Z" stroke="#1E223B" stroke-width="2" stroke-linecap="round" stroke-linejoin="round"/>
<path d="M171.337 87.7271L171.352 92.8856L175.841 90.2939L175.826 85.1355L171.337 87.7271Z" fill="white" stroke="#1E223B" stroke-width="2" stroke-linecap="round" stroke-linejoin="round"/>
<path d="M171.337 87.7271L171.352 92.8856L175.841 90.2939L175.826 85.1355L171.337 87.7271Z" stroke="#1E223B" stroke-width="2" stroke-linecap="round" stroke-linejoin="round"/>
<path d="M171.217 96.4152C176.067 96.4152 180 92.4827 180 87.6317C180 82.7808 176.067 78.8483 171.217 78.8483C166.366 78.8483 162.433 82.7808 162.433 87.6317C162.433 92.4827 166.366 96.4152 171.217 96.4152Z" stroke="#1E223B" stroke-width="2" stroke-linecap="round" stroke-linejoin="round"/>
<path d="M100.462 95.1917C100.525 95.2823 100.563 95.2749 100.612 95.2542C100.66 95.2336 103.162 94.389 103.238 94.3612C103.315 94.3334 103.291 94.3092 103.266 94.2709C103.242 94.2327 102.408 93.1002 102.366 93.0341C102.325 92.9681 102.304 92.9819 102.238 93.0028L99.5859 93.6923C99.5859 93.6923 100.4 95.1008 100.462 95.1911V95.1917Z" fill="#F35045"/>
<path d="M103.45 94.0381V92.7121L102.626 92.9318C102.85 93.2325 103.202 93.703 103.45 94.0381Z" fill="#F35045"/>
<path d="M102.623 91.2992C102.582 91.3083 101.677 91.472 101.623 91.4794C101.568 91.4867 101.585 91.5185 101.608 91.5501L102.404 92.6428C102.404 92.6428 103.378 92.4011 103.437 92.3882L103.451 92.3848V92.2401C103.273 92.0157 102.792 91.4046 102.75 91.3475C102.7 91.2788 102.665 91.2899 102.624 91.2992H102.623Z" fill="#F35045"/>
<path d="M96.9292 89.5828C97.1252 89.5739 97.1429 89.6186 97.229 89.7462L99.3922 93.3624L102.112 92.7108C101.961 92.4971 101.277 91.5274 101.211 91.4349C101.137 91.3308 101.213 91.2823 101.333 91.2621C101.454 91.2419 102.495 91.0669 102.584 91.054C102.673 91.0411 102.744 91.0095 102.889 91.1841C102.963 91.273 103.214 91.5863 103.45 91.8798V90.1883C103.45 89.7905 103.291 89.4091 103.01 89.1278C102.729 88.8463 102.347 88.688 101.949 88.6873H96.9461C96.7487 88.6844 96.5528 88.722 96.3704 88.7978C96.1879 88.8734 96.0231 88.986 95.8857 89.1278C95.724 89.2859 95.6006 89.4789 95.5255 89.6922C96.0158 89.6519 96.7929 89.589 96.9292 89.5828Z" fill="#F35045"/>
<path d="M100.708 95.6783C100.478 95.7479 100.375 95.7824 100.226 95.5738C100.115 95.4181 99.5092 94.3285 99.2125 93.7906C98.6511 93.9378 97.6235 94.206 97.3273 94.2772C97.2381 94.3083 97.1405 94.3036 97.0547 94.2645C96.9688 94.2251 96.9017 94.1542 96.867 94.0664C96.8336 93.9914 95.9858 92.1633 95.4452 90.9906V95.1915C95.4459 95.5894 95.6042 95.9707 95.8857 96.252C96.167 96.5333 96.5484 96.6918 96.9462 96.6925H101.949C102.347 96.6918 102.729 96.5335 103.01 96.2522C103.291 95.9707 103.45 95.5894 103.45 95.1915V94.6981C102.836 94.9227 100.862 95.6321 100.708 95.6783Z" fill="#F35045"/>
<path d="M97.3353 93.856C97.4165 93.8373 98.9397 93.4729 98.9724 93.466C99.0051 93.4591 99.0258 93.4404 98.9909 93.3799L96.9604 89.875C96.942 89.8434 96.9473 89.8327 96.8973 89.8354C96.8528 89.8378 95.7234 89.9386 95.4619 89.9604C95.4541 90.0157 95.4495 90.0713 95.4474 90.1271C95.713 90.6704 97.2362 93.8117 97.2446 93.8373C97.2531 93.8629 97.254 93.8747 97.3353 93.856Z" fill="#F35045"/>
<path opacity="0.32" d="M77.2111 63.3375H98.1136" stroke="#1E223B" stroke-width="2" stroke-linecap="round" stroke-linejoin="round"/>
<path opacity="0.32" d="M77.2111 65.1165H90.5531" stroke="#1E223B" stroke-width="2" stroke-linecap="round" stroke-linejoin="round"/>
<path opacity="0.15" d="M70.9849 73.7888H91.8873" stroke="#1E223B" stroke-width="2" stroke-linecap="round" stroke-linejoin="round"/>
<path opacity="0.32" d="M70.9849 75.716H84.3269" stroke="#1E223B" stroke-width="2" stroke-linecap="round" stroke-linejoin="round"/>
<path opacity="0.32" d="M81.6585 77.6433H89.4413" stroke="#1E223B" stroke-width="2" stroke-linecap="round" stroke-linejoin="round"/>
<path opacity="0.26" d="M70.9849 77.6433H80.3243" stroke="#1E223B" stroke-width="2" stroke-linecap="round" stroke-linejoin="round"/>
<path opacity="0.15" d="M70.9849 79.5703H78.9901" stroke="#1E223B" stroke-width="2" stroke-linecap="round" stroke-linejoin="round"/>
<path d="M71.8743 83.2024C71.6384 83.2024 71.4123 83.2963 71.2455 83.463C71.0785 83.6298 70.9849 83.856 70.9849 84.0919C70.9849 84.3278 71.0785 84.5542 71.2455 84.721C71.4123 84.8877 71.6384 84.9814 71.8743 84.9814H89.812V83.2024H71.8743Z" fill="#4AD3A5" stroke="#1E223B" stroke-miterlimit="10"/>
<path d="M99.8925 83.2024H71.8743C71.3831 83.2024 70.9849 83.6007 70.9849 84.0919C70.9849 84.5831 71.3831 84.9814 71.8743 84.9814H99.8925C100.384 84.9814 100.782 84.5831 100.782 84.0919C100.782 83.6007 100.384 83.2024 99.8925 83.2024Z" stroke="#1E223B" stroke-linecap="round" stroke-linejoin="round"/>
<path d="M115.625 106.477H54.8078C54.5314 106.477 54.3074 106.701 54.3074 106.977V108.867C54.3074 109.143 54.5314 109.367 54.8078 109.367H115.625C115.901 109.367 116.125 109.143 116.125 108.867V106.977C116.125 106.701 115.901 106.477 115.625 106.477Z" fill="#263C72"/>
<path d="M116.125 106.477H54.3074V109.367H116.125V106.477Z" stroke="#1E223B" stroke-width="2" stroke-linecap="round" stroke-linejoin="round"/>
<path d="M115.458 113.592H111.9C111.532 113.592 111.233 113.891 111.233 114.259V115.594C111.233 115.962 111.532 116.261 111.9 116.261H115.458C115.827 116.261 116.125 115.962 116.125 115.594V114.259C116.125 113.891 115.827 113.592 115.458 113.592Z" fill="#363D56"/>
<path d="M108.342 113.592H104.785C104.416 113.592 104.117 113.891 104.117 114.259V115.594C104.117 115.962 104.416 116.261 104.785 116.261H108.342C108.711 116.261 109.009 115.962 109.009 115.594V114.259C109.009 113.891 108.711 113.592 108.342 113.592Z" fill="#363D56"/>
<path d="M101.227 113.592H97.6688C97.3003 113.592 97.0017 113.891 97.0017 114.259V115.594C97.0017 115.962 97.3003 116.261 97.6688 116.261H101.227C101.595 116.261 101.894 115.962 101.894 115.594V114.259C101.894 113.891 101.595 113.592 101.227 113.592Z" fill="#363D56"/>
<path d="M94.111 113.592H90.5531C90.1847 113.592 89.886 113.891 89.886 114.259V115.594C89.886 115.962 90.1847 116.261 90.5531 116.261H94.111C94.4795 116.261 94.7781 115.962 94.7781 115.594V114.259C94.7781 113.891 94.4795 113.592 94.111 113.592Z" fill="#363D56"/>
<path d="M86.9953 113.592H83.4374C83.069 113.592 82.7703 113.891 82.7703 114.259V115.594C82.7703 115.962 83.069 116.261 83.4374 116.261H86.9953C87.3637 116.261 87.6624 115.962 87.6624 115.594V114.259C87.6624 113.891 87.3637 113.592 86.9953 113.592Z" fill="#363D56"/>
<path d="M79.8796 113.592H76.3217C75.9532 113.592 75.6546 113.891 75.6546 114.259V115.594C75.6546 115.962 75.9532 116.261 76.3217 116.261H79.8796C80.248 116.261 80.5467 115.962 80.5467 115.594V114.259C80.5467 113.891 80.248 113.592 79.8796 113.592Z" fill="#363D56"/>
<path d="M72.7638 113.592H69.2059C68.8375 113.592 68.5388 113.891 68.5388 114.259V115.594C68.5388 115.962 68.8375 116.261 69.2059 116.261H72.7638C73.1322 116.261 73.4309 115.962 73.4309 115.594V114.259C73.4309 113.891 73.1322 113.592 72.7638 113.592Z" fill="#363D56"/>
<path d="M65.6481 113.592H62.0902C61.7217 113.592 61.4231 113.891 61.4231 114.259V115.594C61.4231 115.962 61.7217 116.261 62.0902 116.261H65.6481C66.0165 116.261 66.3152 115.962 66.3152 115.594V114.259C66.3152 113.891 66.0165 113.592 65.6481 113.592Z" fill="#363D56"/>
<path d="M58.5324 113.592H54.9745C54.6061 113.592 54.3074 113.891 54.3074 114.259V115.594C54.3074 115.962 54.6061 116.261 54.9745 116.261H58.5324C58.9009 116.261 59.1995 115.962 59.1995 115.594V114.259C59.1995 113.891 58.9009 113.592 58.5324 113.592Z" fill="#363D56"/>
<path d="M101.227 119.258H97.6688C97.3003 119.258 97.0017 119.556 97.0017 119.925V123.483C97.0017 123.851 97.3003 124.15 97.6688 124.15H101.227C101.595 124.15 101.894 123.851 101.894 123.483V119.925C101.894 119.556 101.595 119.258 101.227 119.258Z" fill="#363D56"/>
<path d="M94.111 119.258H90.5531C90.1847 119.258 89.886 119.556 89.886 119.925V123.483C89.886 123.851 90.1847 124.15 90.5531 124.15H94.111C94.4795 124.15 94.7781 123.851 94.7781 123.483V119.925C94.7781 119.556 94.4795 119.258 94.111 119.258Z" fill="#363D56"/>
<path d="M86.9953 119.258H83.4374C83.069 119.258 82.7703 119.556 82.7703 119.925V123.483C82.7703 123.851 83.069 124.15 83.4374 124.15H86.9953C87.3637 124.15 87.6624 123.851 87.6624 123.483V119.925C87.6624 119.556 87.3637 119.258 86.9953 119.258Z" fill="#363D56"/>
<path d="M79.8796 119.258H76.3217C75.9532 119.258 75.6546 119.556 75.6546 119.925V123.483C75.6546 123.851 75.9532 124.15 76.3217 124.15H79.8796C80.248 124.15 80.5467 123.851 80.5467 123.483V119.925C80.5467 119.556 80.248 119.258 79.8796 119.258Z" fill="#363D56"/>
<path d="M72.7638 119.258H69.2059C68.8375 119.258 68.5388 119.556 68.5388 119.925V123.483C68.5388 123.851 68.8375 124.15 69.2059 124.15H72.7638C73.1322 124.15 73.4309 123.851 73.4309 123.483V119.925C73.4309 119.556 73.1322 119.258 72.7638 119.258Z" fill="#363D56"/>
<path d="M65.6481 119.258H62.0902C61.7217 119.258 61.4231 119.556 61.4231 119.925V123.483C61.4231 123.851 61.7217 124.15 62.0902 124.15H65.6481C66.0165 124.15 66.3152 123.851 66.3152 123.483V119.925C66.3152 119.556 66.0165 119.258 65.6481 119.258Z" fill="#363D56"/>
<path d="M58.5324 119.258H54.9745C54.6061 119.258 54.3074 119.556 54.3074 119.925V123.483C54.3074 123.851 54.6061 124.15 54.9745 124.15H58.5324C58.9009 124.15 59.1995 123.851 59.1995 123.483V119.925C59.1995 119.556 58.9009 119.258 58.5324 119.258Z" fill="#363D56"/>
<path d="M115.458 119.258H111.9C111.532 119.258 111.233 119.556 111.233 119.925V130.49C111.233 130.858 111.532 131.157 111.9 131.157H115.458C115.827 131.157 116.125 130.858 116.125 130.49V119.925C116.125 119.556 115.827 119.258 115.458 119.258Z" fill="#363D56"/>
<path d="M108.342 119.258H104.785C104.608 119.258 104.438 119.328 104.313 119.453C104.188 119.578 104.117 119.748 104.117 119.925V125.598C104.117 125.775 104.047 125.944 103.922 126.069C103.797 126.195 103.627 126.265 103.45 126.265H97.6688C97.4918 126.265 97.3221 126.335 97.1972 126.46C97.072 126.585 97.0017 126.755 97.0017 126.932V130.49C97.0017 130.667 97.072 130.836 97.1972 130.961C97.3221 131.087 97.4918 131.157 97.6688 131.157H108.342C108.519 131.157 108.689 131.087 108.814 130.961C108.939 130.836 109.009 130.667 109.009 130.49V119.925C109.009 119.748 108.939 119.578 108.814 119.453C108.689 119.328 108.519 119.258 108.342 119.258Z" fill="#363D56"/>
<path d="M94.111 126.265H90.5531C90.1847 126.265 89.886 126.563 89.886 126.932V130.49C89.886 130.858 90.1847 131.157 90.5531 131.157H94.111C94.4795 131.157 94.7781 130.858 94.7781 130.49V126.932C94.7781 126.563 94.4795 126.265 94.111 126.265Z" fill="#363D56"/>
<path d="M86.9953 126.265H83.4374C83.069 126.265 82.7703 126.563 82.7703 126.932V130.49C82.7703 130.858 83.069 131.157 83.4374 131.157H86.9953C87.3637 131.157 87.6624 130.858 87.6624 130.49V126.932C87.6624 126.563 87.3637 126.265 86.9953 126.265Z" fill="#363D56"/>
<path d="M79.8796 126.265H76.3217C75.9532 126.265 75.6546 126.563 75.6546 126.932V130.49C75.6546 130.858 75.9532 131.157 76.3217 131.157H79.8796C80.248 131.157 80.5467 130.858 80.5467 130.49V126.932C80.5467 126.563 80.248 126.265 79.8796 126.265Z" fill="#363D56"/>
<path d="M72.7638 126.265H69.2059C68.8375 126.265 68.5388 126.563 68.5388 126.932V130.49C68.5388 130.858 68.8375 131.157 69.2059 131.157H72.7638C73.1322 131.157 73.4309 130.858 73.4309 130.49V126.932C73.4309 126.563 73.1322 126.265 72.7638 126.265Z" fill="#363D56"/>
<path d="M65.6481 126.265H54.9745C54.6061 126.265 54.3074 126.563 54.3074 126.932V130.49C54.3074 130.858 54.6061 131.157 54.9745 131.157H65.6481C66.0166 131.157 66.3152 130.858 66.3152 130.49V126.932C66.3152 126.563 66.0166 126.265 65.6481 126.265Z" fill="#363D56"/>
<path d="M115.458 133.272H111.9C111.532 133.272 111.233 133.57 111.233 133.939V137.497C111.233 137.865 111.532 138.164 111.9 138.164H115.458C115.827 138.164 116.125 137.865 116.125 137.497V133.939C116.125 133.57 115.827 133.272 115.458 133.272Z" fill="#363D56"/>
<path d="M108.342 133.272H104.785C104.416 133.272 104.117 133.57 104.117 133.939V137.497C104.117 137.865 104.416 138.164 104.785 138.164H108.342C108.711 138.164 109.009 137.865 109.009 137.497V133.939C109.009 133.57 108.711 133.272 108.342 133.272Z" fill="#363D56"/>
<path d="M101.227 133.272H97.6688C97.3003 133.272 97.0017 133.57 97.0017 133.939V137.497C97.0017 137.865 97.3003 138.164 97.6688 138.164H101.227C101.595 138.164 101.894 137.865 101.894 137.497V133.939C101.894 133.57 101.595 133.272 101.227 133.272Z" fill="#363D56"/>
<path d="M94.111 133.272H76.3217C75.9532 133.272 75.6546 133.57 75.6546 133.939V137.497C75.6546 137.865 75.9532 138.164 76.3217 138.164H94.111C94.4795 138.164 94.7781 137.865 94.7781 137.497V133.939C94.7781 133.57 94.4795 133.272 94.111 133.272Z" fill="#363D56"/>
<path d="M72.7638 133.272H69.2059C68.8375 133.272 68.5388 133.57 68.5388 133.939V137.497C68.5388 137.865 68.8375 138.164 69.2059 138.164H72.7638C73.1322 138.164 73.4309 137.865 73.4309 137.497V133.939C73.4309 133.57 73.1322 133.272 72.7638 133.272Z" fill="#363D56"/>
<path d="M65.6481 133.272H62.0902C61.7217 133.272 61.4231 133.57 61.4231 133.939V137.497C61.4231 137.865 61.7217 138.164 62.0902 138.164H65.6481C66.0165 138.164 66.3152 137.865 66.3152 137.497V133.939C66.3152 133.57 66.0165 133.272 65.6481 133.272Z" fill="#363D56"/>
<path d="M58.5324 133.272H54.9745C54.6061 133.272 54.3074 133.57 54.3074 133.939V137.497C54.3074 137.865 54.6061 138.164 54.9745 138.164H58.5324C58.9009 138.164 59.1995 137.865 59.1995 137.497V133.939C59.1995 133.57 58.9009 133.272 58.5324 133.272Z" fill="#363D56"/>
<path d="M115.458 113.592H111.9C111.532 113.592 111.233 113.891 111.233 114.259V115.594C111.233 115.962 111.532 116.261 111.9 116.261H115.458C115.827 116.261 116.125 115.962 116.125 115.594V114.259C116.125 113.891 115.827 113.592 115.458 113.592Z" stroke="#1E223B" stroke-width="2" stroke-linecap="round" stroke-linejoin="round"/>
<path d="M108.342 113.592H104.785C104.416 113.592 104.117 113.891 104.117 114.259V115.594C104.117 115.962 104.416 116.261 104.785 116.261H108.342C108.711 116.261 109.009 115.962 109.009 115.594V114.259C109.009 113.891 108.711 113.592 108.342 113.592Z" stroke="#1E223B" stroke-width="2" stroke-linecap="round" stroke-linejoin="round"/>
<path d="M101.227 113.592H97.6688C97.3003 113.592 97.0017 113.891 97.0017 114.259V115.594C97.0017 115.962 97.3003 116.261 97.6688 116.261H101.227C101.595 116.261 101.894 115.962 101.894 115.594V114.259C101.894 113.891 101.595 113.592 101.227 113.592Z" stroke="#1E223B" stroke-width="2" stroke-linecap="round" stroke-linejoin="round"/>
<path d="M94.111 113.592H90.5531C90.1847 113.592 89.886 113.891 89.886 114.259V115.594C89.886 115.962 90.1847 116.261 90.5531 116.261H94.111C94.4795 116.261 94.7781 115.962 94.7781 115.594V114.259C94.7781 113.891 94.4795 113.592 94.111 113.592Z" stroke="#1E223B" stroke-width="2" stroke-linecap="round" stroke-linejoin="round"/>
<path d="M86.9953 113.592H83.4374C83.069 113.592 82.7703 113.891 82.7703 114.259V115.594C82.7703 115.962 83.069 116.261 83.4374 116.261H86.9953C87.3637 116.261 87.6624 115.962 87.6624 115.594V114.259C87.6624 113.891 87.3637 113.592 86.9953 113.592Z" stroke="#1E223B" stroke-width="2" stroke-linecap="round" stroke-linejoin="round"/>
<path d="M79.8796 113.592H76.3217C75.9532 113.592 75.6546 113.891 75.6546 114.259V115.594C75.6546 115.962 75.9532 116.261 76.3217 116.261H79.8796C80.248 116.261 80.5467 115.962 80.5467 115.594V114.259C80.5467 113.891 80.248 113.592 79.8796 113.592Z" stroke="#1E223B" stroke-width="2" stroke-linecap="round" stroke-linejoin="round"/>
<path d="M72.7638 113.592H69.2059C68.8375 113.592 68.5388 113.891 68.5388 114.259V115.594C68.5388 115.962 68.8375 116.261 69.2059 116.261H72.7638C73.1322 116.261 73.4309 115.962 73.4309 115.594V114.259C73.4309 113.891 73.1322 113.592 72.7638 113.592Z" stroke="#1E223B" stroke-width="2" stroke-linecap="round" stroke-linejoin="round"/>
<path d="M65.6481 113.592H62.0902C61.7217 113.592 61.4231 113.891 61.4231 114.259V115.594C61.4231 115.962 61.7217 116.261 62.0902 116.261H65.6481C66.0165 116.261 66.3152 115.962 66.3152 115.594V114.259C66.3152 113.891 66.0165 113.592 65.6481 113.592Z" stroke="#1E223B" stroke-width="2" stroke-linecap="round" stroke-linejoin="round"/>
<path d="M58.5324 113.592H54.9745C54.6061 113.592 54.3074 113.891 54.3074 114.259V115.594C54.3074 115.962 54.6061 116.261 54.9745 116.261H58.5324C58.9009 116.261 59.1995 115.962 59.1995 115.594V114.259C59.1995 113.891 58.9009 113.592 58.5324 113.592Z" stroke="#1E223B" stroke-width="2" stroke-linecap="round" stroke-linejoin="round"/>
<path d="M101.227 119.258H97.6688C97.3003 119.258 97.0017 119.556 97.0017 119.925V123.483C97.0017 123.851 97.3003 124.15 97.6688 124.15H101.227C101.595 124.15 101.894 123.851 101.894 123.483V119.925C101.894 119.556 101.595 119.258 101.227 119.258Z" stroke="#1E223B" stroke-width="2" stroke-linecap="round" stroke-linejoin="round"/>
<path d="M94.111 119.258H90.5531C90.1847 119.258 89.886 119.556 89.886 119.925V123.483C89.886 123.851 90.1847 124.15 90.5531 124.15H94.111C94.4795 124.15 94.7781 123.851 94.7781 123.483V119.925C94.7781 119.556 94.4795 119.258 94.111 119.258Z" stroke="#1E223B" stroke-width="2" stroke-linecap="round" stroke-linejoin="round"/>
<path d="M86.9953 119.258H83.4374C83.069 119.258 82.7703 119.556 82.7703 119.925V123.483C82.7703 123.851 83.069 124.15 83.4374 124.15H86.9953C87.3637 124.15 87.6624 123.851 87.6624 123.483V119.925C87.6624 119.556 87.3637 119.258 86.9953 119.258Z" stroke="#1E223B" stroke-width="2" stroke-linecap="round" stroke-linejoin="round"/>
<path d="M79.8796 119.258H76.3217C75.9532 119.258 75.6546 119.556 75.6546 119.925V123.483C75.6546 123.851 75.9532 124.15 76.3217 124.15H79.8796C80.248 124.15 80.5467 123.851 80.5467 123.483V119.925C80.5467 119.556 80.248 119.258 79.8796 119.258Z" stroke="#1E223B" stroke-width="2" stroke-linecap="round" stroke-linejoin="round"/>
<path d="M72.7638 119.258H69.2059C68.8375 119.258 68.5388 119.556 68.5388 119.925V123.483C68.5388 123.851 68.8375 124.15 69.2059 124.15H72.7638C73.1322 124.15 73.4309 123.851 73.4309 123.483V119.925C73.4309 119.556 73.1322 119.258 72.7638 119.258Z" stroke="#1E223B" stroke-width="2" stroke-linecap="round" stroke-linejoin="round"/>
<path d="M65.6481 119.258H62.0902C61.7217 119.258 61.4231 119.556 61.4231 119.925V123.483C61.4231 123.851 61.7217 124.15 62.0902 124.15H65.6481C66.0165 124.15 66.3152 123.851 66.3152 123.483V119.925C66.3152 119.556 66.0165 119.258 65.6481 119.258Z" stroke="#1E223B" stroke-width="2" stroke-linecap="round" stroke-linejoin="round"/>
<path d="M58.5324 119.258H54.9745C54.6061 119.258 54.3074 119.556 54.3074 119.925V123.483C54.3074 123.851 54.6061 124.15 54.9745 124.15H58.5324C58.9009 124.15 59.1995 123.851 59.1995 123.483V119.925C59.1995 119.556 58.9009 119.258 58.5324 119.258Z" stroke="#1E223B" stroke-width="2" stroke-linecap="round" stroke-linejoin="round"/>
<path d="M115.458 119.258H111.9C111.532 119.258 111.233 119.556 111.233 119.925V130.49C111.233 130.858 111.532 131.157 111.9 131.157H115.458C115.827 131.157 116.125 130.858 116.125 130.49V119.925C116.125 119.556 115.827 119.258 115.458 119.258Z" stroke="#1E223B" stroke-width="2" stroke-linecap="round" stroke-linejoin="round"/>
<path d="M108.342 119.258H104.785C104.608 119.258 104.438 119.328 104.313 119.453C104.188 119.578 104.117 119.748 104.117 119.925V125.598C104.117 125.775 104.047 125.944 103.922 126.069C103.797 126.195 103.627 126.265 103.45 126.265H97.6688C97.4918 126.265 97.3221 126.335 97.1972 126.46C97.072 126.585 97.0017 126.755 97.0017 126.932V130.49C97.0017 130.667 97.072 130.836 97.1972 130.961C97.3221 131.087 97.4918 131.157 97.6688 131.157H108.342C108.519 131.157 108.689 131.087 108.814 130.961C108.939 130.836 109.009 130.667 109.009 130.49V119.925C109.009 119.748 108.939 119.578 108.814 119.453C108.689 119.328 108.519 119.258 108.342 119.258Z" stroke="#1E223B" stroke-width="2" stroke-linecap="round" stroke-linejoin="round"/>
<path d="M94.111 126.265H90.5531C90.1847 126.265 89.886 126.563 89.886 126.932V130.49C89.886 130.858 90.1847 131.157 90.5531 131.157H94.111C94.4795 131.157 94.7781 130.858 94.7781 130.49V126.932C94.7781 126.563 94.4795 126.265 94.111 126.265Z" stroke="#1E223B" stroke-width="2" stroke-linecap="round" stroke-linejoin="round"/>
<path d="M86.9953 126.265H83.4374C83.069 126.265 82.7703 126.563 82.7703 126.932V130.49C82.7703 130.858 83.069 131.157 83.4374 131.157H86.9953C87.3637 131.157 87.6624 130.858 87.6624 130.49V126.932C87.6624 126.563 87.3637 126.265 86.9953 126.265Z" stroke="#1E223B" stroke-width="2" stroke-linecap="round" stroke-linejoin="round"/>
<path d="M79.8796 126.265H76.3217C75.9532 126.265 75.6546 126.563 75.6546 126.932V130.49C75.6546 130.858 75.9532 131.157 76.3217 131.157H79.8796C80.248 131.157 80.5467 130.858 80.5467 130.49V126.932C80.5467 126.563 80.248 126.265 79.8796 126.265Z" stroke="#1E223B" stroke-width="2" stroke-linecap="round" stroke-linejoin="round"/>
<path d="M72.7638 126.265H69.2059C68.8375 126.265 68.5388 126.563 68.5388 126.932V130.49C68.5388 130.858 68.8375 131.157 69.2059 131.157H72.7638C73.1322 131.157 73.4309 130.858 73.4309 130.49V126.932C73.4309 126.563 73.1322 126.265 72.7638 126.265Z" stroke="#1E223B" stroke-width="2" stroke-linecap="round" stroke-linejoin="round"/>
<path d="M65.6481 126.265H54.9745C54.6061 126.265 54.3074 126.563 54.3074 126.932V130.49C54.3074 130.858 54.6061 131.157 54.9745 131.157H65.6481C66.0166 131.157 66.3152 130.858 66.3152 130.49V126.932C66.3152 126.563 66.0166 126.265 65.6481 126.265Z" stroke="#1E223B" stroke-width="2" stroke-linecap="round" stroke-linejoin="round"/>
<path d="M115.458 133.272H111.9C111.532 133.272 111.233 133.57 111.233 133.939V137.497C111.233 137.865 111.532 138.164 111.9 138.164H115.458C115.827 138.164 116.125 137.865 116.125 137.497V133.939C116.125 133.57 115.827 133.272 115.458 133.272Z" stroke="#1E223B" stroke-width="2" stroke-linecap="round" stroke-linejoin="round"/>
<path d="M108.342 133.272H104.785C104.416 133.272 104.117 133.57 104.117 133.939V137.497C104.117 137.865 104.416 138.164 104.785 138.164H108.342C108.711 138.164 109.009 137.865 109.009 137.497V133.939C109.009 133.57 108.711 133.272 108.342 133.272Z" stroke="#1E223B" stroke-width="2" stroke-linecap="round" stroke-linejoin="round"/>
<path d="M101.227 133.272H97.6688C97.3003 133.272 97.0017 133.57 97.0017 133.939V137.497C97.0017 137.865 97.3003 138.164 97.6688 138.164H101.227C101.595 138.164 101.894 137.865 101.894 137.497V133.939C101.894 133.57 101.595 133.272 101.227 133.272Z" stroke="#1E223B" stroke-width="2" stroke-linecap="round" stroke-linejoin="round"/>
<path d="M94.111 133.272H76.3217C75.9532 133.272 75.6546 133.57 75.6546 133.939V137.497C75.6546 137.865 75.9532 138.164 76.3217 138.164H94.111C94.4795 138.164 94.7781 137.865 94.7781 137.497V133.939C94.7781 133.57 94.4795 133.272 94.111 133.272Z" stroke="#1E223B" stroke-width="2" stroke-linecap="round" stroke-linejoin="round"/>
<path d="M72.7638 133.272H69.2059C68.8375 133.272 68.5388 133.57 68.5388 133.939V137.497C68.5388 137.865 68.8375 138.164 69.2059 138.164H72.7638C73.1322 138.164 73.4309 137.865 73.4309 137.497V133.939C73.4309 133.57 73.1322 133.272 72.7638 133.272Z" stroke="#1E223B" stroke-width="2" stroke-linecap="round" stroke-linejoin="round"/>
<path d="M65.6481 133.272H62.0902C61.7217 133.272 61.4231 133.57 61.4231 133.939V137.497C61.4231 137.865 61.7217 138.164 62.0902 138.164H65.6481C66.0165 138.164 66.3152 137.865 66.3152 137.497V133.939C66.3152 133.57 66.0165 133.272 65.6481 133.272Z" stroke="#1E223B" stroke-width="2" stroke-linecap="round" stroke-linejoin="round"/>
<path d="M58.5324 133.272H54.9745C54.6061 133.272 54.3074 133.57 54.3074 133.939V137.497C54.3074 137.865 54.6061 138.164 54.9745 138.164H58.5324C58.9009 138.164 59.1995 137.865 59.1995 137.497V133.939C59.1995 133.57 58.9009 133.272 58.5324 133.272Z" stroke="#1E223B" stroke-width="2" stroke-linecap="round" stroke-linejoin="round"/>
<path d="M68.7932 154.033H59.0091V162.928H68.7932V154.033Z" fill="#F2A197"/>
<path d="M68.7932 154.033H59.0091V162.928H68.7932V154.033Z" stroke="#1E223B" stroke-width="2" stroke-linecap="round" stroke-linejoin="round"/>
<path d="M69.5424 160.927H58.002V166.6H69.5424V160.927Z" fill="white"/>
<path d="M69.5424 160.927H58.002V166.6H69.5424V160.927Z" stroke="#1E223B" stroke-width="2" stroke-linecap="round" stroke-linejoin="round"/>
<path d="M57.57 166.456H69.9745C70.3572 166.456 70.7241 166.608 70.9945 166.879C71.2651 167.149 71.417 167.516 71.417 167.899V193.862H56.1275V167.898C56.1275 167.516 56.2796 167.149 56.55 166.878C56.8206 166.608 57.1875 166.456 57.57 166.456Z" fill="#1E223B"/>
<path d="M57.57 166.456H69.9745C70.3572 166.456 70.7241 166.608 70.9945 166.879C71.2651 167.149 71.417 167.516 71.417 167.899V193.862H56.1275V167.898C56.1275 167.516 56.2796 167.149 56.55 166.878C56.8206 166.608 57.1875 166.456 57.57 166.456Z" stroke="#1E223B" stroke-width="2" stroke-linecap="round" stroke-linejoin="round"/>
<path opacity="0.2" d="M67.4813 164.869C68.0921 164.869 68.5871 164.374 68.5871 163.764C68.5871 163.153 68.0921 162.658 67.4813 162.658C66.8704 162.658 66.3754 163.153 66.3754 163.764C66.3754 164.374 66.8704 164.869 67.4813 164.869Z" fill="#1E223B"/>
<path d="M67.4813 164.869C68.0921 164.869 68.5871 164.374 68.5871 163.764C68.5871 163.153 68.0921 162.658 67.4813 162.658C66.8704 162.658 66.3754 163.153 66.3754 163.764C66.3754 164.374 66.8704 164.869 67.4813 164.869Z" stroke="#1E223B" stroke-width="2" stroke-linecap="round" stroke-linejoin="round"/>
<path d="M75.9076 142.505L76.1965 142.672C76.5029 142.848 76.7264 143.14 76.818 143.482C76.9096 143.824 76.8616 144.188 76.6848 144.494L71.0145 154.315L68.4146 152.814L74.0849 142.993C74.2619 142.687 74.5534 142.463 74.8952 142.371C75.237 142.28 75.601 142.328 75.9076 142.505Z" fill="#F2A197"/>
<path d="M75.9076 142.505L76.1965 142.672C76.5029 142.848 76.7264 143.14 76.818 143.482C76.9096 143.824 76.8616 144.188 76.6848 144.494L71.0145 154.315L68.4146 152.814L74.0849 142.993C74.2619 142.687 74.5534 142.463 74.8952 142.371C75.237 142.28 75.601 142.328 75.9076 142.505Z" stroke="#1E223B" stroke-width="2" stroke-linecap="round" stroke-linejoin="round"/>
<path d="M70.4434 128.651H70.1098C69.7561 128.651 69.4167 128.791 69.1663 129.041C68.9162 129.291 68.7757 129.631 68.7757 129.985V139.991C68.7757 140.168 68.7054 140.338 68.5802 140.463C68.4552 140.588 68.2856 140.658 68.1086 140.658C67.9315 140.658 67.7619 140.588 67.6369 140.463C67.5117 140.338 67.4415 140.168 67.4415 139.991V128.05C67.4415 127.696 67.3009 127.357 67.0508 127.107C66.8004 126.857 66.461 126.716 66.1073 126.716H65.7737C65.4199 126.716 65.0806 126.857 64.8302 127.107C64.58 127.357 64.4395 127.696 64.4395 128.05V139.991C64.4395 140.168 64.3692 140.338 64.244 140.463C64.1191 140.588 63.9494 140.658 63.7724 140.658C63.5954 140.658 63.4257 140.588 63.3008 140.463C63.1756 140.338 63.1053 140.168 63.1053 139.991V129.985C63.1053 129.631 62.9648 129.291 62.7146 129.041C62.4642 128.791 62.1249 128.651 61.7711 128.651H61.4376C61.0838 128.651 60.7444 128.791 60.4941 129.041C60.2439 129.291 60.1034 129.631 60.1034 129.985V139.991C60.1034 140.168 60.0331 140.338 59.9079 140.463C59.7829 140.588 59.6133 140.658 59.4363 140.658C59.2593 140.658 59.0896 140.588 58.9646 140.463C58.8394 140.338 58.7692 140.168 58.7692 139.991V133.153C58.7692 132.8 58.6286 132.46 58.3785 132.21C58.1281 131.96 57.7887 131.819 57.435 131.819H57.1014C56.7476 131.819 56.4083 131.96 56.1579 132.21C55.9077 132.46 55.7672 132.8 55.7672 133.153V152.776C55.7672 153.484 56.0483 154.163 56.5488 154.663C57.0492 155.164 57.7278 155.445 58.4356 155.445H69.1092C69.817 155.445 70.4957 155.164 70.996 154.663C71.4965 154.163 71.7776 153.484 71.7776 152.776V129.985C71.7776 129.81 71.7431 129.636 71.676 129.474C71.609 129.312 71.5108 129.165 71.3869 129.041C71.263 128.917 71.1158 128.819 70.9539 128.752C70.7921 128.685 70.6186 128.651 70.4434 128.651Z" fill="#FDB3A6"/>
<path d="M70.4434 128.651H70.1098C69.7561 128.651 69.4167 128.791 69.1663 129.041C68.9162 129.291 68.7757 129.631 68.7757 129.985V139.991C68.7757 140.168 68.7054 140.338 68.5802 140.463C68.4552 140.588 68.2856 140.658 68.1086 140.658C67.9315 140.658 67.7619 140.588 67.6369 140.463C67.5117 140.338 67.4415 140.168 67.4415 139.991V128.05C67.4415 127.696 67.3009 127.357 67.0508 127.107C66.8004 126.857 66.461 126.716 66.1073 126.716H65.7737C65.4199 126.716 65.0806 126.857 64.8302 127.107C64.58 127.357 64.4395 127.696 64.4395 128.05V139.991C64.4395 140.168 64.3692 140.338 64.244 140.463C64.1191 140.588 63.9494 140.658 63.7724 140.658C63.5954 140.658 63.4257 140.588 63.3008 140.463C63.1756 140.338 63.1053 140.168 63.1053 139.991V129.985C63.1053 129.631 62.9648 129.291 62.7146 129.041C62.4642 128.791 62.1249 128.651 61.7711 128.651H61.4376C61.0838 128.651 60.7444 128.791 60.4941 129.041C60.2439 129.291 60.1034 129.631 60.1034 129.985V139.991C60.1034 140.168 60.0331 140.338 59.9079 140.463C59.7829 140.588 59.6133 140.658 59.4363 140.658C59.2593 140.658 59.0896 140.588 58.9646 140.463C58.8394 140.338 58.7692 140.168 58.7692 139.991V133.153C58.7692 132.8 58.6286 132.46 58.3785 132.21C58.1281 131.96 57.7887 131.819 57.435 131.819H57.1014C56.7476 131.819 56.4083 131.96 56.1579 132.21C55.9077 132.46 55.7672 132.8 55.7672 133.153V152.776C55.7672 153.484 56.0483 154.163 56.5488 154.663C57.0492 155.164 57.7278 155.445 58.4356 155.445H69.1092C69.817 155.445 70.4957 155.164 70.996 154.663C71.4965 154.163 71.7776 153.484 71.7776 152.776V129.985C71.7776 129.81 71.7431 129.636 71.676 129.474C71.609 129.312 71.5108 129.165 71.3869 129.041C71.263 128.917 71.1158 128.819 70.9539 128.752C70.7921 128.685 70.6186 128.651 70.4434 128.651Z" stroke="#1E223B" stroke-width="2" stroke-linecap="round" stroke-linejoin="round"/>
<path d="M92.8884 173.664H83.1042V182.559H92.8884V173.664Z" fill="#F2A197"/>
<path d="M92.8884 173.664H83.1042V182.559H92.8884V173.664Z" stroke="#1E223B" stroke-width="2" stroke-linecap="round" stroke-linejoin="round"/>
<path d="M83.1023 172.445L80.5024 173.946L74.832 164.125C74.6553 163.819 74.6072 163.454 74.6989 163.113C74.7905 162.771 75.0139 162.479 75.3204 162.303L75.6094 162.136C75.9159 161.959 76.2799 161.911 76.6217 162.002C76.9637 162.094 77.255 162.318 77.432 162.624L83.1023 172.445Z" fill="#F2A197"/>
<path d="M83.1023 172.445L80.5024 173.946L74.832 164.125C74.6553 163.819 74.6072 163.454 74.6989 163.113C74.7905 162.771 75.0139 162.479 75.3204 162.303L75.6094 162.136C75.9159 161.959 76.2799 161.911 76.6217 162.002C76.9637 162.094 77.255 162.318 77.432 162.624L83.1023 172.445Z" stroke="#1E223B" stroke-width="2" stroke-linecap="round" stroke-linejoin="round"/>
<path d="M81.3249 148.282H81.6585C82.0123 148.282 82.3516 148.422 82.602 148.672C82.8521 148.923 82.9927 149.262 82.9927 149.616V159.622C82.9927 159.799 83.0629 159.969 83.1881 160.094C83.3131 160.219 83.4828 160.289 83.6598 160.289C83.8368 160.289 84.0064 160.219 84.1314 160.094C84.2566 159.969 84.3269 159.799 84.3269 159.622V158.027C84.3269 157.674 84.4674 157.334 84.7176 157.084C84.9679 156.834 85.3073 156.693 85.6611 156.693H85.9946C86.3484 156.693 86.6877 156.834 86.9381 157.084C87.1883 157.334 87.3288 157.674 87.3288 158.027V159.622C87.3288 159.799 87.3991 159.969 87.5243 160.094C87.6493 160.219 87.8189 160.289 87.9959 160.289C88.1729 160.289 88.3426 160.219 88.4675 160.094C88.5927 159.969 88.663 159.799 88.663 159.622V158.027C88.663 157.674 88.8036 157.334 89.0537 157.084C89.3041 156.834 89.6434 156.693 89.9972 156.693H90.3308C90.6845 156.693 91.0239 156.834 91.2743 157.084C91.5244 157.334 91.665 157.674 91.665 158.027V159.622C91.665 159.799 91.7352 159.969 91.8604 160.094C91.9854 160.219 92.1551 160.289 92.3321 160.289C92.5091 160.289 92.6787 160.219 92.8037 160.094C92.9289 159.969 92.9992 159.799 92.9992 159.622V158.027C92.9992 157.674 93.1397 157.334 93.3899 157.084C93.6402 156.834 93.9796 156.693 94.3334 156.693H94.6669C95.0207 156.693 95.36 156.834 95.6104 157.084C95.8606 157.334 96.0011 157.674 96.0011 158.027V172.407C96.0011 173.115 95.72 173.794 95.2195 174.294C94.7192 174.794 94.0405 175.076 93.3327 175.076H82.6591C81.9513 175.076 81.2727 174.794 80.7723 174.294C80.2718 173.794 79.9907 173.115 79.9907 172.407V149.616C79.9907 149.441 80.0252 149.267 80.0921 149.105C80.1593 148.943 80.2576 148.796 80.3814 148.672C80.5053 148.549 80.6525 148.45 80.8144 148.383C80.9763 148.316 81.1497 148.282 81.3249 148.282Z" fill="#FDB3A6"/>
<path d="M81.3249 148.282H81.6585C82.0123 148.282 82.3516 148.422 82.602 148.672C82.8521 148.923 82.9927 149.262 82.9927 149.616V159.622C82.9927 159.799 83.0629 159.969 83.1881 160.094C83.3131 160.219 83.4828 160.289 83.6598 160.289C83.8368 160.289 84.0064 160.219 84.1314 160.094C84.2566 159.969 84.3269 159.799 84.3269 159.622V158.027C84.3269 157.674 84.4674 157.334 84.7176 157.084C84.9679 156.834 85.3073 156.693 85.6611 156.693H85.9946C86.3484 156.693 86.6877 156.834 86.9381 157.084C87.1883 157.334 87.3288 157.674 87.3288 158.027V159.622C87.3288 159.799 87.3991 159.969 87.5243 160.094C87.6493 160.219 87.8189 160.289 87.9959 160.289C88.1729 160.289 88.3426 160.219 88.4675 160.094C88.5927 159.969 88.663 159.799 88.663 159.622V158.027C88.663 157.674 88.8036 157.334 89.0537 157.084C89.3041 156.834 89.6434 156.693 89.9972 156.693H90.3308C90.6845 156.693 91.0239 156.834 91.2743 157.084C91.5244 157.334 91.665 157.674 91.665 158.027V159.622C91.665 159.799 91.7352 159.969 91.8604 160.094C91.9854 160.219 92.1551 160.289 92.3321 160.289C92.5091 160.289 92.6787 160.219 92.8037 160.094C92.9289 159.969 92.9992 159.799 92.9992 159.622V158.027C92.9992 157.674 93.1397 157.334 93.3899 157.084C93.6402 156.834 93.9796 156.693 94.3334 156.693H94.6669C95.0207 156.693 95.36 156.834 95.6104 157.084C95.8606 157.334 96.0011 157.674 96.0011 158.027V172.407C96.0011 173.115 95.72 173.794 95.2195 174.294C94.7192 174.794 94.0405 175.076 93.3327 175.076H82.6591C81.9513 175.076 81.2727 174.794 80.7723 174.294C80.2718 173.794 79.9907 173.115 79.9907 172.407V149.616C79.9907 149.441 80.0252 149.267 80.0921 149.105C80.1593 148.943 80.2576 148.796 80.3814 148.672C80.5053 148.549 80.6525 148.45 80.8144 148.383C80.9763 148.316 81.1497 148.282 81.3249 148.282Z" stroke="#1E223B" stroke-width="2" stroke-linecap="round" stroke-linejoin="round"/>
<path d="M93.7666 180.558H82.2262V186.231H93.7666V180.558Z" fill="white"/>
<path d="M93.7666 180.558H82.2262V186.231H93.7666V180.558Z" stroke="#1E223B" stroke-width="2" stroke-linecap="round" stroke-linejoin="round"/>
<path d="M81.7941 186.087H94.1986C94.581 186.087 94.9482 186.239 95.2186 186.51C95.4892 186.78 95.6411 187.147 95.6411 187.53V194.259H80.3518V187.529C80.3518 187.147 80.5039 186.78 80.7743 186.51C81.0447 186.239 81.4116 186.087 81.7941 186.087Z" fill="#1E223B"/>
<path d="M81.7941 186.087H94.1986C94.581 186.087 94.9482 186.239 95.2186 186.51C95.4892 186.78 95.6411 187.147 95.6411 187.53V194.259H80.3518V187.529C80.3518 187.147 80.5039 186.78 80.7743 186.51C81.0447 186.239 81.4116 186.087 81.7941 186.087Z" stroke="#1E223B" stroke-width="2" stroke-linecap="round" stroke-linejoin="round"/>
<path d="M84.6669 184.5C85.2777 184.5 85.7727 184.005 85.7727 183.395C85.7727 182.784 85.2777 182.289 84.6669 182.289C84.0562 182.289 83.561 182.784 83.561 183.395C83.561 184.005 84.0562 184.5 84.6669 184.5Z" stroke="#1E223B" stroke-width="2" stroke-linecap="round" stroke-linejoin="round"/>
<path opacity="0.2" d="M84.6669 184.5C85.2777 184.5 85.7727 184.005 85.7727 183.395C85.7727 182.784 85.2777 182.289 84.6669 182.289C84.0562 182.289 83.561 182.784 83.561 183.395C83.561 184.005 84.0562 184.5 84.6669 184.5Z" fill="#1E223B"/>
<path d="M88.4406 17.3662H100.448" stroke="#1E223B" stroke-width="3" stroke-linecap="round" stroke-linejoin="round"/>
<path d="M88.4406 20.3681H97.78" stroke="#1E223B" stroke-width="3" stroke-linecap="round" stroke-linejoin="round"/>
<path d="M88.4406 23.3701H93.7774" stroke="#1E223B" stroke-width="3" stroke-linecap="round" stroke-linejoin="round"/>
<path d="M104.498 4.80247H110.502" stroke="#1E223B" stroke-width="3" stroke-linecap="round" stroke-linejoin="round"/>
<path d="M104.498 6.35903H108.279" stroke="#1E223B" stroke-width="3" stroke-linecap="round" stroke-linejoin="round"/>
<path d="M104.359 20.6192H105.026" stroke="#1E223B" stroke-width="2" stroke-linecap="round" stroke-linejoin="round"/>
<path d="M106.791 20.6192H111.73C114.075 20.6192 116.324 21.5507 117.983 23.2091C119.641 24.8673 120.573 27.1163 120.573 29.4614C120.573 30.6226 120.344 31.7724 119.899 32.8451C119.455 33.9178 118.804 34.8927 117.983 35.7136C117.162 36.5348 116.187 37.1861 115.114 37.6304C114.041 38.0747 112.892 38.3035 111.73 38.3035H97.1511C95.8467 38.3035 94.555 38.5604 93.3498 39.0596C92.1446 39.5588 91.0494 40.2904 90.127 41.2128C89.2047 42.1351 88.4729 43.2303 87.9736 44.4355C87.4744 45.6407 87.2176 46.9325 87.2176 48.2369V49.3354" stroke="#1E223B" stroke-width="2" stroke-linecap="round" stroke-linejoin="round" stroke-dasharray="5.95 7.94"/>
<path d="M87.2176 50.2179V50.885" stroke="#1E223B" stroke-width="2" stroke-linecap="round" stroke-linejoin="round"/>
<path d="M21.5878 75.813H49.5041" stroke="#1E223B" stroke-width="2" stroke-linecap="round" stroke-linejoin="round" stroke-dasharray="6 8"/>
<path d="M20.8717 126.265H26.7088C29.3694 126.265 31.9211 125.208 33.8023 123.327C35.6835 121.445 36.7404 118.894 36.7404 116.233V112.01C36.7404 109.363 37.792 106.824 39.6637 104.953C41.5351 103.081 44.0736 102.03 46.7205 102.029H49.8601" stroke="#1E223B" stroke-width="2" stroke-linecap="round" stroke-linejoin="round"/>
<path d="M50.4809 21.3372H53.4953C55.598 21.3374 57.6144 22.1726 59.1012 23.6594C60.5879 25.1461 61.4231 27.1627 61.4231 29.2652C61.4231 30.3063 61.6281 31.3372 62.0266 32.2992C62.4251 33.2611 63.009 34.135 63.7453 34.8713C64.4813 35.6073 65.3554 36.1913 66.3172 36.5898C67.2791 36.988 68.31 37.1933 69.3511 37.193H73.7306C75.8333 37.1933 77.8498 38.0285 79.3365 39.5152C80.8232 41.0019 81.6585 43.0186 81.6585 45.1211V50.885" stroke="#1E223B" stroke-width="2" stroke-linecap="round" stroke-linejoin="round" stroke-dasharray="6 8"/>
<path d="M120.573 74.2324H132.254C133.269 74.2324 134.275 74.0327 135.213 73.6442C136.151 73.2558 137.003 72.6863 137.721 71.9685C138.439 71.2507 139.008 70.3984 139.397 69.4604C139.785 68.5225 139.985 67.5171 139.985 66.502V46.0341" stroke="#1E223B" stroke-width="2" stroke-linecap="round" stroke-linejoin="round"/>
<path d="M168.972 141.946C172.719 141.946 175.756 138.909 175.756 135.162C175.756 131.415 172.719 128.378 168.972 128.378C165.225 128.378 162.188 131.415 162.188 135.162C162.188 138.909 165.225 141.946 168.972 141.946Z" stroke="#1E223B" stroke-width="2" stroke-linecap="round" stroke-linejoin="round"/>
<path d="M120.573 87.7271H162.433" stroke="#1E223B" stroke-width="2" stroke-linecap="round" stroke-linejoin="round" stroke-dasharray="6 8"/>
<path d="M162.794 146.895C167.14 146.895 170.663 143.371 170.663 139.026C170.663 134.68 167.14 131.157 162.794 131.157C158.448 131.157 154.925 134.68 154.925 139.026C154.925 143.371 158.448 146.895 162.794 146.895Z" fill="white"/>
<path d="M162.794 146.895C167.14 146.895 170.663 143.371 170.663 139.026C170.663 134.68 167.14 131.157 162.794 131.157C158.448 131.157 154.925 134.68 154.925 139.026C154.925 143.371 158.448 146.895 162.794 146.895Z" stroke="#1E223B" stroke-width="2" stroke-linecap="round" stroke-linejoin="round"/>
<path d="M154.925 139.026H120.573" stroke="#1E223B" stroke-width="2" stroke-linecap="round" stroke-linejoin="round" stroke-dasharray="6 8"/>
<path opacity="0.39" d="M122.24 5.2472C123.161 5.2472 123.908 4.5005 123.908 3.57945C123.908 2.65841 123.161 1.91171 122.24 1.91171C121.319 1.91171 120.573 2.65841 120.573 3.57945C120.573 4.5005 121.319 5.2472 122.24 5.2472Z" fill="white"/>
<path d="M122.24 5.2472C123.161 5.2472 123.908 4.5005 123.908 3.57945C123.908 2.65841 123.161 1.91171 122.24 1.91171C121.319 1.91171 120.573 2.65841 120.573 3.57945C120.573 4.5005 121.319 5.2472 122.24 5.2472Z" stroke="#1E223B" stroke-width="2" stroke-linecap="round" stroke-linejoin="round"/>
<path d="M159.432 146.142L162.794 139.026L170.573 140.22" stroke="#1E223B" stroke-width="2" stroke-linecap="round" stroke-linejoin="round"/>
<path d="M12.7249 34.2215V31.9183H9.98843V34.2215H9.06561V28.9606H9.98843V31.1057H12.7249V28.9606H13.6477V34.2215H12.7249Z" fill="white"/>
<path d="M16.6138 34.2215V29.7742H15.0206V28.9619H19.129V29.7742H17.5358V34.2215H16.6138Z" fill="white"/>
</svg>
