<svg width="54" height="54" viewBox="0 0 54 54" fill="none" xmlns="http://www.w3.org/2000/svg">
<path d="M27 51.1875C40.3584 51.1875 51.1875 40.3584 51.1875 27C51.1875 13.6416 40.3584 2.8125 27 2.8125C13.6416 2.8125 2.8125 13.6416 2.8125 27C2.8125 40.3584 13.6416 51.1875 27 51.1875Z" stroke="#0565F6" stroke-width="3" stroke-linecap="round" stroke-linejoin="round"/>
<path d="M27 41.0625C34.7665 41.0625 41.0625 34.7665 41.0625 27C41.0625 19.2335 34.7665 12.9375 27 12.9375C19.2335 12.9375 12.9375 19.2335 12.9375 27C12.9375 34.7665 19.2335 41.0625 27 41.0625Z" stroke="#0565F6" stroke-width="3" stroke-linecap="round" stroke-linejoin="round"/>
<path d="M21.1433 32.9738C21.4954 33.5549 22.0077 34.0221 22.6187 34.3195C23.2297 34.6168 23.9134 34.7316 24.588 34.6501H26.8526C27.9251 34.6103 28.9531 34.2117 29.7721 33.5182C30.5911 32.8246 31.1536 31.8763 31.3695 30.8251C31.4824 30.3605 31.4861 29.8762 31.3805 29.4099C31.2749 28.9437 31.0627 28.5083 30.7606 28.1378C30.4585 27.7672 30.0748 27.4717 29.6394 27.2743C29.204 27.077 28.7288 26.9831 28.251 27.0001H25.749C25.2713 27.0171 24.7961 26.9232 24.3607 26.7258C23.9253 26.5284 23.5415 26.2329 23.2394 25.8624C22.9373 25.4919 22.7252 25.0564 22.6195 24.5902C22.5139 24.124 22.5176 23.6396 22.6305 23.1751C22.8464 22.1238 23.4089 21.1755 24.2279 20.482C25.0469 19.7884 26.0749 19.3898 27.1474 19.3501H29.412C30.0866 19.2686 30.7704 19.3834 31.3814 19.6807C31.9923 19.978 32.5046 20.4452 32.8568 21.0263M28.3984 19.3501L28.7483 17.4376M25.2518 36.5626L25.6016 34.6501M27 41.0626V51.1864M14.8433 19.9306L6.09189 14.8411M39.222 20.0453L48.0218 15.0379" stroke="#0565F6" stroke-width="3" stroke-linecap="round" stroke-linejoin="round"/>
</svg>
