<svg width="52" height="52" viewBox="0 0 52 52" fill="none" xmlns="http://www.w3.org/2000/svg">
<path d="M23.8333 37.9167H28.1666V49.8334H23.8333V37.9167Z" fill="#009688"/>
<path d="M26 32.0667L33.5833 41.1667H18.4167L26 32.0667Z" fill="#009688"/>
<path d="M23.8333 2.16675H28.1666V14.0834H23.8333V2.16675Z" fill="#009688"/>
<path d="M26 19.9335L18.4167 10.8335H33.5833L26 19.9335Z" fill="#009688"/>
<path d="M2.16666 23.8335H14.0833V28.1668H2.16666V23.8335Z" fill="#009688"/>
<path d="M19.9333 26.0001L10.8333 33.5834V18.4167L19.9333 26.0001Z" fill="#009688"/>
<path d="M37.9167 23.8335H49.8333V28.1668H37.9167V23.8335Z" fill="#009688"/>
<path d="M32.0667 26.0001L41.1667 18.4167V33.5834L32.0667 26.0001Z" fill="#009688"/>
<path d="M26 29.25C27.7949 29.25 29.25 27.7949 29.25 26C29.25 24.2051 27.7949 22.75 26 22.75C24.2051 22.75 22.75 24.2051 22.75 26C22.75 27.7949 24.2051 29.25 26 29.25Z" fill="#F44336"/>
</svg>
