<svg width="48" height="48" viewBox="0 0 48 48" fill="none" xmlns="http://www.w3.org/2000/svg">
<path d="M31.232 40C30.696 40 30.2287 39.8007 29.83 39.402C29.4313 39.0033 29.2313 38.536 29.23 38V29.232C29.23 28.696 29.43 28.2287 29.83 27.83C30.23 27.4313 30.6967 27.2313 31.23 27.23H40C40.536 27.23 41.0033 27.43 41.402 27.83C41.8007 28.23 42 28.6967 42 29.23V38C42 38.536 41.8007 39.0033 41.402 39.402C41.0033 39.8007 40.536 40 40 40H31.232ZM6 34.616V32.616H22.46V34.616H6ZM31.232 20.768C30.696 20.768 30.2287 20.5687 29.83 20.17C29.4313 19.7713 29.2313 19.3047 29.23 18.77V10C29.23 9.464 29.43 8.99667 29.83 8.598C30.23 8.19933 30.6967 8 31.23 8H40C40.536 8 41.0033 8.19933 41.402 8.598C41.8007 8.99667 42 9.464 42 10V18.77C42 19.3047 41.8007 19.7713 41.402 20.17C41.0033 20.5687 40.536 20.7687 40 20.77L31.232 20.768ZM6 15.384V13.384H22.46V15.384H6Z" fill="#0565F6"/>
</svg>
