<svg width="48" height="48" viewBox="0 0 48 48" fill="none" xmlns="http://www.w3.org/2000/svg">
<g clip-path="url(#clip0_130_289)">
<path d="M20.3438 34.2422C21.3594 34.7578 22.2734 35.3906 23.0859 36.1406C23.8984 36.8906 24.6016 37.7344 25.1953 38.6719C25.7891 39.6094 26.2344 40.6094 26.5312 41.6719C26.8281 42.7344 26.9844 43.8438 27 45H24C24 43.7656 23.7656 42.6016 23.2969 41.5078C22.8281 40.4141 22.1875 39.4609 21.375 38.6484C20.5625 37.8359 19.6016 37.1875 18.4922 36.7031C17.3828 36.2188 16.2188 35.9844 15 36C13.75 36 12.5859 36.2344 11.5078 36.7031C10.4297 37.1719 9.47656 37.8125 8.64844 38.625C7.82031 39.4375 7.17188 40.3984 6.70312 41.5078C6.23438 42.6172 6 43.7812 6 45H3C3 43.8594 3.15625 42.7578 3.46875 41.6953C3.78125 40.6328 4.22656 39.6328 4.80469 38.6953C5.38281 37.7578 6.07812 36.9141 6.89062 36.1641C7.70312 35.4141 8.625 34.7734 9.65625 34.2422C8.5 33.3828 7.60156 32.3203 6.96094 31.0547C6.32031 29.7891 6 28.4375 6 27C6 25.7656 6.23438 24.6016 6.70312 23.5078C7.17188 22.4141 7.8125 21.4609 8.625 20.6484C9.4375 19.8359 10.3906 19.1875 11.4844 18.7031C12.5781 18.2188 13.75 17.9844 15 18C16.4375 18 17.7891 18.3203 19.0547 18.9609C20.3203 19.6016 21.3828 20.5 22.2422 21.6562C22.8359 20.4844 23.5938 19.4375 24.5156 18.5156C25.4375 17.5938 26.4844 16.8359 27.6562 16.2422C26.5 15.3828 25.6016 14.3203 24.9609 13.0547C24.3203 11.7891 24 10.4375 24 9C24 7.76562 24.2344 6.60156 24.7031 5.50781C25.1719 4.41406 25.8125 3.46094 26.625 2.64844C27.4375 1.83594 28.3906 1.1875 29.4844 0.703125C30.5781 0.21875 31.75 -0.015625 33 0C34.2344 0 35.3984 0.234375 36.4922 0.703125C37.5859 1.17188 38.5391 1.8125 39.3516 2.625C40.1641 3.4375 40.8125 4.39844 41.2969 5.50781C41.7812 6.61719 42.0156 7.78125 42 9C42 10.4375 41.6797 11.7891 41.0391 13.0547C40.3984 14.3203 39.5 15.3828 38.3438 16.2422C39.3594 16.7578 40.2734 17.3906 41.0859 18.1406C41.8984 18.8906 42.6016 19.7344 43.1953 20.6719C43.7891 21.6094 44.2344 22.6094 44.5312 23.6719C44.8281 24.7344 44.9844 25.8438 45 27H42C42 25.7656 41.7656 24.6016 41.2969 23.5078C40.8281 22.4141 40.1875 21.4609 39.375 20.6484C38.5625 19.8359 37.6016 19.1875 36.4922 18.7031C35.3828 18.2188 34.2188 17.9844 33 18C31.75 18 30.5859 18.2344 29.5078 18.7031C28.4297 19.1719 27.4766 19.8125 26.6484 20.625C25.8203 21.4375 25.1719 22.3984 24.7031 23.5078C24.2344 24.6172 24 25.7812 24 27C24 28.4375 23.6797 29.7891 23.0391 31.0547C22.3984 32.3203 21.5 33.3828 20.3438 34.2422ZM27 9C27 9.82812 27.1562 10.6016 27.4688 11.3203C27.7812 12.0391 28.2109 12.6797 28.7578 13.2422C29.3047 13.8047 29.9375 14.2344 30.6562 14.5312C31.375 14.8281 32.1562 14.9844 33 15C33.8281 15 34.6016 14.8438 35.3203 14.5312C36.0391 14.2188 36.6797 13.7891 37.2422 13.2422C37.8047 12.6953 38.2344 12.0625 38.5312 11.3438C38.8281 10.625 38.9844 9.84375 39 9C39 8.17188 38.8438 7.39844 38.5312 6.67969C38.2188 5.96094 37.7891 5.32031 37.2422 4.75781C36.6953 4.19531 36.0625 3.76562 35.3438 3.46875C34.625 3.17188 33.8438 3.01562 33 3C32.1719 3 31.3984 3.15625 30.6797 3.46875C29.9609 3.78125 29.3203 4.21094 28.7578 4.75781C28.1953 5.30469 27.7656 5.9375 27.4688 6.65625C27.1719 7.375 27.0156 8.15625 27 9ZM9 27C9 27.8281 9.15625 28.6016 9.46875 29.3203C9.78125 30.0391 10.2109 30.6797 10.7578 31.2422C11.3047 31.8047 11.9375 32.2344 12.6562 32.5312C13.375 32.8281 14.1562 32.9844 15 33C15.8281 33 16.6016 32.8438 17.3203 32.5312C18.0391 32.2188 18.6797 31.7891 19.2422 31.2422C19.8047 30.6953 20.2344 30.0625 20.5312 29.3438C20.8281 28.625 20.9844 27.8438 21 27C21 26.1719 20.8438 25.3984 20.5312 24.6797C20.2188 23.9609 19.7891 23.3203 19.2422 22.7578C18.6953 22.1953 18.0625 21.7656 17.3438 21.4688C16.625 21.1719 15.8438 21.0156 15 21C14.1719 21 13.3984 21.1562 12.6797 21.4688C11.9609 21.7812 11.3203 22.2109 10.7578 22.7578C10.1953 23.3047 9.76562 23.9375 9.46875 24.6562C9.17188 25.375 9.01562 26.1562 9 27ZM44.25 48L37.5 42.7266L30.75 48L33.4688 39.5625L27 34.5H35.0859L37.5 27L39.9141 34.5H48L41.5312 39.5625L44.25 48Z" fill="#009688"/>
</g>
<defs>
<clipPath id="clip0_130_289">
<rect width="48" height="48" fill="white"/>
</clipPath>
</defs>
</svg>
