<svg width="60" height="64" viewBox="0 0 60 64" fill="none" xmlns="http://www.w3.org/2000/svg">
<g filter="url(#filter0_i_57_256)">
<rect width="43.603" height="43.603" rx="3" transform="matrix(0.688026 -0.725686 0.688026 0.725686 0 31.6421)" fill="#16E1F5"/>
</g>
<rect x="0.206408" width="43.303" height="43.303" rx="2.85" transform="matrix(0.688026 -0.725686 0.688026 0.725686 0.0643939 31.7919)" stroke="#817E7E" stroke-width="0.3"/>
<path d="M44.325 21.6722C45.0059 23.5248 44.0529 24.7934 42.209 26.0452C40.7214 27.0521 38.8265 28.1462 36.8187 30.0139C34.849 31.8447 32.9287 34.0513 31.2216 36.2228C29.761 38.0869 28.3705 40.0109 27.0532 41.9903C26.3945 42.982 25.4733 44.4621 25.4733 44.4621C25.1428 45.0007 24.6875 45.4416 24.1505 45.7432C23.6135 46.0447 23.0126 46.1969 22.4043 46.1855C21.7964 46.1817 21.1995 46.014 20.6704 45.6982C20.1413 45.3825 19.6976 44.9292 19.3814 44.3816C17.792 41.5674 16.567 40.4549 16.0038 40.0572C14.4971 38.9865 12.7279 38.8322 12.7279 36.3419C12.7279 34.3634 14.3109 32.7609 16.2631 32.7609C17.6425 32.8146 18.9232 33.3868 20.0592 34.1923C20.7847 34.7058 21.5531 35.3871 22.3518 36.2815C23.4222 34.7409 24.5353 33.2339 25.6897 31.7624C27.5305 29.4215 29.7038 26.9094 32.0346 24.7414C34.3256 22.6102 36.9746 20.615 39.7827 19.5611C41.6123 18.8731 43.6456 19.8179 44.325 21.6722Z" fill="#1E1E1E"/>
<defs>
<filter id="filter0_i_57_256" x="1.20911" y="1.27539" width="57.5818" height="62.7334" filterUnits="userSpaceOnUse" color-interpolation-filters="sRGB">
<feFlood flood-opacity="0" result="BackgroundImageFix"/>
<feBlend mode="normal" in="SourceGraphic" in2="BackgroundImageFix" result="shape"/>
<feColorMatrix in="SourceAlpha" type="matrix" values="0 0 0 0 0 0 0 0 0 0 0 0 0 0 0 0 0 0 127 0" result="hardAlpha"/>
<feOffset dy="2"/>
<feGaussianBlur stdDeviation="2"/>
<feComposite in2="hardAlpha" operator="arithmetic" k2="-1" k3="1"/>
<feColorMatrix type="matrix" values="0 0 0 0 0 0 0 0 0 0 0 0 0 0 0 0 0 0 0.25 0"/>
<feBlend mode="normal" in2="shape" result="effect1_innerShadow_57_256"/>
</filter>
</defs>
</svg>
