<svg width="48" height="48" viewBox="0 0 48 48" fill="none" xmlns="http://www.w3.org/2000/svg">
<path d="M24 14C25.1046 14 26 13.1046 26 12C26 10.8954 25.1046 10 24 10C22.8954 10 22 10.8954 22 12C22 13.1046 22.8954 14 24 14Z" fill="black"/>
<path d="M12 34H36V38H12V34ZM20 23.66L25.584 29.248L33.448 21.378L36 24V16H28L30.62 18.55L25.582 23.588L20 18L12 26L14.828 28.828L20 23.66Z" fill="black"/>
<path d="M38 5.99989H31.404C31.2059 5.7054 30.9923 5.42167 30.764 5.14989L30.744 5.12589C29.274 3.41504 27.2069 2.32925 24.964 2.08989C24.327 1.96971 23.673 1.96971 23.036 2.08989C20.7931 2.32925 18.726 3.41504 17.256 5.12589L17.236 5.14989C17.0078 5.42102 16.7942 5.70409 16.596 5.99789V5.99989H10C8.40919 6.00148 6.88399 6.63413 5.75911 7.75901C4.63424 8.88388 4.00159 10.4091 4 11.9999V39.9999C4.00159 41.5907 4.63424 43.1159 5.75911 44.2408C6.88399 45.3657 8.40919 45.9983 10 45.9999H38C39.5908 45.9983 41.116 45.3657 42.2409 44.2408C43.3658 43.1159 43.9984 41.5907 44 39.9999V11.9999C43.9984 10.4091 43.3658 8.88388 42.2409 7.75901C41.116 6.63413 39.5908 6.00148 38 5.99989ZM40 39.9999C40 40.5303 39.7893 41.039 39.4142 41.4141C39.0391 41.7892 38.5304 41.9999 38 41.9999H10C9.46957 41.9999 8.96086 41.7892 8.58579 41.4141C8.21071 41.039 8 40.5303 8 39.9999V11.9999C8 11.4695 8.21071 10.9608 8.58579 10.5857C8.96086 10.2106 9.46957 9.99989 10 9.99989H19.1C19.3295 8.8696 19.9427 7.85342 20.8357 7.12352C21.7288 6.39361 22.8466 5.99488 24 5.99488C25.1534 5.99488 26.2712 6.39361 27.1643 7.12352C28.0573 7.85342 28.6705 8.8696 28.9 9.99989H38C38.5304 9.99989 39.0391 10.2106 39.4142 10.5857C39.7893 10.9608 40 11.4695 40 11.9999V39.9999Z" fill="black"/>
</svg>
