<svg width="48" height="48" viewBox="0 0 48 48" fill="none" xmlns="http://www.w3.org/2000/svg">
<path d="M9.232 40C8.31067 40 7.542 39.692 6.926 39.076C6.31 38.46 6.00133 37.6907 6 36.768V17.232C6 16.3107 6.30867 15.542 6.926 14.926C7.54333 14.31 8.31133 14.0013 9.23 14H18V11.23C18 10.31 18.3087 9.54134 18.926 8.924C19.5433 8.30667 20.312 7.99867 21.232 8H26.77C27.69 8 28.4587 8.308 29.076 8.924C29.6933 9.54 30.0013 10.3087 30 11.23V14H38.77C39.69 14 40.458 14.3087 41.074 14.926C41.69 15.5433 41.9987 16.312 42 17.232V36.77C42 37.69 41.6913 38.4587 41.074 39.076C40.4567 39.6933 39.6887 40.0013 38.77 40H9.232ZM9.232 38H38.77C39.0767 38 39.3587 37.872 39.616 37.616C39.8733 37.36 40.0013 37.0773 40 36.768V17.232C40 16.924 39.872 16.6413 39.616 16.384C39.36 16.1267 39.078 15.9987 38.77 16H9.23C8.92333 16 8.64133 16.128 8.384 16.384C8.12667 16.64 7.99867 16.9227 8 17.232V36.77C8 37.0767 8.128 37.3587 8.384 37.616C8.64 37.8733 8.922 38.0013 9.23 38M20 14H28V11.23C28 10.9233 27.872 10.6413 27.616 10.384C27.36 10.1267 27.078 9.99867 26.77 10H21.23C20.9233 10 20.6413 10.128 20.384 10.384C20.1267 10.64 19.9987 10.922 20 11.23V14Z" fill="black"/>
</svg>
