<svg width="48" height="48" viewBox="0 0 48 48" fill="none" xmlns="http://www.w3.org/2000/svg">
<g clip-path="url(#clip0_268_20)">
<path d="M16.3067 17.4533C16.0583 17.7031 15.9189 18.041 15.9189 18.3933C15.9189 18.7455 16.0583 19.0834 16.3067 19.3333L24 27.0666L31.72 19.3466C31.9384 19.0915 32.0526 18.7634 32.0396 18.4278C32.0267 18.0923 31.8875 17.774 31.6501 17.5365C31.4126 17.299 31.0943 17.1599 30.7587 17.147C30.4232 17.134 30.0951 17.2481 29.84 17.4666L25.3333 21.9599V2.66659C25.3333 2.31296 25.1929 1.97382 24.9428 1.72378C24.6928 1.47373 24.3536 1.33325 24 1.33325C23.6464 1.33325 23.3072 1.47373 23.0572 1.72378C22.8071 1.97382 22.6667 2.31296 22.6667 2.66659V21.9999L18.16 17.4933C17.9166 17.2475 17.5872 17.1059 17.2414 17.0985C16.8956 17.091 16.5604 17.2182 16.3067 17.4533Z" fill="black"/>
<path d="M39.3337 6.66675H29.3337V9.33341H38.667V28.0001H31.4803L31.347 29.1867C31.1456 30.9499 30.3025 32.5774 28.9784 33.7589C27.6543 34.9405 25.9416 35.5935 24.167 35.5935C22.3923 35.5935 20.6797 34.9405 19.3556 33.7589C18.0314 32.5774 17.1883 30.9499 16.987 29.1867L16.8537 28.0001H9.33366V9.33341H18.667V6.66675H8.66699C8.13656 6.66675 7.62785 6.87746 7.25278 7.25253C6.87771 7.62761 6.66699 8.13631 6.66699 8.66675V42.0001C6.66699 42.5305 6.87771 43.0392 7.25278 43.4143C7.62785 43.7894 8.13656 44.0001 8.66699 44.0001H39.3337C39.8641 44.0001 40.3728 43.7894 40.7479 43.4143C41.1229 43.0392 41.3337 42.5305 41.3337 42.0001V8.66675C41.3337 8.13631 41.1229 7.62761 40.7479 7.25253C40.3728 6.87746 39.8641 6.66675 39.3337 6.66675ZM38.667 41.3334H9.33366V30.6667H14.547C15.0606 32.8339 16.2904 34.7643 18.0374 36.1457C19.7845 37.5271 21.9465 38.2786 24.1737 38.2786C26.4008 38.2786 28.5628 37.5271 30.3099 36.1457C32.0569 34.7643 33.2867 32.8339 33.8003 30.6667H38.667V41.3334Z" fill="black"/>
</g>
<defs>
<clipPath id="clip0_268_20">
<rect width="48" height="48" fill="white"/>
</clipPath>
</defs>
</svg>
