<svg width="48" height="48" viewBox="0 0 48 48" fill="none" xmlns="http://www.w3.org/2000/svg">
<path d="M17 36.792V31H13C12.4696 31 11.9609 30.7893 11.5858 30.4142C11.2107 30.0391 11 29.5304 11 29V15C11 14.4696 11.2107 13.9609 11.5858 13.5858C11.9609 13.2107 12.4696 13 13 13H35C35.5304 13 36.0391 13.2107 36.4142 13.5858C36.7893 13.9609 37 14.4696 37 15V29C37 29.5304 36.7893 30.0391 36.4142 30.4142C36.0391 30.7893 35.5304 31 35 31H24L17.854 37.146C17.7841 37.2161 17.6949 37.2639 17.5978 37.2832C17.5007 37.3026 17.4 37.2927 17.3085 37.2548C17.2171 37.2169 17.1389 37.1526 17.084 37.0703C17.0291 36.9879 16.9998 36.891 17 36.792Z" stroke="black"/>
<path d="M17 25H31M17 19H31" stroke="black" stroke-linecap="round"/>
</svg>
