<svg width="48" height="48" viewBox="0 0 48 48" fill="none" xmlns="http://www.w3.org/2000/svg">
<g opacity="0.5">
<path d="M12 2V6H10C8.93913 6 7.92172 6.42143 7.17157 7.17157C6.42143 7.92172 6 8.93913 6 10V38C6 39.0609 6.42143 40.0783 7.17157 40.8284C7.92172 41.5786 8.93913 42 10 42H38C39.0609 42 40.0783 41.5786 40.8284 40.8284C41.5786 40.0783 42 39.0609 42 38V10C42 8.93913 41.5786 7.92172 40.8284 7.17157C40.0783 6.42143 39.0609 6 38 6H36V2H32V6H16V2H12ZM10 16H38V38H10V16ZM24.38 18C22.64 18 21.24 18.4 20.16 19.18C19.12 20 18.6 21.14 18.62 22.72L18.64 22.78H22.5C22.52 22.18 22.7 21.72 23.06 21.4C23.4303 21.0929 23.899 20.9296 24.38 20.94C25 20.94 25.52 21.14 25.88 21.5C26.24 21.88 26.4 22.4 26.4 23C26.4 23.64 26.26 24.18 25.94 24.64C25.66 25.1 25.24 25.5 24.72 25.82C23.7 26.5 23 27.1 22.62 27.64C22.22 28.16 22 29 22 30H26C26 29.38 26.08 28.88 26.26 28.52C26.44 28.16 26.78 27.8 27.28 27.48C28.18 27 28.92 26.42 29.5 25.62C30.08 24.82 30.38 24 30.38 23C30.38 21.48 29.84 20.26 28.76 19.36C27.7 18.46 26.24 18 24.38 18ZM22 32V36H26V32H22Z" fill="black"/>
</g>
</svg>
