<svg width="48" height="48" viewBox="0 0 48 48" fill="none" xmlns="http://www.w3.org/2000/svg">
<path d="M18 31.232C16.8307 31.232 15.8333 30.8187 15.008 29.992C14.1827 29.1654 13.7693 28.168 13.768 27C13.7667 25.832 14.18 24.8347 15.008 24.008C15.836 23.1814 16.8333 22.768 18 22.768C19.1667 22.768 20.164 23.1814 20.992 24.008C21.82 24.8347 22.2333 25.832 22.232 27C22.2307 28.168 21.8173 29.1654 20.992 29.992C20.1667 30.8187 19.1693 31.232 18 31.232ZM11.232 42C10.3107 42 9.542 41.692 8.926 41.076C8.31 40.46 8.00133 39.6914 8 38.77V13.23C8 12.31 8.30867 11.542 8.926 10.926C9.54333 10.31 10.312 10.0014 11.232 10H14.77V5.54004H16.924V10H31.232V5.54004H33.232V10H36.77C37.69 10 38.4587 10.3087 39.076 10.926C39.6933 11.5434 40.0013 12.312 40 13.232V38.77C40 39.69 39.692 40.4587 39.076 41.076C38.46 41.6934 37.6907 42.0014 36.768 42H11.232ZM11.232 40H36.77C37.0767 40 37.3587 39.872 37.616 39.616C37.8733 39.36 38.0013 39.0774 38 38.768V21.232H10V38.77C10 39.0767 10.128 39.3587 10.384 39.616C10.64 39.8734 10.922 40.0014 11.23 40M10 19.23H38V13.23C38 12.9234 37.872 12.6414 37.616 12.384C37.36 12.1267 37.0773 11.9987 36.768 12H11.232C10.924 12 10.6413 12.128 10.384 12.384C10.1267 12.64 9.99867 12.9227 10 13.232V19.23Z" fill="black"/>
</svg>
